<svg width="298" height="244" viewBox="0 0 298 244" fill="none" xmlns="http://www.w3.org/2000/svg">
<g clip-path="url(#clip0)">
<path opacity="0.5" d="M107.876 170.945C99.4752 175.189 85.8659 175.189 77.4653 170.945C69.0646 166.702 69.0646 159.805 77.4653 155.529C85.8659 151.253 99.4752 151.278 107.876 155.529C116.276 159.781 116.267 166.694 107.876 170.945Z" fill="#C4D9E8"/>
<path opacity="0.5" d="M267.728 236.073C284.447 236.073 298 229.211 298 220.747C298 212.282 284.447 205.42 267.728 205.42C251.009 205.42 237.456 212.282 237.456 220.747C237.456 229.211 251.009 236.073 267.728 236.073Z" fill="#C4D9E8"/>
<path d="M80.3425 29.428C80.3425 29.428 80.8976 39.57 81.7766 46.3854C82.6555 53.2008 101.372 41.144 101.372 41.144V33.3874L80.3425 29.428Z" fill="#6614CF"/>
<path d="M90.3067 155.578C90.5842 156.195 95.4322 161.371 100.28 162.669C101.71 163.111 103.227 163.293 104.739 163.205C104.962 163.183 105.176 163.116 105.365 163.009C105.553 162.903 105.711 162.759 105.827 162.591C105.942 162.422 106.012 162.233 106.03 162.037C106.049 161.841 106.015 161.643 105.933 161.461C104.268 157.539 100.931 154.339 96.6256 152.536C88.4101 148.925 90.3067 155.578 90.3067 155.578Z" fill="#173D7A"/>
<path d="M88.6876 157.566C89.7532 159.789 90.5531 162.103 91.0745 164.471C91.4169 166.385 90.2234 168.876 89.2242 170.531C89.0789 170.769 88.8738 170.975 88.6243 171.133C88.3749 171.291 88.0876 171.397 87.7845 171.443C87.4813 171.489 87.1701 171.474 86.8745 171.399C86.5789 171.324 86.3068 171.191 86.0786 171.01C83.8729 169.32 82.4699 166.967 82.1466 164.414C81.5822 159.108 82.1466 158.183 82.1466 158.183L88.6876 157.566Z" fill="#173D7A"/>
<path d="M77.0119 93.5172C76.6341 98.2037 76.6341 102.908 77.0119 107.594C77.641 114.986 79.9077 149.574 80.324 157.899C80.324 157.899 80.1205 160.422 85.6808 159.862C91.2411 159.302 90.7878 156.511 90.7878 156.511C90.7878 156.511 98.5963 156.422 98.8461 152.381C99.0959 148.341 106.84 104.187 106.84 88.2839L77.0119 93.5172Z" fill="#FDD762"/>
<path d="M109.726 58.9453L113.557 64.1461L126.75 78.0772C126.58 78.4776 126.301 78.8352 125.936 79.1183C125.571 79.4013 125.133 79.6011 124.659 79.6999C123.382 79.9595 112.326 70.71 107.543 66.6451C106.943 66.1211 106.566 65.4325 106.475 64.6942C106.384 63.9559 106.585 63.2126 107.043 62.5883L109.726 58.9453Z" fill="#FFC2B0"/>
<path d="M102.269 37.6147C102.269 37.6147 108.348 37.4767 110.457 45.1846C112.567 52.8925 114.232 62.5315 112.391 63.3347C106.84 65.7688 103.37 62.9209 103.37 62.9209L102.269 37.6147Z" fill="#1A79E8"/>
<path d="M104.083 37.9472C103.043 37.5701 101.889 37.5129 100.807 37.7849C95.6264 39.0912 76.1607 44.0973 72.9503 46.5071C69.2496 49.2819 78.5014 64.9006 78.3719 70.0365C78.2423 75.1724 77.5855 81.1926 77.0674 86.7505C76.5493 92.3083 75.8646 95.3509 81.0456 97.72C86.2266 100.089 95.0991 100.154 101.733 95.7647C108.366 91.3752 107.163 88.3002 106.886 85.0791C106.608 81.858 104.351 67.9432 104.545 63.9837C106.177 62.8481 107.557 61.4593 108.616 59.8864C110.346 57.29 107.293 52.5355 106.016 49.4361C104.739 46.3367 106.738 42.8073 106.34 40.2758C106.254 39.74 105.996 39.2367 105.596 38.8244C105.197 38.4122 104.672 38.1079 104.083 37.9472V37.9472Z" fill="#1A79E8"/>
<path d="M91.2927 49.1865C95.332 48.7327 98.2734 46.084 97.8624 43.2705C97.4514 40.457 93.8437 38.5441 89.8044 38.9979C85.765 39.4517 82.8236 42.1004 83.2346 44.9139C83.6456 47.7273 87.2533 49.6402 91.2927 49.1865Z" fill="white"/>
<path d="M95.7746 43.505C96.0706 45.509 93.9242 47.4076 91.0747 47.7322C88.2251 48.0567 85.6161 46.6855 85.32 44.6733C85.024 42.6612 87.1704 40.7707 90.02 40.4543C92.8695 40.1378 95.4785 41.4928 95.7746 43.505Z" fill="#FFC2B0"/>
<path d="M92.9065 36.9007C92.9065 36.9007 89.3908 34.3692 88.697 35.6512C88.0031 36.9331 87.4387 42.4423 87.4387 42.4423L94.4238 44.065L93.3599 38.4828C93.3599 38.4828 94.7569 37.4686 92.9065 36.9007Z" fill="#FFC2B0"/>
<path d="M93.9572 39.3361C99.7106 39.1342 104.188 34.8803 103.958 29.8347C103.728 24.7891 98.8772 20.8624 93.1238 21.0643C87.3704 21.2661 82.8929 25.52 83.123 30.5656C83.3531 35.6112 88.2038 39.5379 93.9572 39.3361Z" fill="#FFC2B0"/>
<path d="M88.2158 37.2496C88.1511 37.5336 88.0955 37.8419 88.04 38.1583C88.7339 41.3389 94.1647 42.7344 94.1647 42.7344L93.3598 38.5072C93.3598 38.5072 94.0167 38.0204 93.8317 37.5255C91.6852 36.9332 88.9837 36.4139 88.2158 37.2496Z" fill="#EA9C92"/>
<path d="M93.9572 39.3361C99.7106 39.1342 104.188 34.8803 103.958 29.8347C103.728 24.7891 98.8772 20.8624 93.1238 21.0643C87.3704 21.2661 82.8929 25.52 83.123 30.5656C83.3531 35.6112 88.2038 39.5379 93.9572 39.3361Z" fill="#FFC2B0"/>
<path d="M67.7417 69.0061L68.9074 93.4605L72.9782 93.8337L75.6335 71.8215L67.7417 69.0061Z" fill="#FFC2B0"/>
<path d="M81.1383 66.9616C79.7876 61.7446 77.1231 50.207 77.1231 50.207L75.9851 61.6634C77.2989 65.0711 78.4276 68.1543 78.3721 70.0042C78.2981 73.0062 78.039 76.3247 77.7337 79.6837C77.7337 79.6837 82.4799 72.2111 81.1383 66.9616Z" fill="#8A2AE3"/>
<path d="M73.7275 46.0042C73.7275 46.0042 70.4708 47.0995 68.6205 55.8784C66.7701 64.6573 65.4009 73.4524 68.6852 74.5883C71.9696 75.7242 74.7267 76.5762 75.6888 74.2232C76.651 71.8703 77.2616 60.5599 77.3819 56.4869C77.5022 52.4139 77.715 46.8074 73.7275 46.0042Z" fill="#1A79E8"/>
<path d="M125.732 77.0791C126.88 77.4805 127.918 78.0918 128.776 78.8722C129.548 79.6273 130.242 80.4419 130.848 81.3063C131.866 82.6369 132.698 85.5091 132.106 85.8661C131.514 86.2231 127.943 81.0548 127.369 82.2556C126.796 83.4564 127.369 84.568 126.648 84.5842C125.926 84.6004 123.363 79.3996 121.365 77.7769C119.366 76.1542 125.732 77.0791 125.732 77.0791Z" fill="#FFC2B0"/>
<path d="M90.7878 156.503C91.5358 156.484 92.2811 156.416 93.0175 156.3V156.3L94.5441 102.548L90.7878 156.503Z" fill="#D8892B"/>
<path d="M68.935 93.2577C68.935 93.2577 67.8618 98.9372 68.0099 100.795C68.1579 102.653 69.2866 105.663 70.1378 105.574C70.9889 105.485 70.1378 98.2232 71.6551 98.9453C73.1724 99.6675 73.2926 100.917 73.968 100.479C74.6434 100.041 72.793 93.8095 73.2834 91.1076C73.7737 88.4058 68.935 93.2577 68.935 93.2577Z" fill="#FFC2B0"/>
<path d="M97.4121 31.1238C102.639 32.7465 103.657 31.7567 103.703 31.708C103.758 31.4396 103.795 31.1687 103.814 30.8966C103.876 29.9128 103.757 28.9266 103.463 27.9757L89.8997 26.353C91.7564 28.608 94.3898 30.2804 97.4121 31.1238V31.1238Z" fill="#EA9C92"/>
<path d="M104.185 21.7606C102.954 20.8357 98.5132 16.2596 90.5474 17.3387C85.5699 18.0121 81.4159 20.9898 80.4907 27.7809C80.2174 30.0342 80.507 32.3126 81.3394 34.4578C82.1718 36.603 83.527 38.5634 85.3109 40.2028C85.4959 40.1217 85.6994 40.0486 85.8752 39.9513C87.8644 38.7991 88.0864 38.1663 88.0864 38.1582L88.5212 34.6937C88.5226 34.4536 88.422 34.2217 88.239 34.0432C88.0559 33.8647 87.8036 33.7524 87.5313 33.7282C87.2329 33.7005 86.9458 33.6129 86.6923 33.4722C86.4388 33.3315 86.2257 33.1415 86.0695 32.9168C84.9223 31.6105 85.4496 29.5659 87.7441 29.4847C88.1559 29.5178 88.5677 29.4219 88.9065 29.2139C89.2452 29.006 89.489 28.6995 89.5944 28.3488C89.6265 28.2383 89.6847 28.135 89.7654 28.0455C89.846 27.9561 89.9473 27.8826 90.0625 27.8297C90.1777 27.7769 90.3044 27.746 90.4341 27.739C90.5639 27.732 90.6939 27.749 90.8157 27.789C93.4247 28.6004 99.8362 30.3935 103.962 29.4117C109.171 28.0892 105.471 22.718 104.185 21.7606Z" fill="#6614CF"/>
<path d="M98.2539 35.2535L101.437 34.4421C100.554 35.6436 99.2575 36.5672 97.7358 37.0791C95.5154 37.6146 95.1731 35.9675 95.1731 35.9675L98.2539 35.2535Z" fill="white"/>
<path opacity="0.5" d="M196.23 228.746L124.066 192.665C121.43 191.327 121.763 188.998 124.807 187.456L166.319 166.434C169.372 164.892 173.98 164.722 176.617 166.061L248.781 202.142C251.417 203.473 251.084 205.809 248.04 207.351L206.528 228.373C203.475 229.915 198.913 230.085 196.23 228.746Z" fill="#C4D9E8"/>
<path d="M255.211 189.996V42.2719L188.246 26.8561L175.913 20.6167C173.082 19.1806 168.142 19.3591 164.867 21.0143L153.358 26.8399H117.646L128.221 169.444C128.208 169.988 128.376 170.523 128.705 170.984C129.034 171.445 129.508 171.812 130.071 172.041L196.897 216.268C199.728 217.696 204.677 217.517 207.943 215.862L252.574 193.339C254.424 192.381 255.349 191.148 255.211 189.996Z" fill="#1A79E8"/>
<path d="M170.788 19.6917C168.714 19.7323 166.682 20.2139 164.867 21.0953L153.358 26.9209H117.646V174.986C117.637 175.534 117.813 176.072 118.15 176.534C118.487 176.995 118.971 177.36 119.542 177.582L196.943 216.292C198.525 217.002 200.293 217.332 202.068 217.249L202.864 68.2028L170.788 19.6917Z" fill="#D4ECFF"/>
<path d="M197.655 216.633C200.513 217.54 203.649 217.508 206.481 216.544V66.4421H197.655V216.633Z" fill="#398CEC"/>
<path d="M196.943 68.2188L119.542 29.5089C116.711 28.0809 117.063 25.5738 120.329 23.9186L164.867 1.37096C168.142 -0.251755 173.082 -0.462709 175.914 0.965283L253.314 39.6752C256.145 41.1113 255.793 43.6103 252.528 45.2655L207.989 67.8132C204.724 69.4683 199.774 69.6468 196.943 68.2188Z" fill="#D4ECFF"/>
<path d="M252.574 42.5233L207.989 65.071C204.724 66.6937 199.774 66.9047 196.943 65.4685L119.542 26.7748C118.982 26.5054 118.498 26.1282 118.127 25.6714C117.155 27.0426 117.599 28.5355 119.542 29.5172L196.943 68.2272C199.774 69.6552 204.724 69.4767 207.989 67.8215L252.574 45.2657C255.109 43.9838 255.886 42.1825 254.776 40.7708C254.213 41.5017 253.458 42.1029 252.574 42.5233V42.5233Z" fill="#FAFDFF"/>
<path d="M199.135 52.5274L147.603 26.3367C146.271 25.6633 146.437 24.4868 147.973 23.716L168.808 13.1683C169.594 12.787 170.471 12.5716 171.369 12.5392C172.267 12.5068 173.161 12.6583 173.98 12.9817L225.512 39.1805C226.835 39.8539 226.669 41.0223 225.142 41.8012L204.298 52.3489C203.514 52.7325 202.638 52.9486 201.741 52.9796C200.844 53.0106 199.951 52.8557 199.135 52.5274Z" fill="#173D7A"/>
<path d="M171.315 27.5133L168.327 25.9636C168.142 25.8743 168.17 25.712 168.373 25.6066L171.26 24.1461C171.37 24.0963 171.492 24.0703 171.616 24.0703C171.74 24.0703 171.862 24.0963 171.972 24.1461L174.961 25.6634C175.146 25.7526 175.118 25.9149 174.914 26.0204L172.028 27.4808C171.921 27.5357 171.8 27.5673 171.676 27.5729C171.552 27.5786 171.428 27.5581 171.315 27.5133V27.5133Z" fill="#D4ECFF"/>
<path d="M181.335 32.5436L178.347 31.0264C178.162 30.9371 178.189 30.7749 178.402 30.6694L181.28 29.2089C181.391 29.1591 181.515 29.1331 181.64 29.1331C181.766 29.1331 181.889 29.1591 182.001 29.2089L184.98 30.7262C185.165 30.8154 185.147 30.9777 184.98 31.0832L182.094 32.5436C181.978 32.6005 181.847 32.6303 181.714 32.6303C181.582 32.6303 181.451 32.6005 181.335 32.5436V32.5436Z" fill="#D4ECFF"/>
<path d="M191.262 37.5741L188.283 36.0568C188.098 35.9676 188.117 35.8053 188.33 35.6998L191.216 34.2394C191.326 34.1896 191.448 34.1636 191.572 34.1636C191.696 34.1636 191.818 34.1896 191.929 34.2394L194.917 35.6998C195.102 35.7891 195.074 35.9513 194.861 36.0568L191.984 37.5173C191.877 37.5762 191.756 37.612 191.631 37.6219C191.506 37.6318 191.379 37.6154 191.262 37.5741V37.5741Z" fill="#D4ECFF"/>
<path d="M201.245 42.6046L198.257 41.0873C198.072 40.9981 198.099 40.8358 198.303 40.7303L201.19 39.2699C201.3 39.2201 201.422 39.1941 201.546 39.1941C201.67 39.1941 201.792 39.2201 201.902 39.2699L204.89 40.779C205.075 40.8683 205.048 41.0305 204.844 41.1441L201.957 42.5965C201.848 42.6475 201.726 42.6749 201.602 42.6763C201.478 42.6777 201.356 42.6531 201.245 42.6046V42.6046Z" fill="#D4ECFF"/>
<path d="M147.603 26.3367H147.659L147.973 26.1501L168.808 15.6024C169.593 15.2174 170.47 14.9999 171.369 14.9675C172.267 14.935 173.162 15.0886 173.98 15.4158L225.457 41.5821C226.678 40.7708 226.734 39.7728 225.512 39.1481L173.98 12.9817C173.161 12.6583 172.267 12.5068 171.369 12.5392C170.471 12.5716 169.594 12.787 168.808 13.1683L147.973 23.716C146.437 24.4868 146.271 25.6633 147.603 26.3367Z" fill="#5793CE"/>
<path d="M188.394 97.4848L131.2 68.5274C130.29 67.9557 129.546 67.2051 129.027 66.3358C128.508 65.4664 128.229 64.5025 128.211 63.5213V54.3611C128.211 52.43 129.553 51.5456 131.2 52.3813L188.394 81.3388C189.304 81.9104 190.048 82.661 190.567 83.5304C191.086 84.3998 191.365 85.3637 191.383 86.3448V95.5294C191.383 97.4361 190.041 98.3205 188.394 97.4848Z" fill="#1A79E8"/>
<path d="M184.111 89.3631L181.428 88C181.228 87.8771 181.065 87.7145 180.95 87.5255C180.836 87.3366 180.775 87.1266 180.771 86.9128V84.3813C180.771 83.9675 181.067 83.7728 181.428 83.9513L184.111 85.3144C184.31 85.4378 184.473 85.6005 184.587 85.7893C184.701 85.9782 184.763 86.1879 184.768 86.4016V88.9249C184.721 89.355 184.425 89.5416 184.111 89.3631Z" fill="#173D7A"/>
<path d="M175.081 84.8114L172.389 83.4483C172.19 83.325 172.028 83.1621 171.915 82.9731C171.803 82.7841 171.743 82.5743 171.741 82.3611V79.8459C171.741 79.424 172.028 79.2292 172.389 79.4077L175.081 80.7708C175.279 80.8963 175.441 81.0608 175.553 81.251C175.666 81.4412 175.726 81.6519 175.729 81.8661V84.3814C175.729 84.8033 175.442 84.9899 175.081 84.8114Z" fill="#173D7A"/>
<path d="M188.394 130.686L131.2 101.728C130.29 101.157 129.546 100.406 129.027 99.5366C128.508 98.6672 128.229 97.7033 128.211 96.7222V87.5376C128.211 85.6065 129.553 84.7222 131.2 85.5579L188.394 114.515C189.304 115.087 190.048 115.838 190.567 116.707C191.086 117.576 191.365 118.54 191.383 119.521V128.706C191.383 130.629 190.041 131.521 188.394 130.686Z" fill="#1A79E8"/>
<path d="M184.111 122.564L181.428 121.201C181.228 121.078 181.065 120.915 180.95 120.726C180.836 120.537 180.775 120.327 180.771 120.114V117.598C180.771 117.176 181.067 116.982 181.428 117.16L184.111 118.523C184.31 118.647 184.473 118.809 184.587 118.998C184.701 119.187 184.763 119.397 184.768 119.61V122.134C184.721 122.556 184.425 122.742 184.111 122.564Z" fill="#173D7A"/>
<path d="M175.081 118.012L172.389 116.649C172.19 116.526 172.028 116.363 171.915 116.174C171.803 115.985 171.743 115.775 171.741 115.562V113.047C171.741 112.625 172.028 112.43 172.389 112.609L175.081 113.972C175.279 114.097 175.441 114.262 175.553 114.452C175.666 114.642 175.726 114.853 175.729 115.067V117.582C175.729 118.004 175.442 118.199 175.081 118.012Z" fill="#D4ECFF"/>
<path d="M188.394 163.894L131.2 134.929C130.29 134.357 129.546 133.607 129.027 132.737C128.508 131.868 128.229 130.904 128.211 129.923V120.738C128.211 118.807 129.553 117.923 131.2 118.759L188.394 147.716C189.304 148.288 190.048 149.038 190.567 149.908C191.086 150.777 191.365 151.741 191.383 152.722V161.907C191.383 163.838 190.041 164.706 188.394 163.894Z" fill="#1A79E8"/>
<path d="M184.111 155.781L181.428 154.418C181.228 154.295 181.065 154.132 180.95 153.943C180.836 153.754 180.775 153.544 180.771 153.331V150.815C180.771 150.393 181.067 150.199 181.428 150.377L184.111 151.724C184.309 151.848 184.471 152.011 184.585 152.2C184.699 152.389 184.761 152.598 184.768 152.811V155.335C184.721 155.781 184.425 155.943 184.111 155.781Z" fill="#D4ECFF"/>
<path d="M175.081 151.213L172.389 149.85C172.19 149.727 172.028 149.564 171.915 149.375C171.803 149.186 171.743 148.976 171.741 148.763V146.248C171.741 145.826 172.028 145.631 172.389 145.818L175.081 147.172C175.279 147.298 175.441 147.462 175.553 147.653C175.666 147.843 175.726 148.054 175.729 148.268V150.783C175.729 151.205 175.442 151.4 175.081 151.213Z" fill="#173D7A"/>
<path d="M188.394 197.087L131.2 168.13C130.29 167.558 129.546 166.808 129.027 165.938C128.508 165.069 128.229 164.105 128.211 163.124V153.939C128.211 152.008 129.553 151.124 131.2 151.959L188.394 180.933C189.304 181.505 190.048 182.255 190.567 183.125C191.086 183.994 191.365 184.958 191.383 185.939V195.124C191.383 197.039 190.041 197.923 188.394 197.087Z" fill="#1A79E8"/>
<path d="M184.111 188.965L181.428 187.602C181.228 187.479 181.065 187.317 180.95 187.128C180.836 186.939 180.775 186.729 180.771 186.515V184C180.771 183.578 181.067 183.383 181.428 183.562L184.111 184.925C184.31 185.05 184.473 185.214 184.587 185.404C184.701 185.594 184.763 185.805 184.768 186.02V188.535C184.721 188.957 184.425 189.144 184.111 188.965Z" fill="#D4ECFF"/>
<path d="M175.081 184.414L172.389 183.051C172.19 182.927 172.028 182.764 171.915 182.575C171.803 182.386 171.743 182.177 171.741 181.963V179.448C171.741 179.026 172.028 178.832 172.389 179.018L175.081 180.373C175.279 180.499 175.441 180.663 175.553 180.853C175.666 181.044 175.726 181.254 175.729 181.469V183.984C175.729 184.406 175.442 184.6 175.081 184.414Z" fill="#D4ECFF"/>
<path d="M216.686 97.4848L245.986 82.7587C246.896 82.187 247.64 81.4364 248.159 80.567C248.678 79.6976 248.957 78.7337 248.975 77.7526V68.5842C248.975 66.6532 247.633 65.7688 245.986 66.6045L216.686 81.3144C215.777 81.8861 215.033 82.6367 214.514 83.5061C213.995 84.3754 213.715 85.3394 213.698 86.3205V95.5051C213.716 97.4361 215.039 98.3205 216.686 97.4848Z" fill="#173D7A"/>
<path d="M216.686 130.686L245.986 115.976C246.896 115.404 247.64 114.653 248.159 113.784C248.678 112.915 248.957 111.951 248.975 110.969V101.785C248.975 99.8538 247.633 98.9695 245.986 99.8052L216.686 114.515C215.777 115.087 215.033 115.837 214.514 116.707C213.995 117.576 213.715 118.54 213.698 119.521V128.706C213.716 130.629 215.039 131.521 216.686 130.686Z" fill="#173D7A"/>
<path d="M216.686 163.895L245.986 149.185C246.896 148.613 247.64 147.862 248.159 146.993C248.678 146.124 248.957 145.16 248.975 144.179V134.986C248.975 133.055 247.633 132.17 245.986 133.006L216.686 147.716C215.777 148.288 215.033 149.038 214.514 149.908C213.995 150.777 213.715 151.741 213.698 152.722V161.907C213.716 163.838 215.039 164.706 216.686 163.895Z" fill="#173D7A"/>
<path d="M216.686 197.087L245.986 182.377C246.896 181.806 247.64 181.055 248.159 180.186C248.678 179.316 248.957 178.352 248.975 177.371V168.187C248.975 166.256 247.633 165.371 245.986 166.207L216.686 180.933C215.777 181.505 215.033 182.255 214.514 183.125C213.995 183.994 213.715 184.958 213.698 185.939V195.124C213.716 197.039 215.039 197.923 216.686 197.087Z" fill="#173D7A"/>
<path opacity="0.5" d="M30.7346 221.825L7.66067 210.142C6.24515 209.428 6.42094 208.17 8.0585 207.343L30.3368 196.065C31.1791 195.652 32.1204 195.418 33.0847 195.383C34.0491 195.347 35.0093 195.512 35.8879 195.862L58.9341 207.546C60.3496 208.26 60.1738 209.517 58.5455 210.345L36.2579 221.623C35.4192 222.032 34.4828 222.263 33.5237 222.299C32.5647 222.334 31.6095 222.172 30.7346 221.825Z" fill="#C4D9E8"/>
<path d="M66.6129 198.645V189.907H44.2606L36.5261 185.996C35.4318 185.561 34.2367 185.358 33.0365 185.402C31.8363 185.445 30.6645 185.735 29.6151 186.247L22.3987 189.899H9.28366e-05V198.864C-0.00365843 199.206 0.106348 199.542 0.316662 199.83C0.526976 200.118 0.828484 200.346 1.18432 200.487L30.0776 215.091C31.173 215.528 32.3699 215.732 33.572 215.689C34.774 215.645 35.9476 215.354 36.998 214.84L64.9014 200.714C65.3774 200.542 65.7895 200.258 66.0918 199.892C66.394 199.527 66.5745 199.095 66.6129 198.645Z" fill="#721BD5"/>
<path d="M33.3065 185.379C32.0123 185.395 30.742 185.688 29.6058 186.231L22.3894 189.882H9.28366e-05V198.864C-0.00365843 199.206 0.106348 199.542 0.316662 199.83C0.526976 200.118 0.828484 200.347 1.18432 200.487L30.0776 215.091C31.067 215.54 32.1758 215.748 33.288 215.692L33.3065 185.379Z" fill="#983BE9"/>
<path d="M2.54433 189.858H9.28366e-05V198.864C-0.00365843 199.206 0.106348 199.542 0.316662 199.83C0.526976 200.118 0.828484 200.346 1.18432 200.487L2.53508 201.168L2.54433 189.858Z" fill="#B45EF4"/>
<path d="M30.531 215.31C32.3277 215.884 34.3011 215.864 36.0821 215.254V205.047H30.531V215.31Z" fill="#7E23DC"/>
<path d="M30.0869 206.158L1.19361 191.554C-0.573477 190.653 -0.351434 189.12 1.69321 188.049L29.6059 173.899C31.6505 172.868 34.7498 172.754 36.5169 173.647L65.4103 188.251C67.1866 189.152 66.9646 190.686 64.9199 191.757L37.0073 205.907C35.9569 206.421 34.7833 206.712 33.5813 206.756C32.3792 206.799 31.1823 206.595 30.0869 206.158V206.158Z" fill="#8A2AE3"/>
<path d="M30.6141 203.53L6.39295 191.27C4.91266 190.515 5.0977 189.201 6.80928 188.333L30.1885 176.495C31.07 176.066 32.0535 175.824 33.0605 175.788C34.0676 175.751 35.0705 175.921 35.9894 176.284L60.2013 188.544C61.6909 189.298 61.5058 190.613 59.785 191.481L36.4057 203.319C35.5254 203.746 34.5437 203.987 33.5383 204.024C32.533 204.061 31.5318 203.891 30.6141 203.53V203.53Z" fill="#6614CF"/>
<path d="M55.9643 200.957C55.9431 201.312 55.8264 201.657 55.6238 201.965C55.4212 202.272 55.1384 202.533 54.7985 202.726C54.1509 203.051 53.6328 202.791 53.6328 202.134C53.661 201.786 53.7811 201.449 53.9834 201.149C54.1857 200.849 54.4648 200.595 54.7985 200.406C55.4462 200.041 55.9643 200.3 55.9643 200.957Z" fill="#FF2C9C"/>
<path d="M59.7204 199.051C59.6984 199.406 59.5815 199.752 59.379 200.061C59.1765 200.37 58.8941 200.632 58.5546 200.828C57.907 201.152 57.3889 200.884 57.3889 200.235C57.4116 199.88 57.5288 199.534 57.7312 199.225C57.9336 198.917 58.2156 198.654 58.5546 198.458C59.2115 198.134 59.7204 198.402 59.7204 199.051Z" fill="#FF2C9C"/>
<path d="M63.4767 197.16C63.4534 197.514 63.3358 197.859 63.1333 198.166C62.9309 198.473 62.6493 198.734 62.311 198.929C61.6633 199.262 61.136 198.994 61.136 198.345C61.1582 197.988 61.2762 197.642 61.4804 197.333C61.6846 197.024 61.9692 196.762 62.311 196.568C62.9123 196.235 63.4767 196.503 63.4767 197.16Z" fill="#FF2C9C"/>
<path d="M66.6129 184.471V175.724H44.2421L36.5076 171.813C34.7405 170.913 31.6411 171.002 29.5965 172.065L22.3801 175.708H4.42061e-05V184.698C-0.00253672 185.04 0.107946 185.375 0.318121 185.663C0.528296 185.951 0.829151 186.179 1.18427 186.32L30.0776 200.925C31.1735 201.359 32.3701 201.563 33.5718 201.519C34.7735 201.476 35.9468 201.186 36.9979 200.673L64.9013 186.548C66.0855 185.963 66.6592 185.193 66.6129 184.471Z" fill="#721BD5"/>
<path d="M33.3065 171.197C32.0115 171.215 30.7413 171.511 29.6058 172.057L22.3894 175.7H4.42061e-05V184.69C-0.00253672 185.032 0.107946 185.367 0.318121 185.655C0.528296 185.943 0.829151 186.171 1.18427 186.312L30.0776 200.917C31.0686 201.362 32.1762 201.569 33.288 201.517L33.3065 171.197Z" fill="#983BE9"/>
<path d="M2.54429 175.692H4.42061e-05V184.682C-0.00253672 185.023 0.107946 185.359 0.318121 185.647C0.528296 185.935 0.829151 186.163 1.18427 186.304L2.53503 186.986L2.54429 175.692Z" fill="#B45EF4"/>
<path d="M30.531 201.128C32.3277 201.701 34.3011 201.681 36.0821 201.071V190.864H30.531V201.128Z" fill="#7E23DC"/>
<path d="M30.0869 191.984L1.19361 177.379C-0.573477 176.487 -0.351434 174.945 1.69321 173.882L29.6059 159.724C31.6505 158.686 34.7498 158.572 36.5169 159.473L65.4103 174.077C67.1866 174.97 66.9646 176.511 64.9199 177.582L37.0073 191.732C35.9554 192.243 34.7823 192.532 33.581 192.575C32.3797 192.619 31.1834 192.416 30.0869 191.984V191.984Z" fill="#8A2AE3"/>
<path d="M30.6141 189.347L6.39295 177.087C4.91266 176.333 5.0977 175.018 6.80928 174.15L30.1885 162.312C31.07 161.884 32.0535 161.642 33.0605 161.605C34.0676 161.568 35.0705 161.738 35.9894 162.102L60.2013 174.361C61.6909 175.116 61.5058 176.43 59.785 177.298L36.4057 189.136C35.5254 189.563 34.5437 189.805 33.5383 189.841C32.533 189.878 31.5318 189.709 30.6141 189.347V189.347Z" fill="#6614CF"/>
<path d="M55.9643 186.775C55.9416 187.13 55.8244 187.476 55.622 187.785C55.4195 188.093 55.1375 188.356 54.7985 188.552C54.1509 188.876 53.6328 188.608 53.6328 187.959C53.6533 187.603 53.7696 187.257 53.9722 186.948C54.1748 186.639 54.458 186.377 54.7985 186.182C55.4462 185.858 55.9643 186.126 55.9643 186.775Z" fill="#FF2C9C"/>
<path d="M59.7204 184.876C59.6914 185.225 59.5712 185.563 59.369 185.864C59.1668 186.165 58.8881 186.421 58.5546 186.613C57.907 186.937 57.3889 186.678 57.3889 186.02C57.4101 185.666 57.5267 185.321 57.7294 185.013C57.932 184.706 58.2148 184.445 58.5546 184.252C59.2115 183.959 59.7204 184.219 59.7204 184.876Z" fill="#FF2C9C"/>
<path d="M63.1312 183.966C63.5859 183.275 63.5851 182.528 63.1293 182.297C62.6735 182.067 61.9354 182.44 61.4806 183.13C61.0259 183.821 61.0267 184.568 61.4825 184.799C61.9383 185.03 62.6764 184.657 63.1312 183.966Z" fill="#FF2C9C"/>
<path d="M66.6129 170.288V161.55H44.2606L36.5261 157.639C34.759 156.738 31.6597 156.828 29.6151 157.891L22.3987 161.542H9.28366e-05V170.532C-0.00365843 170.874 0.106348 171.209 0.316662 171.498C0.526976 171.786 0.828484 172.014 1.18432 172.154L30.0776 186.759C31.173 187.195 32.3699 187.4 33.572 187.356C34.774 187.312 35.9476 187.022 36.998 186.507L64.9014 172.381C66.0856 171.781 66.6592 171.01 66.6129 170.288Z" fill="#721BD5"/>
<path d="M33.3065 157.022C32.0123 157.038 30.742 157.33 29.6058 157.874L22.3894 161.525H9.28366e-05V170.515C-0.00365843 170.857 0.106348 171.193 0.316662 171.481C0.526976 171.769 0.828484 171.998 1.18432 172.138L30.0776 186.742C31.0686 187.187 32.1762 187.394 33.288 187.343L33.3065 157.022Z" fill="#983BE9"/>
<path d="M2.54433 161.517H9.28366e-05V170.507C-0.00365843 170.849 0.106348 171.185 0.316662 171.473C0.526976 171.761 0.828484 171.99 1.18432 172.13L2.53508 172.811L2.54433 161.517Z" fill="#B45EF4"/>
<path d="M30.531 186.953C32.3277 187.527 34.3011 187.507 36.0821 186.897V176.69H30.531V186.953Z" fill="#7E23DC"/>
<path d="M30.0869 177.801L1.19361 163.197C-0.573477 162.296 -0.351434 160.763 1.69321 159.692L29.6059 145.542C30.6553 145.029 31.8271 144.739 33.0273 144.696C34.2275 144.652 35.4226 144.856 36.5169 145.29L65.4103 159.895C67.1866 160.795 66.9646 162.329 64.9199 163.4L37.0073 177.55C35.9569 178.064 34.7833 178.355 33.5813 178.399C32.3792 178.442 31.1823 178.238 30.0869 177.801V177.801Z" fill="#8A2AE3"/>
<path d="M64.9106 161.704L37.0072 175.83C35.9568 176.344 34.7832 176.635 33.5812 176.679C32.3791 176.722 31.1822 176.518 30.0868 176.081L1.19353 161.461C0.847601 161.288 0.547862 161.053 0.314607 160.771C-0.296011 161.631 -0.018457 162.564 1.23979 163.205L30.1331 177.809C31.2284 178.246 32.4254 178.45 33.6274 178.407C34.8295 178.363 36.003 178.072 37.0534 177.558L64.9568 163.432C66.5481 162.621 67.0292 161.501 66.3353 160.617C65.969 161.076 65.4798 161.449 64.9106 161.704V161.704Z" fill="#B45EF4"/>
<path d="M55.9643 172.592C55.9438 172.948 55.8275 173.295 55.6249 173.603C55.4223 173.912 55.1391 174.175 54.7985 174.369C54.1509 174.694 53.6328 174.434 53.6328 173.777C53.654 173.422 53.7706 173.077 53.9733 172.77C54.1759 172.462 54.4587 172.201 54.7985 172.008C55.4462 171.675 55.9643 171.943 55.9643 172.592Z" fill="#FF2C9C"/>
<path d="M59.7204 170.694C59.697 171.049 59.5795 171.395 59.3771 171.703C59.1747 172.012 58.8931 172.274 58.5546 172.471C57.907 172.795 57.3889 172.527 57.3889 171.878C57.4101 171.523 57.5267 171.176 57.7293 170.868C57.9318 170.559 58.2146 170.296 58.5546 170.101C59.2115 169.777 59.7204 170.045 59.7204 170.694Z" fill="#FF2C9C"/>
<path d="M63.4767 168.763C63.4534 169.117 63.3358 169.461 63.1333 169.769C62.9309 170.076 62.6493 170.337 62.311 170.531C61.6633 170.864 61.136 170.596 61.136 169.947C61.1582 169.591 61.2762 169.244 61.4804 168.935C61.6846 168.626 61.9692 168.364 62.311 168.17C62.9123 167.878 63.4767 168.138 63.4767 168.763Z" fill="#FF2C9C"/>
<path d="M31.7986 169.12L18.2817 162.272C17.4491 161.858 17.5508 161.12 18.513 160.649L31.5673 154.045C32.0583 153.803 32.6073 153.666 33.1698 153.645C33.7323 153.624 34.2926 153.719 34.8054 153.923L48.3223 160.771C49.1549 161.193 49.0531 161.923 48.091 162.393L35.0367 169.006C34.5442 169.244 33.9951 169.379 33.4329 169.399C32.8708 169.418 32.3112 169.323 31.7986 169.12Z" fill="#6614CF"/>
<path d="M33.0937 163.392L31.2433 162.442C31.123 162.385 31.1416 162.28 31.2433 162.215L33.0474 161.298C33.118 161.268 33.1956 161.252 33.2741 161.252C33.3526 161.252 33.4301 161.268 33.5008 161.298L35.3511 162.248C35.4621 162.304 35.4529 162.41 35.3511 162.475L33.5008 163.392C33.4367 163.417 33.3674 163.43 33.2972 163.43C33.2271 163.43 33.1577 163.417 33.0937 163.392V163.392Z" fill="#FF2C9C"/>
<path d="M41.3832 170.905L39.5329 169.955C39.4126 169.899 39.4311 169.793 39.5329 169.728L41.337 168.811C41.4076 168.781 41.4851 168.766 41.5636 168.766C41.6422 168.766 41.7197 168.781 41.7903 168.811L43.6407 169.761C43.7517 169.818 43.7424 169.923 43.6407 169.988L41.8366 170.905C41.7664 170.936 41.6887 170.952 41.6099 170.952C41.5311 170.952 41.4534 170.936 41.3832 170.905V170.905Z" fill="#6614CF"/>
<path d="M45.4634 168.811L43.613 167.862C43.502 167.805 43.5113 167.708 43.613 167.635L45.4634 166.726C45.5312 166.693 45.6077 166.675 45.6854 166.675C45.7632 166.675 45.8397 166.693 45.9075 166.726L47.7578 167.667C47.8689 167.732 47.8503 167.83 47.7578 167.895L45.9167 168.763C45.8504 168.801 45.7751 168.825 45.6965 168.833C45.6179 168.842 45.5382 168.834 45.4634 168.811V168.811Z" fill="#6614CF"/>
<path d="M49.5528 166.726L47.7024 165.777C47.5914 165.72 47.6006 165.615 47.7024 165.55L49.5528 164.633C49.6218 164.603 49.6978 164.587 49.7748 164.587C49.8518 164.587 49.9278 164.603 49.9968 164.633L51.8472 165.582C51.9675 165.639 51.949 165.744 51.8472 165.809L49.9968 166.726C49.9274 166.755 49.8516 166.77 49.7748 166.77C49.698 166.77 49.6221 166.755 49.5528 166.726V166.726Z" fill="#B45EF4"/>
<path d="M18.2815 162.272L18.4758 162.15L31.5301 155.546C32.0211 155.304 32.5701 155.167 33.1326 155.146C33.6951 155.125 34.2554 155.22 34.7682 155.424L48.2851 162.272C49.053 161.793 49.09 161.144 48.2851 160.755L34.7682 153.907C34.2554 153.703 33.6951 153.608 33.1326 153.629C32.5701 153.65 32.0211 153.787 31.5301 154.028L18.5036 160.649C17.5784 161.12 17.4489 161.858 18.2815 162.272Z" fill="#B45EF4"/>
<path d="M21.4551 193.826L9.7608 187.903C9.36322 187.654 9.03794 187.327 8.81131 186.948C8.58467 186.569 8.46305 186.148 8.4563 185.72V185.72C8.4563 184.909 9.03916 184.487 9.7608 184.852L21.4551 190.775C21.8528 191.025 22.1781 191.354 22.4046 191.734C22.6312 192.115 22.7528 192.536 22.7596 192.966V192.966C22.7596 193.801 22.2045 194.191 21.4551 193.826Z" fill="#6614CF"/>
<path d="M22.5005 193.266L10.8063 187.343C10.4085 187.093 10.0832 186.764 9.85666 186.384C9.63009 186.003 9.50852 185.581 9.50175 185.152C9.50144 185.024 9.51695 184.896 9.54801 184.771C8.92814 184.576 8.4563 184.957 8.4563 185.72C8.46305 186.148 8.58467 186.569 8.81131 186.948C9.03794 187.327 9.36322 187.654 9.7608 187.903L21.4551 193.826C21.566 193.9 21.6979 193.948 21.837 193.962C21.976 193.977 22.1169 193.958 22.2449 193.908C22.3728 193.859 22.4831 193.779 22.5639 193.679C22.6447 193.579 22.6931 193.461 22.704 193.339L22.5005 193.266Z" fill="#B45EF4"/>
<path d="M284.955 212.957C285.996 213.394 286.859 214.1 287.427 214.981C287.994 215.862 288.239 216.875 288.128 217.882C288.111 218.709 287.955 219.529 287.666 220.316C287.009 221.517 284.89 223.164 281.467 221.98C278.044 220.795 270.476 214.556 270.189 210.466C269.699 202.84 279.598 210.953 284.955 212.957Z" fill="#173D7A"/>
<path d="M264.953 225.558C264.953 225.558 265.767 229.931 265.369 230.734C264.971 231.537 262.593 233.249 259.087 232.876C255.581 232.503 245.487 229.46 243.239 223.627C239.76 214.58 262.723 224.3 262.723 224.3L264.953 225.558Z" fill="#173D7A"/>
<path d="M255.09 155.546L254.304 223.87C254.287 224.967 254.7 226.035 255.472 226.898C256.245 227.76 257.332 228.364 258.551 228.609C258.847 228.649 259.161 228.69 259.476 228.714C260.348 228.83 261.24 228.735 262.055 228.439C262.87 228.143 263.578 227.657 264.102 227.035C264.751 226.225 265.111 225.265 265.138 224.276L266.137 195.067L271.105 168.99L277.97 215.148C278.002 215.743 278.184 216.324 278.504 216.849C278.824 217.374 279.274 217.829 279.82 218.183C280.751 218.713 281.848 218.974 282.957 218.929C283.755 218.9 284.538 218.725 285.255 218.414C285.972 218.104 286.608 217.666 287.12 217.128C287.778 216.45 288.13 215.584 288.11 214.694L285.39 186.921L284.382 151.497L255.09 155.546Z" fill="#FDD762"/>
<path d="M287.629 133.104C287.487 133.111 287.345 133.111 287.203 133.104L274.778 131.383C274.414 131.334 274.064 131.222 273.749 131.054C273.434 130.886 273.159 130.665 272.942 130.404C272.724 130.143 272.567 129.847 272.479 129.532C272.392 129.218 272.376 128.892 272.433 128.572C272.489 128.252 272.617 127.946 272.809 127.669C273 127.393 273.252 127.152 273.55 126.961C273.848 126.77 274.185 126.633 274.544 126.556C274.902 126.48 275.274 126.466 275.639 126.515L284.224 127.676L281.254 112.974C281.132 112.328 281.306 111.666 281.74 111.134C282.174 110.601 282.831 110.242 283.567 110.134C284.303 110.026 285.058 110.18 285.665 110.56C286.273 110.94 286.683 111.517 286.805 112.162L290.404 130.256C290.483 130.64 290.455 131.035 290.323 131.408C290.191 131.781 289.959 132.12 289.646 132.398C289.381 132.628 289.066 132.809 288.719 132.931C288.373 133.052 288.002 133.111 287.629 133.104V133.104Z" fill="#FFC2B0"/>
<path d="M276.268 98.1744C276.268 98.1744 280.431 97.9635 285.788 107.651C291.144 117.339 283.808 120.389 283.808 120.389L276.268 98.1744Z" fill="#983BE9"/>
<path d="M264.851 100.722C265.045 100.657 276.332 94.28 280.505 100.949C287.305 111.83 286.907 146.84 284.761 151.375C282.772 155.57 277.803 158.678 274.325 160.406C271.253 161.993 267.768 162.862 264.203 162.929C260.669 162.929 253.906 160.203 254.156 156.162C255.284 137.566 253.406 121.882 251.676 106.669C251.649 106.669 253.841 104.665 264.851 100.722Z" fill="#983BE9"/>
<path d="M247.023 138.742C247.344 138.727 247.659 138.655 247.948 138.531C248.371 138.34 248.734 138.061 249.006 137.719C249.279 137.377 249.452 136.982 249.512 136.568L254.878 122.848C255.118 121.428 252.296 115.903 250.853 115.667C249.41 115.432 245.765 117.939 245.533 119.359L244.247 131.578L230.999 125.899C229.629 125.266 228.491 123.976 227.677 125.168C227.284 125.746 227.141 126.428 227.273 127.091C227.406 127.754 227.805 128.353 228.399 128.779L245.468 138.304C245.914 138.602 246.463 138.757 247.023 138.742V138.742Z" fill="#FFC2B0"/>
<path d="M229.972 125.404L229.139 123.619C228.836 122.978 228.379 122.402 227.798 121.931L224.3 119.108C224.232 119.05 224.149 119.006 224.06 118.979C223.97 118.951 223.874 118.941 223.78 118.949C223.685 118.957 223.593 118.982 223.511 119.023C223.428 119.065 223.357 119.121 223.301 119.189V119.189C223.201 119.295 223.146 119.428 223.146 119.566C223.146 119.704 223.201 119.837 223.301 119.943L224.754 121.339C224.866 121.446 224.944 121.578 224.978 121.721C225.012 121.864 225.002 122.012 224.948 122.15L224.393 123.521C224.302 123.746 224.279 123.987 224.326 124.222C224.373 124.456 224.489 124.676 224.661 124.86L228.168 128.584L229.972 125.404Z" fill="#FFC2B0"/>
<path d="M251.649 106.669C251.649 106.669 244.118 111.765 242.961 127.27C242.961 127.27 242.795 128.99 247.152 130.02C248.459 130.293 249.824 130.258 251.11 129.921C252.396 129.583 253.559 128.954 254.48 128.097C255.909 124.574 256.397 120.81 255.906 117.095C255.415 113.38 253.959 109.813 251.649 106.669Z" fill="#983BE9"/>
<path d="M265.887 94.7261L267.118 100.949C267.095 101.6 266.819 102.224 266.336 102.718C265.853 103.213 265.192 103.547 264.462 103.667C261.761 104.251 260.919 102.726 260.919 102.726L259.698 95.7403L265.887 94.7261Z" fill="#FFC2B0"/>
<path d="M265.563 99.863C270.641 97.637 272.446 91.7775 269.595 86.7753C266.743 81.7732 260.316 79.5227 255.238 81.7487C250.16 83.9748 248.355 89.8343 251.207 94.8364C254.058 99.8386 260.486 102.089 265.563 99.863Z" fill="#FFC2B0"/>
<path d="M258.56 94.0364C258.351 94.0666 258.138 94.0529 257.937 93.9964C257.736 93.94 257.553 93.8425 257.403 93.7119C256.876 93.2413 256.654 90.7342 255.275 90.5233C253.12 90.1906 248.734 93.1521 246.949 86.7991C246.024 83.4888 247.707 82.3204 247.337 80.4949C247.337 80.4949 247.337 81.436 257.061 79.3833C266.785 77.3306 271.457 84.4868 272.4 88.0892C273.344 91.6916 272.521 97.9878 265.97 99.8214C264.888 100.122 259.568 97.5334 259.605 97.0872C259.642 96.6409 261.409 96.3975 260.9 95.1724C260.837 94.9603 260.725 94.7618 260.571 94.5888C260.418 94.4157 260.226 94.2718 260.007 94.1656C259.788 94.0595 259.547 93.9933 259.298 93.9711C259.05 93.9489 258.798 93.9711 258.56 94.0364Z" fill="#173D7A"/>
<path d="M271.133 169.031L277.998 215.189C278.029 215.783 278.212 216.364 278.532 216.889C278.852 217.414 279.302 217.87 279.848 218.223C280.038 218.332 280.236 218.429 280.44 218.515C279.006 217.574 274.843 178.832 274.075 174.523C273.307 170.215 271.133 169.031 271.133 169.031Z" fill="#D8892B"/>
<path d="M253.887 128.608V128.763C254.59 137.883 254.679 147.032 254.156 156.162C254.162 156.96 254.38 157.746 254.793 158.457C255.205 159.169 255.801 159.786 256.533 160.26C257.558 148.528 257.558 136.745 256.533 125.014C255.608 127.789 253.887 128.608 253.887 128.608Z" fill="#6614CF"/>
<path opacity="0.5" d="M126.75 244C142.4 244 155.088 237.574 155.088 229.647C155.088 221.72 142.4 215.294 126.75 215.294C111.099 215.294 98.4114 221.72 98.4114 229.647C98.4114 237.574 111.099 244 126.75 244Z" fill="#C4D9E8"/>
<path d="M138.24 221.964C137.519 221.603 136.771 221.286 136.001 221.014V221.014L131.625 219.319L131.958 219.984C128.58 219.404 125.109 219.371 121.717 219.887L121.92 219.148L116.776 221.144C116.118 221.382 115.475 221.653 114.852 221.955C108.376 225.201 108.376 230.515 114.852 233.785C121.328 237.055 131.755 237.031 138.213 233.785C144.67 230.54 144.698 225.233 138.24 221.964Z" fill="#983BE9"/>
<path d="M132.042 225.047C130.347 225.806 128.472 226.202 126.569 226.202C124.666 226.202 122.791 225.806 121.097 225.047C118.071 223.521 118.071 221.038 121.097 219.505C122.793 218.753 124.668 218.361 126.569 218.361C128.47 218.361 130.345 218.753 132.042 219.505C135.076 221.038 135.076 223.521 132.042 225.047Z" fill="#8A2AE3"/>
<path d="M126.565 223.335C125.868 223.335 125.199 223.092 124.707 222.66C124.214 222.228 123.937 221.642 123.937 221.03V191.822H129.201V221.03C129.199 221.642 128.92 222.228 128.426 222.66C127.931 223.092 127.262 223.335 126.565 223.335Z" fill="#8A2AE3"/>
<path d="M128.415 192.917C127.828 193.181 127.178 193.319 126.518 193.319C125.859 193.319 125.209 193.181 124.622 192.917C124.392 192.849 124.192 192.72 124.051 192.547C123.909 192.375 123.833 192.168 123.833 191.955C123.833 191.743 123.909 191.536 124.051 191.363C124.192 191.191 124.392 191.061 124.622 190.994C125.21 190.734 125.859 190.598 126.518 190.598C127.177 190.598 127.827 190.734 128.415 190.994C128.645 191.061 128.844 191.191 128.986 191.363C129.127 191.536 129.203 191.743 129.203 191.955C129.203 192.168 129.127 192.375 128.986 192.547C128.844 192.72 128.645 192.849 128.415 192.917V192.917Z" fill="#983BE9"/>
<path d="M126.564 192.86C126.285 192.86 126.008 192.812 125.75 192.718C125.492 192.624 125.257 192.487 125.06 192.314C124.862 192.14 124.705 191.934 124.599 191.708C124.492 191.482 124.437 191.239 124.437 190.994V163.578H128.702V190.994C128.702 191.24 128.646 191.483 128.539 191.71C128.431 191.937 128.274 192.143 128.075 192.316C127.876 192.49 127.641 192.627 127.382 192.72C127.122 192.814 126.845 192.861 126.564 192.86V192.86Z" fill="#8A2AE3"/>
<path d="M157.281 177.939V176.876L159.011 176.657L160.944 175.384C161.136 175.283 161.354 175.227 161.577 175.22C161.8 175.213 162.021 175.255 162.221 175.343L163.646 176.073L165.061 175.887V176.974C165.046 177.048 165.007 177.118 164.95 177.175C164.893 177.232 164.82 177.275 164.737 177.298L160.223 179.059C160.035 179.127 159.833 179.159 159.63 179.152C159.427 179.145 159.229 179.099 159.048 179.018L157.54 178.264C157.469 178.234 157.409 178.188 157.365 178.131C157.321 178.074 157.295 178.008 157.29 177.939H157.281Z" fill="#B45EF4"/>
<path d="M157.419 176.584L160.898 174.296C161.093 174.2 161.313 174.15 161.536 174.15C161.76 174.15 161.98 174.2 162.175 174.296L164.765 175.611C165.135 175.797 165.098 176.097 164.691 176.26L160.176 178.02C159.989 178.088 159.786 178.12 159.584 178.113C159.381 178.106 159.182 178.061 159.001 177.98L157.493 177.217C157.179 177.014 157.142 176.763 157.419 176.584Z" fill="#8A2AE3"/>
<path d="M151.554 181.745C152.038 181.752 152.517 181.649 152.941 181.444L158.345 178.702C158.417 178.667 158.481 178.62 158.532 178.564C158.583 178.507 158.62 178.442 158.642 178.372C158.663 178.302 158.669 178.229 158.657 178.158C158.646 178.086 158.618 178.017 158.576 177.955C158.535 177.893 158.48 177.839 158.415 177.796C158.35 177.752 158.276 177.721 158.196 177.703C158.117 177.685 158.035 177.68 157.954 177.69C157.873 177.7 157.795 177.724 157.725 177.761L152.322 180.495C152.079 180.593 151.816 180.643 151.549 180.643C151.282 180.643 151.019 180.593 150.777 180.495L141.793 175.927C141.649 175.856 141.479 175.838 141.32 175.876C141.161 175.914 141.025 176.005 140.942 176.13C140.899 176.192 140.872 176.261 140.86 176.332C140.849 176.404 140.854 176.477 140.876 176.546C140.897 176.616 140.935 176.681 140.986 176.738C141.037 176.795 141.101 176.842 141.173 176.876L150.157 181.444C150.584 181.65 151.066 181.754 151.554 181.745Z" fill="#B45EF4"/>
<path d="M99.5679 171.732L108.246 167.302L103.38 165.379L99.2256 167.968L99.5679 171.732Z" fill="url(#paint0_radial)"/>
<path d="M155.31 165.16C154.803 164.922 154.318 164.651 153.857 164.349L135.354 152.454C132.014 150.312 128.572 149.753 125.917 150.937L125.723 151.043L100.169 164.024L102.464 164.69L111.41 168.252L123.585 175.822L133.189 180.292L133.624 180.373C135.872 178.751 138.379 177.306 139.748 174.889C142.126 171.237 148.75 170.199 152.645 167.237C153.043 167.456 153.432 167.659 153.82 167.838C154.607 167.181 154.829 166.191 155.31 165.16Z" fill="#8A2AE3"/>
<path d="M163.433 159.838C163.05 159.839 162.678 159.953 162.378 160.162V160.162L137.398 172.852L138.323 176.138L139.249 175.74C137.815 177.704 135.613 178.986 133.624 180.454L136.455 180.982L160.944 168.487L161.277 168.357C161.605 168.208 161.914 168.032 162.202 167.83H162.249C164.099 166.564 165.163 164.373 165.163 161.631V161.371C165.168 161.17 165.127 160.97 165.042 160.783C164.957 160.596 164.83 160.426 164.668 160.283C164.507 160.14 164.314 160.027 164.102 159.95C163.89 159.874 163.662 159.836 163.433 159.838V159.838Z" fill="#721BD5"/>
<path d="M129.192 150.353C130.933 150.452 132.618 150.928 134.096 151.74C132.618 150.928 130.933 150.452 129.192 150.353V150.353Z" fill="#EAEAEA"/>
<path d="M140.627 173.826V173.574C140.627 173.174 140.446 172.79 140.123 172.507C139.801 172.224 139.363 172.065 138.906 172.065C138.45 172.065 138.012 172.224 137.69 172.507C137.367 172.79 137.186 173.174 137.186 173.574V173.826C137.186 175.846 136.455 177.323 135.178 177.882C133.744 178.515 131.551 178.053 129.331 176.617L110.827 164.73C107.987 162.905 105.063 162.239 102.621 162.816L117.905 155.043L100.197 164.049L102.491 164.714L111.438 168.276L123.613 175.846L133.217 180.317L133.651 180.398C135.9 178.775 138.407 177.331 139.776 174.913C140.019 174.554 140.301 174.217 140.618 173.907C140.618 173.907 140.627 173.858 140.627 173.826Z" fill="#B45EF4"/>
<path d="M133.161 181.672C130.801 181.58 128.534 180.836 126.685 179.546L108.181 167.659C105.952 166.231 103.768 165.753 102.325 166.394C101.048 166.962 100.326 168.438 100.326 170.45C100.326 170.851 100.145 171.235 99.8224 171.518C99.4997 171.801 99.062 171.96 98.6056 171.96C98.1492 171.96 97.7115 171.801 97.3888 171.518C97.0661 171.235 96.8848 170.851 96.8848 170.45C96.8848 167.254 98.3003 164.771 100.771 163.7C103.426 162.515 106.867 163.075 110.207 165.217L128.711 177.104C130.931 178.54 133.124 179.01 134.558 178.369C135.835 177.801 136.566 176.325 136.566 174.312V174.061C136.548 173.854 136.58 173.646 136.658 173.45C136.737 173.255 136.86 173.075 137.021 172.923C137.182 172.771 137.377 172.65 137.594 172.567C137.811 172.484 138.045 172.441 138.282 172.441C138.518 172.441 138.753 172.484 138.969 172.567C139.186 172.65 139.381 172.771 139.542 172.923C139.704 173.075 139.827 173.255 139.906 173.45C139.984 173.646 140.015 173.854 139.998 174.061V174.312C139.998 177.509 138.583 179.992 136.112 181.063C135.196 181.465 134.185 181.673 133.161 181.672Z" fill="#983BE9"/>
<path d="M118.626 208.252C118.626 208.252 115.139 206.71 113.001 209.006C110.864 211.302 107.802 216.714 107.709 220.365C107.617 224.016 111.012 223.773 113.029 222.905C115.046 222.037 120.949 214.54 121.356 213.063C121.763 211.586 120.93 209.606 120.366 209.217C119.801 208.828 118.626 208.252 118.626 208.252Z" fill="#173D7A"/>
<path d="M119.348 207.513L119.505 210.686C119.52 211.012 119.433 211.335 119.254 211.621C119.075 211.907 118.81 212.145 118.488 212.308C117.667 212.696 116.72 212.825 115.805 212.673C113.177 212.3 112.946 211.643 112.752 208.479C112.557 205.314 119.348 207.513 119.348 207.513Z" fill="#E8A200"/>
<path d="M105.868 202.166C105.868 202.166 102.39 200.625 100.243 202.921C98.0968 205.217 95.053 210.629 94.9512 214.28C94.8494 217.931 98.2541 217.696 100.28 216.828C102.306 215.959 108.2 208.454 108.551 206.986C108.903 205.517 108.135 203.529 107.561 203.14C106.988 202.751 105.868 202.166 105.868 202.166Z" fill="#173D7A"/>
<path d="M106.627 201.428L106.793 204.592C106.808 204.918 106.721 205.242 106.542 205.528C106.363 205.814 106.098 206.051 105.776 206.215C104.955 206.61 104.002 206.739 103.083 206.58C100.456 206.215 100.225 205.558 100.04 202.393C99.8546 199.229 106.627 201.428 106.627 201.428Z" fill="#E8A200"/>
<path d="M137.722 143.31C136.686 128.592 119.552 145.477 119.552 145.477L107.82 155.562L97.2548 165.736C96.2405 166.714 95.4802 167.874 95.0266 169.134C94.5729 170.395 94.4367 171.727 94.6273 173.039L98.9016 201.574C99.0074 202.253 99.3918 202.875 99.9828 203.323C100.574 203.771 101.331 204.015 102.112 204.008C102.642 203.998 103.17 203.958 103.694 203.887C104.712 203.786 105.648 203.346 106.306 202.657C106.964 201.968 107.294 201.084 107.228 200.187L106.442 173.493L128.646 161.769C128.646 161.769 138.777 158.02 137.722 143.31Z" fill="#FDD762"/>
<path d="M150.471 148.917C149.444 134.199 132.301 151.083 132.301 151.083L120.569 161.168L110.013 171.343C108.999 172.321 108.239 173.48 107.785 174.741C107.331 176.002 107.195 177.334 107.386 178.645L111.66 207.181C111.764 207.859 112.146 208.48 112.736 208.929C113.325 209.377 114.081 209.621 114.861 209.615C115.394 209.605 115.926 209.565 116.452 209.493C117.471 209.395 118.406 208.955 119.063 208.265C119.72 207.575 120.048 206.69 119.977 205.793L119.2 179.099L141.404 167.375C141.404 167.375 151.507 163.627 150.471 148.917Z" fill="#FDD762"/>
<path d="M140.331 101.68C153.284 106.402 153.071 113.144 153.071 113.144C153.071 113.144 150.526 137.842 151.396 154.329C151.757 161.225 109.624 161.753 115.906 143.359C123.308 121.671 120.532 104.114 124.002 101.461C127.471 98.8074 136.973 100.454 140.331 101.68Z" fill="#983BE9"/>
<path d="M144.513 107.639C145.192 105.327 142.838 102.796 139.256 101.987C135.673 101.178 132.218 102.397 131.539 104.71C130.86 107.023 133.214 109.554 136.796 110.363C140.379 111.172 143.834 109.952 144.513 107.639Z" fill="#FFC2B0"/>
<path d="M139.017 111.156C138.215 111.155 137.416 111.065 136.64 110.889C132.726 110.004 130.163 107.173 130.931 104.568C131.699 101.964 135.502 100.568 139.415 101.452C143.329 102.337 145.892 105.168 145.114 107.773C144.893 108.441 144.494 109.054 143.948 109.559C143.402 110.064 142.727 110.448 141.978 110.678C141.034 111 140.03 111.162 139.017 111.156V111.156ZM137.028 102.231C134.623 102.231 132.606 103.221 132.134 104.803C131.542 106.816 133.707 109.055 136.954 109.793C138.457 110.159 140.054 110.1 141.515 109.623C142.082 109.456 142.595 109.173 143.011 108.798C143.428 108.423 143.737 107.966 143.912 107.465V107.465C144.504 105.444 142.348 103.205 139.101 102.467C138.421 102.333 137.725 102.273 137.028 102.288V102.231Z" fill="white"/>
<path d="M135.122 101.168C135.196 102.521 135.159 103.877 135.011 105.225C134.937 106.361 139.471 107.424 140.646 106.394C141.821 105.363 141.349 104.3 141.626 100.438C141.904 96.5762 135.122 101.168 135.122 101.168Z" fill="#FFC2B0"/>
<path d="M141.627 100.446C141.627 100.446 140.516 104.024 135.011 105.396L135.095 102.15L141.627 100.446Z" fill="#EA9C92"/>
<path d="M140.625 100.528C145.265 97.912 146.608 92.493 143.625 88.4241C140.643 84.3551 134.464 83.1771 129.824 85.7928C125.184 88.4086 123.841 93.8276 126.823 97.8965C129.806 101.965 135.985 103.143 140.625 100.528Z" fill="#FFC2B0"/>
<path d="M137.731 93.8581C137.731 93.8581 132.18 95.9271 128.406 95.9515C124.631 95.9758 125.436 93.1766 125.436 93.1766L136.76 91.7405L137.731 93.8581Z" fill="#EA9C92"/>
<path d="M127.268 94.4016C127.268 94.4016 132.069 92.6166 136.279 93.3631C137.275 93.5342 138.174 94.0012 138.823 94.6856C139.01 94.9186 139.28 95.09 139.591 95.1724C140.341 95.3266 141.562 92.6085 143.014 92.5436C144.467 92.4787 145.429 93.355 144.236 95.0588C143.042 96.7627 143.449 98.5964 143.995 98.8641C144.541 99.1319 150.351 95.2292 145.235 86.3367C140.118 77.4442 127.101 82.2312 125.084 84.0325C125.084 84.0325 122.947 85.6552 121.217 84.211C121.199 84.211 119.274 96.9736 127.268 94.4016Z" fill="#FF2C9C"/>
<path d="M145.78 131.18V137.858C145.779 138.236 145.689 138.61 145.515 138.956C145.342 139.302 145.089 139.614 144.772 139.87L129.136 152.365L130.913 154.75L151.563 142.621C152.038 142.317 152.436 141.929 152.729 141.481C153.022 141.034 153.205 140.538 153.265 140.024L154.662 127.383L145.78 131.18Z" fill="#FFC2B0"/>
<path d="M151.97 109.801C151.97 109.801 156.716 116.057 158.446 132.519C158.446 132.519 150.342 134.824 145.743 133.517C141.145 132.211 151.97 109.801 151.97 109.801Z" fill="#983BE9"/>
<path d="M144.911 117.712C144.911 117.712 143.061 126.426 142.949 130.523C142.933 131.071 143.114 131.61 143.466 132.062C143.818 132.515 144.323 132.86 144.911 133.047V133.047V117.712Z" fill="#6614CF"/>
<path d="M140.859 161.047L137.408 160.641L115.102 149.347C114.661 149.175 114.181 149.095 113.7 149.114C113.218 149.132 112.748 149.248 112.326 149.452L96.524 157.452L94.4331 157.209V159.027C94.4335 159.162 94.4781 159.294 94.5618 159.408C94.6454 159.521 94.7645 159.612 94.9049 159.667L120.181 172.463C120.62 172.636 121.1 172.718 121.582 172.701C122.063 172.684 122.534 172.569 122.956 172.365L140.165 163.651C140.351 163.582 140.512 163.47 140.633 163.327C140.753 163.184 140.828 163.016 140.849 162.84V162.84L140.859 161.047Z" fill="#173D7A"/>
<path d="M124.104 153.907L122.512 153.095H105.1L96.5054 157.444L94.4146 157.201V159.026C94.4149 159.162 94.4596 159.294 94.5432 159.408C94.6269 159.521 94.746 159.611 94.8864 159.667L120.162 172.463C120.607 172.662 121.109 172.744 121.606 172.698L124.104 153.907Z" fill="#396CAA"/>
<path d="M95.349 157.314L94.4238 157.209V159.026C94.4242 159.162 94.4688 159.294 94.5525 159.408C94.6361 159.521 94.7553 159.611 94.8957 159.667L95.349 159.895V157.314Z" fill="#5793CE"/>
<path d="M120.431 172.576C121.21 172.8 122.058 172.753 122.799 172.446V169.347H120.431V172.576Z" fill="#274F89"/>
<path d="M120.172 170.653L94.8958 157.85C94.1834 157.493 94.2759 156.86 95.0993 156.438L112.308 147.732C112.729 147.526 113.199 147.409 113.681 147.39C114.163 147.372 114.643 147.453 115.083 147.627L140.359 160.422C141.071 160.787 140.979 161.42 140.155 161.834L122.947 170.548C122.525 170.752 122.055 170.868 121.574 170.886C121.092 170.905 120.612 170.825 120.172 170.653Z" fill="white"/>
<path d="M119.746 168.714L98.7352 158.069C98.1339 157.769 98.2079 157.258 98.9018 156.892L108.154 152.349C108.506 152.176 108.899 152.077 109.303 152.062C109.706 152.046 110.108 152.114 110.476 152.26L131.496 162.905C132.088 163.205 132.014 163.716 131.329 164.081L122.077 168.625C121.724 168.799 121.329 168.898 120.924 168.914C120.519 168.929 120.115 168.861 119.746 168.714V168.714Z" fill="#D4ECFF"/>
<path d="M113.288 147.31L113.029 148.836C112.807 150.141 112.845 151.469 113.14 152.763L113.455 154.11C113.542 154.48 113.753 154.819 114.061 155.084C114.369 155.348 114.761 155.526 115.185 155.594V155.594C115.345 155.621 115.51 155.618 115.67 155.586C115.829 155.554 115.979 155.493 116.11 155.408C116.241 155.323 116.351 155.214 116.432 155.09C116.513 154.966 116.564 154.828 116.582 154.686L116.998 151.44C116.998 151.44 117.923 152.536 118.414 152.536C118.904 152.536 117.896 149.29 116.859 147.408C115.823 145.525 113.288 147.31 113.288 147.31Z" fill="#FFC2B0"/>
<path d="M121.855 123.002L119.144 127.708C118.505 128.821 118.128 130.035 118.034 131.278L116.859 147.383L113.288 147.31L111.669 129.225C111.621 128.667 111.652 128.106 111.762 127.554L113.612 118.385L121.855 123.002Z" fill="#FFC2B0"/>
<path d="M119.348 171.878L117.23 169.444L94.9143 158.134C94.5198 157.887 94.1971 157.563 93.9721 157.186C93.7471 156.81 93.6262 156.393 93.619 155.968V139.968L92.3423 138.499L93.545 137.882C93.6852 137.805 93.8493 137.767 94.0149 137.774C94.1805 137.782 94.3395 137.834 94.4702 137.923L119.728 150.751C120.12 150.998 120.441 151.323 120.665 151.7C120.888 152.076 121.008 152.493 121.014 152.917V170.345C121.037 170.523 121.006 170.704 120.923 170.868C120.84 171.032 120.708 171.174 120.542 171.278V171.278L119.348 171.878Z" fill="#173D7A"/>
<path d="M103.907 162.702L102.325 161.891L93.6281 148.649V139.968L92.3513 138.499L93.5541 137.882C93.6943 137.805 93.8584 137.767 94.024 137.774C94.1896 137.782 94.3486 137.834 94.4792 137.923L119.737 150.751C120.142 150.994 120.462 151.331 120.662 151.724L103.907 162.702Z" fill="#396CAA"/>
<path d="M92.925 139.148L92.3606 138.499L93.5633 137.882C93.7035 137.805 93.8676 137.767 94.0332 137.774C94.1988 137.782 94.3578 137.834 94.4885 137.923L94.9326 138.15L92.925 139.148Z" fill="#5793CE"/>
<path d="M119.922 150.913C120.533 151.393 120.911 152.061 120.977 152.779L118.516 154.028L117.331 152.227L119.922 150.913Z" fill="#274F89"/>
<path d="M118.497 151.367L93.2396 138.539C92.5179 138.182 91.9443 138.539 91.9443 139.4V156.827C91.9515 157.252 92.0724 157.67 92.2974 158.046C92.5224 158.422 92.8451 158.747 93.2396 158.994L118.497 171.821C119.209 172.187 119.792 171.821 119.792 170.961V153.533C119.784 153.109 119.663 152.691 119.438 152.315C119.213 151.939 118.891 151.614 118.497 151.367V151.367Z" fill="white"/>
<path d="M130.913 154.751L130.506 155.481C130.044 156.329 129.311 157.042 128.396 157.534L125.889 158.889C125.508 159.1 125.068 159.217 124.617 159.227C124.165 159.237 123.72 159.14 123.326 158.945L123.243 158.897C123.06 158.787 122.907 158.643 122.795 158.475C122.682 158.307 122.613 158.12 122.593 157.926C122.573 157.733 122.601 157.537 122.677 157.354C122.753 157.172 122.873 157.006 123.03 156.868L125.649 154.499C125.649 154.499 124.178 155.489 123.798 155.091C123.419 154.694 125.232 153.371 126.574 153.331C127.531 153.226 128.437 152.892 129.192 152.365L130.913 154.751Z" fill="#FFC2B0"/>
<path d="M124.261 101.42C124.261 101.42 114.658 110.588 110.781 119.002C113.415 122.559 117.454 125.136 122.124 126.239C130.154 128.276 124.261 101.42 124.261 101.42Z" fill="#983BE9"/>
<path d="M120.273 125.696L121.828 112.503L118.127 124.868C118.824 125.18 119.54 125.456 120.273 125.696Z" fill="#6614CF"/>
<path d="M131.468 99.5781L128.877 98.9534C129.604 99.9298 130.667 100.677 131.912 101.087C133.716 101.525 133.994 100.187 133.994 100.187L131.468 99.5781Z" fill="white"/>
</g>
<defs>
<radialGradient id="paint0_radial" cx="0" cy="0" r="1" gradientUnits="userSpaceOnUse" gradientTransform="translate(42.1513 166.061) scale(53.5956 47.0022)">
<stop stop-color="#01C8EF"/>
<stop offset="0.09" stop-color="#03BEE9"/>
<stop offset="0.24" stop-color="#08A5D7"/>
<stop offset="0.43" stop-color="#107BBB"/>
<stop offset="0.45" stop-color="#1177B8"/>
<stop offset="1" stop-color="#112564"/>
</radialGradient>
<clipPath id="clip0">
<rect width="298" height="244" fill="white"/>
</clipPath>
</defs>
</svg>
