<svg width="335" height="249" viewBox="0 0 335 249" fill="none" xmlns="http://www.w3.org/2000/svg">
<path d="M335 218.822H0V218.989H335V218.822Z" fill="#EBEBEB"/>
<path d="M301.433 229.574H279.243V229.741H301.433V229.574Z" fill="#EBEBEB"/>
<path d="M221.917 231.391H216.095V231.558H221.917V231.391Z" fill="#EBEBEB"/>
<path d="M278.573 223.372H265.715V223.539H278.573V223.372Z" fill="#EBEBEB"/>
<path d="M64.0855 224.495H35.1482V224.662H64.0855V224.495Z" fill="#EBEBEB"/>
<path d="M74.2963 224.495H70.0552V224.662H74.2963V224.495Z" fill="#EBEBEB"/>
<path d="M150.851 227.315H88.085V227.482H150.851V227.315Z" fill="#EBEBEB"/>
<path d="M158.79 189.017H29.4196C28.4061 189.015 27.4347 188.612 26.7187 187.897C26.0027 187.182 25.6006 186.212 25.6006 185.201V3.81576C25.6006 2.80491 26.0027 1.83537 26.7187 1.11997C27.4347 0.404568 28.4061 0.00177031 29.4196 0L158.79 0C159.805 0 160.778 0.402016 161.495 1.11761C162.213 1.8332 162.616 2.80376 162.616 3.81576V185.201C162.616 185.702 162.517 186.199 162.324 186.662C162.132 187.124 161.85 187.545 161.495 187.899C161.14 188.254 160.718 188.535 160.254 188.727C159.79 188.918 159.292 189.017 158.79 189.017V189.017ZM29.4196 0.167065C28.4505 0.168835 27.5218 0.554031 26.8372 1.2381C26.1526 1.92217 25.7681 2.84922 25.7681 3.81576V185.201C25.7681 186.168 26.1526 187.095 26.8372 187.779C27.5218 188.463 28.4505 188.848 29.4196 188.85H158.79C159.76 188.848 160.689 188.463 161.375 187.779C162.06 187.095 162.446 186.168 162.448 185.201V3.81576C162.446 2.84861 162.06 1.92157 161.375 1.23769C160.689 0.553813 159.76 0.168831 158.79 0.167065H29.4196Z" fill="#EBEBEB"/>
<path d="M303.718 189.017H174.341C173.326 189.015 172.354 188.613 171.637 187.897C170.92 187.182 170.517 186.213 170.515 185.201V3.81576C170.517 2.8043 170.92 1.83477 171.637 1.11956C172.354 0.40435 173.326 0.00176675 174.341 0L303.718 0C304.73 0.00353657 305.7 0.407114 306.414 1.12232C307.129 1.83753 307.53 2.80607 307.53 3.81576V185.201C307.53 186.211 307.129 187.18 306.414 187.895C305.7 188.61 304.73 189.014 303.718 189.017V189.017ZM174.341 0.167065C173.371 0.168831 172.441 0.553813 171.756 1.23769C171.07 1.92157 170.684 2.84861 170.682 3.81576V185.201C170.684 186.168 171.07 187.095 171.756 187.779C172.441 188.463 173.371 188.848 174.341 188.85H303.718C304.687 188.848 305.617 188.463 306.302 187.779C306.988 187.095 307.374 186.168 307.376 185.201V3.81576C307.374 2.84861 306.988 1.92157 306.302 1.23769C305.617 0.553813 304.687 0.168831 303.718 0.167065H174.341Z" fill="#EBEBEB"/>
<path d="M204.685 22.7542H133.109V116.992H204.685V22.7542Z" fill="#F5F5F5"/>
<path d="M157.45 32.7781V74.2101L173.999 73.2813L175.902 32.7781H157.45Z" fill="#EBEBEB"/>
<path d="M170.85 40.7971H196.31L196.089 77.0635L182.903 77.2707L170.85 40.7971Z" fill="#E0E0E0"/>
<path d="M146.06 35.4512H152.76L150.415 67.8083L142.04 69.8732L146.06 35.4512Z" fill="#E6E6E6"/>
<path d="M111.776 7.65161H40.4211V94.2513H111.776V7.65161Z" fill="#E0E0E0"/>
<path d="M90.0949 19.7471L52.595 56.508L93.1635 63.1839L90.0949 19.7471Z" fill="#EBEBEB"/>
<path d="M74.2964 51.1217L75.087 79.3556L102.51 69.8129V48.1479L74.2964 51.1217Z" fill="#F0F0F0"/>
<path d="M69.0769 83.1564C73.5276 78.7173 73.5276 71.52 69.0769 67.0809C64.6262 62.6418 57.4103 62.6418 52.9596 67.0809C48.5089 71.52 48.5089 78.7173 52.9596 83.1564C57.4103 87.5955 64.6262 87.5955 69.0769 83.1564Z" fill="#E6E6E6"/>
<path d="M91.6225 38.7924C94.6752 38.7924 97.15 36.3241 97.15 33.2793C97.15 30.2344 94.6752 27.7661 91.6225 27.7661C88.5697 27.7661 86.095 30.2344 86.095 33.2793C86.095 36.3241 88.5697 38.7924 91.6225 38.7924Z" fill="#F5F5F5"/>
<path d="M58.3301 18.0764L74.2962 27.7662L60.8761 38.7924L58.3301 18.0764Z" fill="#F5F5F5"/>
<path d="M217.978 98.2607L289.333 98.2607V11.6611L217.978 11.6611V98.2607Z" fill="#E6E6E6"/>
<path d="M234.299 76.8096L271.799 40.0554L231.23 33.3728L234.299 76.8096Z" fill="#E0E0E0"/>
<path d="M270.894 68.0956L272.75 39.9084L244.517 46.8249L242.466 68.3963L270.894 68.0956Z" fill="#F0F0F0"/>
<path d="M233.957 39.8016C240.251 39.8016 245.354 34.7123 245.354 28.4345C245.354 22.1566 240.251 17.0674 233.957 17.0674C227.663 17.0674 222.561 22.1566 222.561 28.4345C222.561 34.7123 227.663 39.8016 233.957 39.8016Z" fill="#FAFAFA"/>
<path d="M272.73 83.6593C275.783 83.6593 278.258 81.191 278.258 78.1462C278.258 75.1014 275.783 72.6331 272.73 72.6331C269.677 72.6331 267.203 75.1014 267.203 78.1462C267.203 81.191 269.677 83.6593 272.73 83.6593Z" fill="#E0E0E0"/>
<path d="M271.424 87.8359L255.458 78.1462L268.878 67.1199L271.424 87.8359Z" fill="#F5F5F5"/>
<path d="M252.563 22.6741H249.427V91.8255H252.563V22.6741Z" fill="#E0E0E0"/>
<path d="M282.633 22.6741H278.573V88.7649H282.633V22.6741Z" fill="#EBEBEB"/>
<path d="M245.876 68.3962H225.133V89.0855H245.876V68.3962Z" fill="#EBEBEB"/>
<path d="M167.5 249C239.245 249 297.406 245.613 297.406 241.435C297.406 237.257 239.245 233.871 167.5 233.871C95.7548 233.871 37.5938 237.257 37.5938 241.435C37.5938 245.613 95.7548 249 167.5 249Z" fill="#F5F5F5"/>
<path d="M172.873 239.27H168.525L155.661 178.893L147.132 138.884L146.67 182.294L146.06 239.27H141.37V139.987L131.293 188.108L120.58 239.27H116.231L126.161 190.053L141.705 112.969H147.4L160.338 177.122L172.873 239.27Z" fill="#2E353A"/>
<path opacity="0.2" d="M172.873 239.27H168.525L155.661 178.893L147.132 138.884L146.67 182.294L146.06 239.27H141.37V139.987L131.293 188.108L120.58 239.27H116.231L126.161 190.053L141.705 112.969H147.4L160.338 177.122L172.873 239.27Z" fill="white"/>
<path opacity="0.2" d="M160.338 177.122L155.661 178.893L147.132 138.884L146.67 182.294L141.37 184.299V139.987L131.293 188.108L126.161 190.053L141.705 112.969H147.4L160.338 177.122Z" fill="black"/>
<path d="M201.683 164.746H125.947L111.783 58.887H187.52L201.683 164.746Z" fill="#2E353A"/>
<path opacity="0.4" d="M201.683 164.746H125.947L111.783 58.887H187.52L201.683 164.746Z" fill="white"/>
<path d="M202.353 161.405H130.65L117.243 61.1858H188.947L202.353 161.405Z" fill="#407BFF"/>
<path opacity="0.8" d="M202.353 161.405H130.65L117.243 61.1858H188.947L202.353 161.405Z" fill="white"/>
<path d="M177.047 115.863L140.573 158.411H194.3L177.047 115.863Z" fill="#1A79E8"/>
<path opacity="0.2" d="M164.625 130.35L175.319 144.143L172.411 150.392L164.82 143.996L164.625 129.408" fill="white"/>
<path opacity="0.1" d="M178.689 119.912L172.411 158.411L158.81 137.133L164.626 116.618L178.689 119.912Z" fill="white"/>
<path d="M168.987 129.101C161.289 131.901 151.447 129.502 144.921 122.906C132.439 110.296 127.97 78.4402 148.74 73.5418C162.448 70.3075 173.999 78.4335 178.562 95.2335C179.642 99.3123 180.299 103.491 180.525 107.703C181.235 119.678 176.009 126.555 168.987 129.101Z" fill="#407BFF"/>
<path d="M132.439 115.95L144.271 95.835L150.703 118.235L132.439 115.95Z" fill="#407BFF"/>
<path d="M152.76 97.1715C152.76 97.1715 157.229 88.6311 166.83 98.5681C166.83 98.5681 158.341 107.222 152.76 97.1715Z" fill="#407BFF"/>
<path d="M164.82 87.5754H145.39L146.509 91.7788L164.82 87.5754Z" fill="#407BFF"/>
<path d="M138.69 89.6736L144.271 95.8349L137.002 109.675L131.32 91.7786L138.69 89.6736Z" fill="#407BFF"/>
<path opacity="0.2" d="M178.22 120.955C171.929 133.264 154.716 132.79 144.941 122.913C132.459 110.303 127.99 78.4469 148.76 73.5486C163.185 70.1405 175.218 79.3223 179.245 97.9467C179.245 97.9467 167.741 110.142 168.86 118.91L169.979 127.678C173.351 126.331 176.228 123.985 178.22 120.955V120.955Z" fill="white"/>
<path opacity="0.2" d="M132.439 115.95L144.271 95.835L150.703 118.235L132.439 115.95Z" fill="white"/>
<path opacity="0.2" d="M164.82 87.5754H145.39L146.509 91.7788L164.82 87.5754Z" fill="white"/>
<path d="M138.69 89.6736L144.271 95.8349L137.002 109.675L131.32 91.7786L138.69 89.6736Z" fill="#1A79E8"/>
<path d="M145.39 127.671L150.703 120.902L155.105 122.171L158.79 117.674L168.84 118.903C168.84 118.903 169.289 133.458 145.39 127.671Z" fill="#1A79E8"/>
<path opacity="0.2" d="M145.39 127.671L168.84 118.903C168.84 118.903 165.651 131.647 145.39 127.671Z" fill="white"/>
<path d="M161.021 91.7786L155.105 98.5681L161.021 103.841L164.82 98.5681L161.021 91.7786Z" fill="#407BFF"/>
<path opacity="0.2" d="M152.76 97.1715C152.76 97.1715 157.229 88.6311 166.83 98.5681C166.83 98.5681 158.341 107.222 152.76 97.1715Z" fill="white"/>
<path d="M138.69 79.9639C138.69 79.9639 132.66 73.0942 132.439 68.4164C132.218 63.7386 162.75 64.6274 172.411 68.4164C172.411 68.4164 169.289 76.3553 172.411 83.7463C172.411 83.7463 156.11 74.5778 138.69 79.9639Z" fill="#1A79E8"/>
<path d="M173.845 102.03C173.845 102.03 184.699 94.7457 186.709 97.1714C188.719 99.5972 190.501 111.111 188.27 111.82C186.039 112.528 175.091 108.813 175.091 108.813L173.845 102.03Z" fill="#1A79E8"/>
<path opacity="0.2" d="M184.585 106.133L183.205 113.945L189.302 115.001L192.29 109.989L184.585 106.133Z" fill="white"/>
<path opacity="0.1" d="M168.987 129.101L168.847 128.573C163.822 108.846 173.45 98.9425 178.562 95.2336C179.642 99.3124 180.299 103.491 180.525 107.703C181.235 119.679 176.009 126.555 168.987 129.101Z" fill="white"/>
<path d="M89.6462 202.068C87.4754 198.48 85.854 195.539 86.2426 193.882C87.395 188.917 91.7902 187.48 93.0565 179.902C94.3027 172.438 84.4336 163.363 84.1321 163.089C84.1321 163.089 98.4969 136.358 90.7919 125.332C90.5574 124.998 90.3296 124.664 90.1219 124.356C82.9194 114.159 79.9781 111.913 79.9781 111.913L84.1522 103.52L82.1422 101.669L78.1557 97.9468L72.6952 104.796L74.7052 109.434L75.7303 111.827C75.7303 111.827 64.0053 123.668 63.7105 132.629C63.4157 141.591 70.5914 155.798 70.5914 155.798C70.5914 155.798 63.4693 163.917 60.0791 170.406C58.3438 173.747 57.5867 176.614 59.2952 177.71C63.3152 180.29 67.7774 187.821 66.1359 197.818C65.6719 200.53 64.8496 203.168 63.6904 205.663C60.0523 213.602 60.595 219.523 61.7206 223.112C62.1317 224.567 62.7987 225.938 63.6904 227.161L97.8202 226.232C100.5 218.895 93.9744 209.199 89.6462 202.068ZM78.1557 115.609C78.1557 115.609 87.2141 124.109 87.9913 130.411C88.1088 131.523 88.0818 132.646 87.9109 133.752C87.1002 139.954 83.0802 147.685 83.0802 147.685V143.776V137.494L78.1222 129.422L73.3317 138.777L74.6717 147.685C74.6717 147.685 70.7656 142.961 70.5378 134.32C70.31 125.68 78.1557 115.609 78.1557 115.609Z" fill="#1A79E8"/>
<path opacity="0.2" d="M89.6462 202.068C87.4754 198.48 85.854 195.539 86.2426 193.882C87.395 188.917 91.7902 187.48 93.0565 179.902C94.3027 172.438 84.4336 163.363 84.1321 163.089C84.1321 163.089 98.4969 136.358 90.7919 125.332C90.5574 124.998 90.3296 124.664 90.1219 124.356C82.9194 114.159 79.9781 111.913 79.9781 111.913L84.1522 103.52L82.1422 101.669L78.1557 97.9468L72.6952 104.796L74.7052 109.434L75.7303 111.827C75.7303 111.827 64.0053 123.668 63.7105 132.629C63.4157 141.591 70.5914 155.798 70.5914 155.798C70.5914 155.798 63.4693 163.917 60.0791 170.406C58.3438 173.747 57.5867 176.614 59.2952 177.71C63.3152 180.29 67.7774 187.821 66.1359 197.818C65.6719 200.53 64.8496 203.168 63.6904 205.663C60.0523 213.602 60.595 219.523 61.7206 223.112C62.1317 224.567 62.7987 225.938 63.6904 227.161L97.8202 226.232C100.5 218.895 93.9744 209.199 89.6462 202.068ZM78.1557 115.609C78.1557 115.609 87.2141 124.109 87.9913 130.411C88.1088 131.523 88.0818 132.646 87.9109 133.752C87.1002 139.954 83.0802 147.685 83.0802 147.685V143.776V137.494L78.1222 129.422L73.3317 138.777L74.6717 147.685C74.6717 147.685 70.7656 142.961 70.5378 134.32C70.31 125.68 78.1557 115.609 78.1557 115.609Z" fill="white"/>
<path opacity="0.2" d="M87.9108 133.752C88.0817 132.646 88.1087 131.523 87.9912 130.411C87.214 124.096 78.1556 115.609 78.1556 115.609C78.1556 115.609 70.3501 125.666 70.5712 134.32C70.7923 142.974 74.7051 147.685 74.7051 147.685L73.3651 138.777L78.1556 129.422L83.1136 137.494V143.776C74.1758 158.765 60.0857 170.406 60.0857 170.406C63.4759 163.951 70.5779 155.825 70.5779 155.825C70.5779 155.825 63.3955 141.618 63.697 132.656C63.9985 123.695 75.7101 111.82 75.7101 111.82L74.685 109.428C77.5392 106.374 80.1321 103.701 82.1421 101.662L84.1521 103.513L79.978 111.907C79.978 111.907 82.9193 114.152 90.1218 124.35C89.7929 127.566 89.0498 130.726 87.9108 133.752Z" fill="black"/>
<path opacity="0.2" d="M86.2424 193.882C85.8538 195.539 87.4752 198.48 89.646 202.068C88.5925 203.631 87.4564 205.137 86.2424 206.579C76.9897 217.665 68.1524 222.189 61.7204 223.078C60.5948 219.49 60.0521 213.569 63.6902 205.63C64.8477 203.14 65.67 200.509 66.1357 197.805C75.241 182.762 84.1252 163.055 84.1252 163.055C84.4267 163.329 94.2958 172.411 93.0496 179.869C91.79 187.48 87.3948 188.917 86.2424 193.882Z" fill="black"/>
<path d="M105.411 224.141H54.4912V239.103H105.411V224.141Z" fill="#2E353A"/>
<path opacity="0.2" d="M105.411 224.141H70.5713V239.103H105.411V224.141Z" fill="white"/>
<path d="M274.479 127.671C274.479 127.671 279.042 142.373 273.353 143.656C267.665 144.939 269.561 127.671 269.561 127.671H274.479Z" fill="#E4897B"/>
<path opacity="0.1" d="M274.479 127.671C274.479 127.671 279.042 142.373 273.353 143.656C267.665 144.939 269.561 127.671 269.561 127.671H274.479Z" fill="black"/>
<path d="M256.369 118.362C256.838 112.481 262.204 107.302 267.853 106.146C273.956 104.897 279.685 109.488 281.809 114.941C283.933 120.394 282.137 131.286 273.99 129.134C270.868 128.306 268.476 126.127 265.28 125.312C262.513 124.61 259.323 124.263 257.414 121.87C256.618 120.883 256.243 119.623 256.369 118.362Z" fill="#407BFF"/>
<path opacity="0.6" d="M281.809 114.941C279.685 109.474 273.956 104.917 267.853 106.146C262.204 107.302 256.838 112.481 256.369 118.362C256.243 119.623 256.618 120.883 257.414 121.87C259.323 124.263 262.513 124.61 265.28 125.312C268.476 126.127 270.868 128.306 273.99 129.134C282.137 131.286 283.939 120.427 281.809 114.941ZM268.549 110.617C268.188 109.314 271.404 107.897 272.75 109.581C274.097 111.265 269.755 114.974 268.549 110.617ZM273.722 113.624C274.037 112.288 277.541 112.602 277.909 114.727C278.278 116.852 272.69 118.021 273.722 113.604V113.624ZM275.39 119.298C276.134 118.162 279.33 119.625 278.954 121.743C278.579 123.862 272.918 123.087 275.37 119.298H275.39Z" fill="white"/>
<path opacity="0.2" d="M273.722 113.604C274.037 112.268 277.541 112.582 277.909 114.707C278.278 116.832 272.69 118.021 273.722 113.604Z" fill="white"/>
<path opacity="0.4" d="M275.37 119.298C276.114 118.162 279.31 119.625 278.934 121.744C278.559 123.862 272.918 123.087 275.37 119.298Z" fill="white"/>
<path d="M264.951 113.143C267.33 114.974 274.948 135.69 275.497 139.366C276.047 143.041 273.809 146.382 269.561 141.704C265.313 137.027 258.841 124.103 258.841 124.103L264.951 113.143Z" fill="#E4897B"/>
<path d="M190.95 216.549L194.132 218.053C194.132 218.053 214.902 167.933 218.252 167.793C221.602 167.653 255.712 183.29 264.261 174.616C272.811 165.942 260.449 145.052 260.449 145.052C260.449 145.052 239.887 142.125 238.339 146.756C237.958 148.121 237.667 149.51 237.468 150.913C237.234 152.33 237.073 153.519 237.073 153.519C236.436 153.359 218.474 148.046 210.34 153.519C202.079 159.092 190.95 216.549 190.95 216.549Z" fill="#E4897B"/>
<path d="M249.508 176.701C249.508 176.701 226.869 175.452 219.177 179.742C219.177 179.742 223.07 212.654 224.832 232.781L221.06 233.216C221.06 233.216 204.98 179.408 205.147 172.558C205.315 165.708 217.877 165.04 217.877 165.04C217.877 165.04 233.247 173.894 249.508 176.701Z" fill="#E4897B"/>
<g opacity="0.1">
<path opacity="0.1" d="M249.508 176.701C249.508 176.701 226.869 175.452 219.177 179.742C219.177 179.742 223.07 212.654 224.832 232.781L221.06 233.216C221.06 233.216 204.98 179.408 205.147 172.558C205.315 165.708 217.877 165.04 217.877 165.04C217.877 165.04 233.247 173.894 249.508 176.701Z" fill="black"/>
</g>
<path d="M226.326 169.257L232.872 178.459L249.508 176.701L226.326 169.257Z" fill="#407BFF"/>
<path opacity="0.4" d="M226.326 169.257L232.872 178.459L249.508 176.701L226.326 169.257Z" fill="white"/>
<path d="M225.857 231.492C225.857 230.997 219.707 231.458 219.707 231.458C219.707 231.458 215.975 235.334 212.336 236.243C208.698 237.152 210.755 239.317 214.856 239.27L225 239.143C227.894 239.11 226.038 236.657 225.857 231.492Z" fill="#2E353A"/>
<path d="M216.477 233.069C216.292 233.083 216.107 233.033 215.954 232.928C215.862 232.847 215.796 232.739 215.767 232.62C215.739 232.5 215.748 232.374 215.794 232.26C215.816 232.173 215.857 232.091 215.912 232.02C215.967 231.949 216.036 231.89 216.115 231.846C216.55 231.66 217.029 231.602 217.495 231.679C216.993 231.418 216.551 231.097 216.524 230.777C216.524 230.567 216.658 230.393 216.926 230.255C217.05 230.197 217.185 230.167 217.321 230.167C217.458 230.167 217.593 230.197 217.717 230.255C218.554 230.589 219.057 231.893 219.11 231.966C219.164 232.04 219.11 231.933 219.11 231.933V232.033C219.11 232.033 219.11 231.973 219.11 231.986V231.933C219.11 231.933 219.11 232.113 219.063 232.12C218.701 232.267 217.328 233.069 216.477 233.069ZM217.047 231.993C216.784 231.978 216.522 232.026 216.283 232.133C216.241 232.155 216.204 232.186 216.174 232.222C216.144 232.259 216.122 232.302 216.109 232.347C216.048 232.594 216.109 232.654 216.155 232.674C216.45 232.908 217.569 232.554 218.467 232.167C218.011 232.065 217.547 232.007 217.08 231.993H217.047ZM217.355 230.489C217.254 230.492 217.156 230.517 217.067 230.563C216.986 230.603 216.846 230.683 216.852 230.77C216.852 231.044 217.75 231.512 218.668 231.846C218.461 231.307 218.085 230.85 217.596 230.543C217.52 230.509 217.438 230.491 217.355 230.489V230.489Z" fill="#407BFF"/>
<path d="M195.828 216.249C195.935 215.761 189.871 214.705 189.871 214.705C189.871 214.705 185.302 217.552 181.537 217.532C177.771 217.512 179.245 220.125 183.232 221.08L193.087 223.453C195.921 224.128 194.735 221.301 195.828 216.249Z" fill="#2E353A"/>
<path d="M187.084 215.547C186.869 215.576 186.651 215.561 186.442 215.502C186.234 215.444 186.039 215.343 185.871 215.206C185.801 215.109 185.764 214.992 185.764 214.872C185.764 214.752 185.801 214.635 185.871 214.538C185.915 214.458 185.974 214.388 186.045 214.332C186.117 214.275 186.199 214.234 186.287 214.21C186.752 214.142 187.228 214.205 187.66 214.391C187.238 214.01 186.883 213.596 186.943 213.282C186.984 213.074 187.151 212.934 187.459 212.874C187.576 212.842 187.699 212.841 187.816 212.87C187.934 212.899 188.041 212.958 188.129 213.041C188.86 213.569 188.927 215.079 188.927 215.139V215.206H189.134V215.24H188.94C188.94 215.24 189.027 215.24 189.014 215.24C189 215.24 189.047 215.24 189.014 215.24C189.014 215.24 189.014 215.3 188.96 215.306C188.344 215.448 187.716 215.528 187.084 215.547ZM186.628 214.491C186.549 214.477 186.467 214.477 186.387 214.491C186.341 214.502 186.297 214.522 186.259 214.551C186.22 214.58 186.189 214.616 186.166 214.658C186.052 214.872 186.113 214.952 186.133 214.979C186.36 215.28 187.533 215.213 188.498 215.052C187.915 214.755 187.28 214.571 186.628 214.511V214.491ZM187.687 213.155H187.533C187.446 213.155 187.292 213.221 187.278 213.302C187.225 213.576 187.948 214.244 188.772 214.792C188.704 214.22 188.453 213.686 188.056 213.268C187.946 213.197 187.817 213.164 187.687 213.175V213.155Z" fill="#407BFF"/>
<path d="M222.031 150.358C222.031 150.358 220.43 164.392 223.445 169.932C223.445 169.932 237.073 177.115 251.029 177.784C264.985 178.452 275.377 172.625 260.463 145.039C260.463 145.039 256.141 141.698 248.751 141.698C241.361 141.698 238.353 146.75 238.353 146.75L235.76 151.889L222.031 150.358Z" fill="#407BFF"/>
<path opacity="0.6" d="M222.031 150.358C222.031 150.358 220.43 164.392 223.445 169.932C223.445 169.932 237.073 177.115 251.029 177.784C264.985 178.452 275.377 172.625 260.463 145.039C260.463 145.039 256.141 141.698 248.751 141.698C241.361 141.698 238.353 146.75 238.353 146.75L235.76 151.889L222.031 150.358Z" fill="white"/>
<path d="M238.962 87.542C238.962 87.542 236.175 87.542 235.505 83.9535C234.835 80.3649 238.118 79.6566 238.962 80.0842" stroke="#2E353A" stroke-width="0.5" stroke-linecap="round" stroke-linejoin="round"/>
<path d="M245.823 103.787C245.094 104.062 244.329 104.229 243.552 104.282C241.97 104.282 240.724 104.068 239.746 103.34C237.535 101.689 236.731 98.0471 236.671 93.5431C236.577 87.6624 238.151 84.4681 243.84 83.9803C253.26 83.1717 255.303 100.84 245.823 103.787Z" fill="#E4897B"/>
<path opacity="0.2" d="M248.255 101.067C246.988 102.516 245.375 103.622 243.565 104.282V104.282C241.984 104.282 240.738 104.075 239.76 103.346C242.607 101.021 248.255 101.067 248.255 101.067Z" fill="black"/>
<path d="M240.001 87.0474C240.001 87.0474 237.1 92.9348 242.044 96.256C242.044 96.256 245.434 101.863 250.895 101.108C256.355 100.352 259.605 91.8522 255.987 84.4546C252.57 77.4379 240.919 81.3205 240.919 81.3205C235.947 79.0751 233.931 85.5104 237.622 87.5286C238.343 87.1173 239.177 86.9485 240.001 87.0474Z" fill="#2E353A"/>
<path d="M244.831 96.0355C243.197 94.3716 238.292 87.1544 240.919 81.3338C240.919 81.3338 245.555 79.456 248.851 80.3047C248.851 80.3047 244.738 94.0508 253.615 99.7845C250.305 99.7439 247.146 98.3957 244.831 96.0355V96.0355Z" fill="#1A79E8"/>
<path d="M252.871 99.4904C252.871 99.4904 256.221 96.7038 258.841 100.827C258.841 100.827 256.054 101.876 253.876 100.459C253.876 100.459 254.654 101.676 254.097 103.841C254.097 103.841 251.752 102.999 252.871 99.4904Z" fill="#407BFF"/>
<path d="M242.017 95.2805C242.017 95.2805 242.098 98.7087 244.336 100.627" stroke="#2E353A" stroke-width="0.5" stroke-linecap="round" stroke-linejoin="round"/>
<path d="M240.054 94.5185C239.987 93.4961 240.764 91.6918 242.493 91.7787C244.222 91.8655 245.535 95.8617 241.233 97.1247C240.617 97.3319 240.188 96.6636 240.054 94.5185Z" fill="#E4897B"/>
<path d="M252.59 85.6241C252.59 85.6241 253.394 81.1134 258.191 80.9463C262.988 80.7792 262.211 85.1764 263.551 86.1253C264.891 87.0742 265.729 86.3458 266.734 87.7425C267.739 89.1391 266.178 90.7497 266.231 92.1396C266.285 93.5296 268.02 93.8103 268.02 95.7015C268.02 97.5926 266.01 97.7664 265.287 100.045C264.563 102.324 265.896 102.511 265.896 103.841C265.896 105.171 265.454 106.006 263.779 105.953C263.779 105.953 265.159 105.171 264.248 104.282C263.337 103.393 260.965 102.551 260.302 100.774C259.638 98.996 262.607 97.038 259.866 95.1468C257.126 93.2556 255.679 94.532 254.674 90.8031C253.669 87.0742 252.59 85.6241 252.59 85.6241Z" fill="#2E353A"/>
<path d="M245.334 113.223C249.481 113.731 251.873 109.16 251.873 109.16C247.96 106.487 250.299 101.068 250.299 101.068C246.506 99.4972 243.639 102.671 243.639 102.671C243.926 103.545 244.15 104.439 244.309 105.344C244.979 109.26 243.197 109.575 243.197 109.575C243.044 109.953 242.98 110.361 243.01 110.768C243.04 111.175 243.162 111.569 243.369 111.921C243.575 112.274 243.859 112.574 244.2 112.8C244.541 113.025 244.928 113.17 245.334 113.223V113.223Z" fill="#E4897B"/>
<path d="M260.462 145.052C260.462 145.052 260.931 123 264.951 113.143C261.375 111.061 257.572 109.395 253.615 108.178C246.191 105.939 236.999 104.837 234.185 105.953C234.185 105.953 232.269 131.346 238.339 146.756C238.352 146.756 246.439 146.556 260.462 145.052Z" fill="#407BFF"/>
<path opacity="0.2" d="M260.462 145.052C260.462 145.052 260.931 123 264.951 113.143C261.375 111.061 257.572 109.395 253.615 108.178C246.191 105.939 236.999 104.837 234.185 105.953C234.185 105.953 232.269 131.346 238.339 146.756C238.352 146.756 246.439 146.556 260.462 145.052Z" fill="black"/>
<path d="M202.34 90.3219C201.469 89.2192 183.01 96.3696 183.01 96.3696L183.205 96.804C183.205 96.804 203.01 91.1639 202.34 90.3219Z" fill="#2E353A"/>
<path d="M183.011 96.3697C182.471 96.2266 181.902 96.2266 181.362 96.3697C181.027 96.4419 180.676 96.3903 180.375 96.2244C180.075 96.0585 179.845 95.7897 179.728 95.4675C179.728 95.4675 180.485 99.0561 183.205 96.804L183.011 96.3697Z" fill="#407BFF"/>
<path d="M236.43 105.953C232.101 103.721 216.705 114.747 213.395 114.413C208.35 113.905 200.404 97.1716 200.404 97.1716L196.98 98.5683C196.98 98.5683 203.124 119.759 210.829 121.877C216.926 123.554 233.957 117.54 233.951 116.979C233.951 116.979 241.528 108.585 236.43 105.953Z" fill="#E4897B"/>
<path d="M200.779 97.9401C200.779 97.9401 198.876 92.4069 197.985 90.7162C197.094 89.0255 192.404 93.2489 192.29 94.4785C192.176 95.7081 197.094 100.827 198.099 100.606C199.104 100.386 200.779 97.9401 200.779 97.9401Z" fill="#E4897B"/>
<path d="M244.818 181.8L245.059 192.205L246.158 239.27H249.783L250.875 192.205L251.116 181.8H244.818Z" fill="#263238"/>
<path opacity="0.1" d="M244.818 181.8L245.059 192.205L246.158 239.27H249.783L250.875 192.205L251.116 181.8H244.818Z" fill="white"/>
<path opacity="0.2" d="M244.818 181.8L245.059 192.492H250.875L251.116 181.8H244.818Z" fill="black"/>
<path d="M225.133 239.103L228.483 182.535H233.957L229.267 239.103H225.133Z" fill="#263238"/>
<path opacity="0.2" d="M229.281 239.103H225.14L228.182 187.614L228.483 182.468H233.957L233.535 187.614L229.281 239.103Z" fill="white"/>
<path opacity="0.2" d="M233.957 182.468L233.535 187.814H228.182L228.483 182.468H233.957Z" fill="black"/>
<path d="M266.673 239.103L261.983 182.535H267.457L270.807 239.103H266.673Z" fill="#263238"/>
<path opacity="0.2" d="M266.66 239.103L262.406 187.614L261.983 182.468H267.457L267.759 187.614L270.801 239.103H266.66Z" fill="white"/>
<path opacity="0.2" d="M261.983 182.468L262.406 187.814H267.759L267.457 182.468H261.983Z" fill="black"/>
<path d="M270.385 184.486H225.549V180.016C225.549 179.13 225.902 178.28 226.53 177.653C227.158 177.026 228.01 176.674 228.899 176.674H267.035C267.924 176.674 268.776 177.026 269.404 177.653C270.032 178.28 270.385 179.13 270.385 180.016V184.486Z" fill="#407BFF"/>
<path d="M224.751 184.486H271.189C271.933 184.486 272.536 183.885 272.536 183.143V181.927C272.536 181.185 271.933 180.584 271.189 180.584H224.751C224.008 180.584 223.405 181.185 223.405 181.927V183.143C223.405 183.885 224.008 184.486 224.751 184.486Z" fill="#263238"/>
<path opacity="0.4" d="M224.751 184.486H271.189C271.933 184.486 272.536 183.885 272.536 183.143V181.927C272.536 181.185 271.933 180.584 271.189 180.584H224.751C224.008 180.584 223.405 181.185 223.405 181.927V183.143C223.405 183.885 224.008 184.486 224.751 184.486Z" fill="white"/>
<path d="M237.093 149.256C237.093 149.256 235.813 148.146 237.917 145.594C240.021 143.041 258.553 140.735 264.952 143.723L264.871 148.554C264.871 148.554 274.439 169.27 275.591 190.153C275.591 190.153 270.693 192.325 265.668 190.153C260.643 187.981 250.326 194.337 244.349 192.913C244.349 192.913 248.597 164.472 244.007 154.568C243.994 154.568 241.354 148.962 237.093 149.256Z" fill="#2E353A"/>
<path d="M238.051 146.349C238.051 146.349 232.075 147.077 232.242 153.172C232.41 159.266 238.018 163.864 236.597 168.127C236.597 168.127 240.195 169.203 242.038 167.747C242.038 167.747 244.55 162.695 240.698 158.605C236.845 154.515 234.138 150.145 238.587 148.527L238.051 146.349Z" fill="#2E353A"/>
</svg>
