<svg width="335" height="249" viewBox="0 0 335 249" fill="none" xmlns="http://www.w3.org/2000/svg">
<path d="M143.32 154.662L142.703 158.236L142.046 162.077L136.009 197.101H126.143L132.173 162.077L132.837 158.236L133.454 154.662H143.32Z" fill="#EBEBEB"/>
<path d="M141.892 154.662C141.369 158.21 140.812 161.753 140.248 165.295L138.505 175.91L136.68 186.512L135.741 191.813L134.762 197.101L135.567 191.781L136.405 186.474L138.169 175.853L139.994 165.251C140.591 161.721 141.221 158.185 141.892 154.662Z" fill="#C7C7C7"/>
<path d="M142.703 158.236L142.046 162.077H132.173L132.837 158.236H142.703Z" fill="#C7C7C7"/>
<path d="M192.042 154.662L192.659 158.236L193.316 162.077L199.353 197.101H209.219L203.189 162.077L202.525 158.236L201.908 154.662H192.042Z" fill="#EBEBEB"/>
<path d="M193.504 154.662C194.02 158.21 194.584 161.753 195.147 165.295L196.884 175.91L198.709 186.512L199.654 191.813L200.634 197.101L199.829 191.781L198.99 186.474L197.247 175.853L195.422 165.251C194.798 161.721 194.168 158.185 193.504 154.662Z" fill="#C7C7C7"/>
<path d="M192.659 158.236H202.525L203.189 162.077H193.316L192.659 158.236Z" fill="#C7C7C7"/>
<path d="M142.958 144.809H135.138L136.11 137.908H141.986L142.958 144.809Z" fill="#C7C7C7"/>
<path d="M144.995 134.277C145.679 130.542 143.035 126.989 139.089 126.341C135.143 125.693 131.39 128.196 130.705 131.931C130.02 135.666 132.664 139.219 136.611 139.867C140.557 140.515 144.31 138.012 144.995 134.277Z" fill="#DBDBDB"/>
<path d="M144.441 134.183C145.148 131.362 143.304 128.532 140.323 127.864C137.342 127.195 134.353 128.941 133.647 131.762C132.94 134.584 134.784 137.413 137.765 138.081C140.746 138.75 143.735 137.005 144.441 134.183Z" fill="white"/>
<path d="M143.683 132.683C143.632 132.056 143.445 131.446 143.133 130.891C142.822 130.336 142.392 129.848 141.872 129.458C141.348 129.074 140.748 128.794 140.107 128.635C139.466 128.477 138.798 128.444 138.143 128.538C137.492 128.635 136.87 128.862 136.317 129.202C135.765 129.542 135.295 129.988 134.937 130.512C134.557 131.071 134.309 131.7 134.209 132.357C134.108 133.014 134.157 133.683 134.353 134.321C134.688 135.42 135.466 136.35 136.519 136.911C137.548 137.464 138.756 137.64 139.913 137.406C141.034 137.182 142.038 136.599 142.757 135.756C143.469 134.927 143.88 133.903 143.931 132.835C143.931 132.785 143.931 132.74 143.884 132.74C143.837 132.74 143.837 132.778 143.837 132.829C143.811 133.262 143.723 133.689 143.575 134.099C143.421 134.501 143.216 134.885 142.965 135.242C142.702 135.589 142.396 135.904 142.053 136.181C141.703 136.461 141.318 136.698 140.906 136.886C140.316 137.149 139.674 137.293 139.021 137.308C138.369 137.324 137.72 137.21 137.116 136.975C136.511 136.732 135.969 136.368 135.526 135.908C135.084 135.447 134.752 134.902 134.554 134.308C134.352 133.7 134.29 133.057 134.373 132.424C134.457 131.791 134.683 131.182 135.037 130.639C135.379 130.121 135.834 129.679 136.372 129.343C136.911 129.007 137.519 128.784 138.156 128.69C139.016 128.561 139.896 128.653 140.705 128.958C141.514 129.264 142.22 129.77 142.75 130.423C143.006 130.76 143.213 131.127 143.367 131.515C143.517 131.909 143.616 132.318 143.663 132.734C143.663 132.734 143.663 132.734 143.663 132.734C143.671 132.729 143.678 132.721 143.682 132.712C143.685 132.703 143.686 132.692 143.683 132.683V132.683Z" fill="#EBEBEB"/>
<path d="M143.032 132.683C142.984 132.147 142.82 131.627 142.55 131.154C142.28 130.681 141.91 130.266 141.463 129.934C141.013 129.609 140.5 129.372 139.954 129.234C139.407 129.097 138.837 129.063 138.277 129.134C137.715 129.207 137.177 129.391 136.696 129.675C136.215 129.958 135.803 130.334 135.486 130.779C135.156 131.257 134.937 131.797 134.844 132.362C134.751 132.927 134.788 133.504 134.95 134.054C135.089 134.532 135.327 134.978 135.649 135.368C135.972 135.758 136.372 136.084 136.828 136.327C137.726 136.806 138.779 136.956 139.786 136.746C140.756 136.543 141.625 136.032 142.247 135.299C142.863 134.576 143.217 133.686 143.26 132.759C143.26 132.715 143.26 132.677 143.22 132.677C143.18 132.677 143.166 132.709 143.166 132.753C143.111 133.497 142.847 134.214 142.402 134.829C141.956 135.444 141.345 135.935 140.631 136.251C140.123 136.485 139.569 136.614 139.004 136.629C138.44 136.644 137.879 136.546 137.358 136.34C136.833 136.132 136.362 135.817 135.98 135.417C135.597 135.018 135.312 134.544 135.144 134.029C134.97 133.501 134.92 132.944 134.996 132.396C135.073 131.848 135.274 131.322 135.587 130.855C135.884 130.416 136.278 130.043 136.741 129.76C137.203 129.478 137.725 129.292 138.27 129.217C139.002 129.112 139.751 129.193 140.439 129.452C141.127 129.71 141.731 130.138 142.187 130.69C142.406 130.976 142.586 131.288 142.724 131.617C142.849 131.954 142.937 132.303 142.985 132.658L143.032 132.683Z" fill="#EBEBEB"/>
<path d="M142.381 132.683C142.333 132.237 142.189 131.805 141.959 131.413C141.728 131.021 141.415 130.678 141.04 130.404C140.284 129.864 139.337 129.623 138.397 129.731C137.926 129.791 137.474 129.944 137.07 130.182C136.667 130.419 136.321 130.735 136.056 131.109C135.769 131.51 135.577 131.964 135.492 132.442C135.408 132.92 135.433 133.409 135.567 133.877C135.68 134.285 135.879 134.668 136.152 135.002C136.425 135.336 136.767 135.614 137.156 135.819C137.924 136.229 138.827 136.351 139.685 136.162C140.513 135.98 141.248 135.531 141.764 134.892C142.275 134.279 142.575 133.533 142.623 132.753C142.623 132.715 142.623 132.683 142.576 132.683C142.568 132.684 142.56 132.686 142.553 132.69C142.546 132.693 142.54 132.698 142.535 132.704C142.53 132.71 142.526 132.717 142.524 132.724C142.522 132.731 142.521 132.739 142.522 132.747C142.471 133.372 142.248 133.973 141.873 134.49C141.499 135.007 140.987 135.422 140.389 135.692C139.962 135.893 139.495 136.006 139.018 136.022C138.542 136.038 138.067 135.959 137.626 135.788C137.181 135.611 136.783 135.343 136.459 135.004C136.136 134.665 135.895 134.263 135.755 133.826C135.616 133.381 135.58 132.913 135.649 132.454C135.719 131.995 135.892 131.556 136.157 131.166C136.41 130.803 136.743 130.496 137.133 130.265C137.523 130.035 137.961 129.888 138.417 129.833C139.02 129.765 139.631 129.833 140.202 130.029C140.775 130.237 141.278 130.588 141.657 131.045C141.842 131.28 141.996 131.536 142.113 131.807C142.226 132.085 142.305 132.375 142.348 132.67C142.348 132.67 142.348 132.67 142.348 132.67C142.348 132.67 142.388 132.683 142.381 132.683Z" fill="#EBEBEB"/>
<path d="M141.737 132.683C141.69 132.329 141.568 131.988 141.381 131.679C141.193 131.369 140.943 131.098 140.644 130.88C140.043 130.452 139.293 130.255 138.545 130.328C138.165 130.37 137.798 130.487 137.468 130.672C137.139 130.857 136.855 131.105 136.633 131.401C136.393 131.727 136.229 132.098 136.153 132.489C136.076 132.879 136.089 133.281 136.191 133.667C136.28 134.007 136.442 134.325 136.667 134.603C136.892 134.88 137.175 135.111 137.499 135.28C138.134 135.62 138.882 135.717 139.591 135.553C140.265 135.398 140.864 135.031 141.288 134.511C141.692 134.004 141.926 133.394 141.959 132.759C141.96 132.753 141.959 132.746 141.957 132.739C141.956 132.733 141.952 132.727 141.948 132.721C141.944 132.716 141.938 132.712 141.932 132.708C141.926 132.705 141.919 132.703 141.912 132.702C141.912 132.702 141.865 132.702 141.858 132.753C141.811 133.258 141.626 133.743 141.323 134.161C141.02 134.579 140.608 134.916 140.128 135.14C139.782 135.311 139.402 135.408 139.013 135.426C138.624 135.443 138.235 135.381 137.874 135.242C137.509 135.099 137.183 134.881 136.919 134.603C136.656 134.325 136.462 133.994 136.352 133.635C136.244 133.273 136.221 132.893 136.284 132.522C136.346 132.15 136.493 131.796 136.714 131.483C136.921 131.197 137.192 130.956 137.506 130.777C137.821 130.599 138.173 130.486 138.538 130.448C139.015 130.411 139.495 130.469 139.947 130.62C140.4 130.781 140.8 131.052 141.107 131.407C141.256 131.591 141.38 131.791 141.476 132.004C141.571 132.227 141.641 132.459 141.684 132.696V132.696L141.737 132.683Z" fill="#EBEBEB"/>
<path d="M200.057 144.809H192.23L193.202 137.908H199.085L200.057 144.809Z" fill="#C7C7C7"/>
<path d="M203.357 134.016C203.965 130.248 201.231 126.728 197.25 126.153C193.27 125.577 189.55 128.165 188.943 131.933C188.335 135.7 191.069 139.221 195.05 139.796C199.03 140.371 202.75 137.783 203.357 134.016Z" fill="#DBDBDB"/>
<path d="M201.623 133.757C202.085 130.89 200.005 128.212 196.976 127.775C193.948 127.338 191.118 129.308 190.656 132.174C190.195 135.041 192.275 137.719 195.304 138.156C198.332 138.593 201.162 136.623 201.623 133.757Z" fill="white"/>
<path d="M200.781 132.683C200.729 132.057 200.542 131.447 200.23 130.893C199.918 130.338 199.49 129.85 198.97 129.458C198.447 129.074 197.847 128.794 197.206 128.636C196.565 128.478 195.896 128.444 195.241 128.538C194.59 128.635 193.969 128.862 193.416 129.202C192.864 129.542 192.393 129.988 192.035 130.512C191.653 131.07 191.403 131.699 191.303 132.356C191.202 133.014 191.253 133.684 191.452 134.321C191.784 135.421 192.563 136.352 193.618 136.911C194.647 137.465 195.855 137.641 197.012 137.407C198.132 137.182 199.137 136.599 199.856 135.756C200.568 134.927 200.979 133.903 201.03 132.836C201.03 132.785 201.03 132.74 200.983 132.74C200.936 132.74 200.936 132.778 200.929 132.829C200.902 133.261 200.817 133.688 200.674 134.099C200.52 134.503 200.313 134.887 200.057 135.242C199.797 135.589 199.493 135.904 199.152 136.181C198.8 136.461 198.412 136.698 197.998 136.886C197.409 137.151 196.768 137.296 196.116 137.311C195.465 137.327 194.817 137.212 194.215 136.975C193.609 136.732 193.065 136.369 192.622 135.908C192.178 135.448 191.845 134.902 191.646 134.308C191.445 133.699 191.384 133.056 191.468 132.423C191.553 131.79 191.781 131.182 192.136 130.639C192.477 130.121 192.933 129.679 193.471 129.343C194.009 129.007 194.617 128.784 195.255 128.69C196.114 128.561 196.995 128.654 197.804 128.959C198.612 129.264 199.319 129.77 199.849 130.423C200.102 130.762 200.309 131.128 200.466 131.515C200.613 131.909 200.71 132.318 200.755 132.734C200.755 132.734 200.755 132.734 200.755 132.734C200.765 132.73 200.773 132.723 200.778 132.713C200.783 132.704 200.784 132.693 200.781 132.683Z" fill="#EBEBEB"/>
<path d="M200.131 132.683C200.08 132.148 199.914 131.629 199.645 131.156C199.375 130.684 199.006 130.268 198.561 129.934C198.112 129.609 197.599 129.372 197.053 129.234C196.506 129.097 195.936 129.063 195.376 129.134C194.815 129.215 194.278 129.406 193.8 129.694C193.322 129.983 192.912 130.363 192.599 130.81C192.268 131.289 192.049 131.828 191.956 132.393C191.864 132.958 191.9 133.536 192.062 134.086C192.202 134.563 192.439 135.01 192.762 135.4C193.084 135.79 193.484 136.116 193.94 136.359C194.839 136.837 195.891 136.986 196.898 136.778C197.871 136.577 198.742 136.066 199.366 135.331C199.979 134.606 200.333 133.718 200.379 132.791C200.379 132.747 200.379 132.709 200.332 132.709C200.285 132.709 200.285 132.74 200.279 132.785C200.225 133.528 199.962 134.245 199.518 134.86C199.073 135.475 198.463 135.966 197.75 136.283C197.242 136.517 196.688 136.645 196.123 136.661C195.559 136.676 194.998 136.578 194.477 136.372C193.95 136.165 193.478 135.85 193.094 135.451C192.71 135.052 192.424 134.577 192.257 134.061C192.085 133.533 192.036 132.976 192.113 132.428C192.189 131.88 192.389 131.355 192.699 130.887C192.998 130.449 193.392 130.076 193.854 129.794C194.317 129.512 194.838 129.326 195.382 129.249C196.114 129.143 196.863 129.224 197.552 129.482C198.24 129.741 198.843 130.169 199.299 130.722C199.521 131.007 199.701 131.318 199.836 131.648C199.968 131.984 200.056 132.334 200.097 132.69C200.097 132.69 200.097 132.69 200.097 132.69C200.109 132.691 200.121 132.689 200.131 132.683Z" fill="#EBEBEB"/>
<path d="M199.48 132.683C199.429 132.238 199.284 131.806 199.054 131.415C198.823 131.023 198.512 130.68 198.139 130.404C197.383 129.865 196.436 129.624 195.496 129.731C195.025 129.791 194.573 129.944 194.169 130.182C193.766 130.419 193.42 130.735 193.155 131.109C192.869 131.51 192.676 131.964 192.59 132.442C192.505 132.919 192.528 133.408 192.659 133.877C192.775 134.285 192.976 134.667 193.25 135C193.524 135.334 193.866 135.612 194.255 135.819C195.021 136.229 195.921 136.351 196.777 136.162C197.607 135.98 198.344 135.531 198.863 134.892C199.376 134.281 199.674 133.533 199.715 132.753C199.715 132.715 199.715 132.683 199.675 132.683C199.667 132.684 199.659 132.686 199.652 132.69C199.645 132.693 199.639 132.698 199.634 132.704C199.629 132.71 199.625 132.717 199.623 132.724C199.621 132.731 199.62 132.739 199.621 132.747C199.569 133.371 199.345 133.972 198.97 134.489C198.596 135.006 198.085 135.421 197.488 135.692C197.061 135.893 196.594 136.006 196.117 136.022C195.641 136.038 195.166 135.958 194.725 135.787C194.28 135.611 193.882 135.343 193.558 135.004C193.235 134.665 192.994 134.263 192.854 133.826C192.715 133.381 192.679 132.913 192.748 132.454C192.818 131.995 192.991 131.556 193.256 131.166C193.507 130.802 193.839 130.495 194.228 130.265C194.617 130.034 195.054 129.887 195.51 129.833C196.115 129.765 196.728 129.832 197.301 130.029C197.874 130.237 198.377 130.588 198.756 131.045C198.941 131.28 199.095 131.536 199.212 131.807C199.319 132.087 199.397 132.376 199.447 132.67L199.48 132.683Z" fill="#EBEBEB"/>
<path d="M198.83 132.683C198.784 132.329 198.665 131.988 198.478 131.678C198.292 131.368 198.042 131.097 197.743 130.88C197.142 130.453 196.392 130.256 195.644 130.328C195.263 130.367 194.895 130.483 194.565 130.668C194.235 130.853 193.951 131.103 193.732 131.401C193.492 131.727 193.328 132.098 193.252 132.489C193.175 132.88 193.188 133.281 193.289 133.667C193.378 134.006 193.539 134.324 193.763 134.602C193.986 134.879 194.268 135.11 194.591 135.28C195.226 135.619 195.975 135.717 196.683 135.553C197.359 135.397 197.959 135.03 198.387 134.511C198.791 134.004 199.024 133.394 199.058 132.759C199.06 132.753 199.06 132.746 199.059 132.74C199.058 132.733 199.056 132.727 199.052 132.722C199.048 132.716 199.043 132.712 199.037 132.708C199.031 132.705 199.024 132.703 199.018 132.702C199.003 132.702 198.99 132.708 198.98 132.717C198.969 132.727 198.964 132.739 198.964 132.753C198.916 133.259 198.731 133.744 198.427 134.163C198.123 134.581 197.709 134.918 197.227 135.14C196.882 135.31 196.503 135.407 196.115 135.424C195.727 135.442 195.34 135.38 194.98 135.242C194.615 135.099 194.289 134.881 194.025 134.603C193.761 134.325 193.567 133.994 193.457 133.635C193.35 133.273 193.327 132.893 193.39 132.522C193.452 132.15 193.599 131.796 193.819 131.483C194.026 131.196 194.297 130.955 194.612 130.777C194.927 130.598 195.279 130.486 195.644 130.448C196.119 130.411 196.596 130.469 197.046 130.62C197.5 130.778 197.901 131.05 198.206 131.407C198.359 131.589 198.486 131.79 198.582 132.004C198.677 132.227 198.746 132.459 198.789 132.696V132.696C198.789 132.696 198.836 132.683 198.83 132.683Z" fill="#EBEBEB"/>
<path d="M216.845 141.292H118.51V159.093H216.845V141.292Z" fill="#DBDBDB"/>
<path d="M138.726 141.292L131.59 159.093H118.886L126.022 141.292H138.726Z" fill="#EBEBEB"/>
<path d="M164.757 141.292L157.62 159.093H144.917L152.053 141.292H164.757Z" fill="#EBEBEB"/>
<path d="M190.781 141.292L183.651 159.093H170.948L178.084 141.292H190.781Z" fill="#EBEBEB"/>
<path d="M216.819 141.292L209.682 159.093H196.979L204.115 141.292H216.819Z" fill="#EBEBEB"/>
<path d="M214.86 175.554H120.502V186.823H214.86V175.554Z" fill="#DBDBDB"/>
<path d="M139.893 175.554L133.052 186.817H120.865L127.713 175.554H139.893Z" fill="#EBEBEB"/>
<path d="M164.878 175.554L158.029 186.817H145.836L152.684 175.554H164.878Z" fill="#EBEBEB"/>
<path d="M189.849 175.554L183.001 186.817H170.813L177.662 175.554H189.849Z" fill="#EBEBEB"/>
<path d="M214.826 175.554L207.978 186.817H195.791L202.639 175.554H214.826Z" fill="#EBEBEB"/>
<path d="M313.765 56.5015H237.853C237.853 56.5015 245.378 37.0435 256.961 37.0435C268.545 37.0435 272.174 50.4705 272.174 50.4705C272.174 50.4705 279.987 43.1697 286.4 43.1697C292.812 43.1697 298.399 52.8131 298.399 52.8131C298.399 52.8131 307.487 47.6137 313.765 56.5015Z" fill="#EBEBEB"/>
<path d="M110.314 10.8686H74.8394C74.8394 10.8686 82.7606 0 89.0118 0C95.2629 0 97.1007 7.24996 97.1007 7.24996C97.1007 7.24996 101.507 3.86622 105.592 4.44393C109.677 5.02165 110.314 10.8686 110.314 10.8686Z" fill="#EBEBEB"/>
<path d="M301.679 89.1391H266.204C266.204 89.1391 274.132 78.2705 280.376 78.2705C286.621 78.2705 288.465 85.5141 288.465 85.5141C288.465 85.5141 292.872 82.1367 296.957 82.7398C301.042 83.3429 301.679 89.1391 301.679 89.1391Z" fill="#EBEBEB"/>
<path d="M90.7021 38.0909H21.5974C21.5974 38.0909 31.0613 18.0931 41.1826 16.8425C51.3038 15.5918 56.1464 31.7424 56.1464 31.7424C56.1464 31.7424 62.6793 26.0287 67.8103 26.0287C72.9414 26.0287 76.9053 33.5263 76.9053 33.5263C76.9053 33.5263 87.1942 28.3904 90.7021 38.0909Z" fill="#EBEBEB"/>
<path d="M167.681 247.292C245.505 247.292 308.594 240.331 308.594 231.745C308.594 223.158 245.505 216.197 167.681 216.197C89.8572 216.197 26.7686 223.158 26.7686 231.745C26.7686 240.331 89.8572 247.292 167.681 247.292Z" fill="#EBEBEB"/>
<path d="M186.106 234.646C187.501 235.09 227.436 235.224 228.965 234.316C229.549 233.979 229.904 228.475 230.139 221.809C230.192 220.368 230.233 218.883 230.273 217.365L233.506 197.203L206.811 197.038L204.289 217.207L204.39 221.651C204.39 221.651 189.077 228.069 187.514 229.269C185.952 230.469 184.717 234.195 186.106 234.646Z" fill="#EB9481"/>
<path d="M186.106 234.646C187.501 235.09 227.436 235.224 228.965 234.316C229.669 233.897 230.058 225.86 230.273 217.378L204.289 217.219L204.39 221.663C204.39 221.663 189.077 228.082 187.514 229.282C185.952 230.481 184.717 234.195 186.106 234.646Z" fill="white"/>
<path d="M186.106 234.646C187.501 235.09 227.436 235.224 228.965 234.316C229.549 233.979 229.904 228.475 230.139 221.809L204.39 221.657C204.39 221.657 189.077 228.075 187.514 229.275C185.952 230.475 184.717 234.195 186.106 234.646Z" fill="#1A79E8"/>
<path d="M186.689 233.135C193.397 233.002 220.4 233.059 227.027 233.408C227.08 233.408 227.08 233.446 227.027 233.452C220.393 233.719 193.377 233.452 186.683 233.237C186.542 233.23 186.542 233.135 186.689 233.135Z" fill="#263238"/>
<path d="M190.09 227.91C190.838 227.889 191.583 228.017 192.276 228.285C192.969 228.553 193.595 228.955 194.114 229.466C195.051 230.373 195.584 231.587 195.603 232.856C195.603 232.894 195.523 232.894 195.516 232.856C195.297 231.604 194.656 230.454 193.689 229.576C192.722 228.698 191.48 228.141 190.15 227.986C190.14 227.994 190.126 227.997 190.113 227.995C190.1 227.994 190.088 227.987 190.08 227.977C190.072 227.967 190.068 227.954 190.07 227.942C190.072 227.929 190.079 227.918 190.09 227.91V227.91Z" fill="#263238"/>
<path d="M201.794 222.273C204.477 222.273 207.576 223.155 209.232 225.238C209.299 225.314 209.179 225.403 209.098 225.358C206.75 224.189 204.277 223.261 201.72 222.59C201.682 222.575 201.651 222.548 201.632 222.514C201.613 222.48 201.608 222.44 201.617 222.402C201.625 222.364 201.648 222.331 201.68 222.307C201.713 222.283 201.753 222.271 201.794 222.273V222.273Z" fill="#263238"/>
<path d="M199.721 223.035C202.404 223.003 205.503 223.911 207.16 225.993C207.227 226.069 207.106 226.158 207.026 226.12C204.68 224.945 202.206 224.015 199.648 223.346C199.604 223.336 199.566 223.311 199.542 223.275C199.518 223.24 199.51 223.197 199.52 223.155C199.53 223.114 199.557 223.078 199.594 223.055C199.632 223.033 199.678 223.025 199.721 223.035Z" fill="#263238"/>
<path d="M197.649 223.79C200.332 223.79 203.431 224.666 205.094 226.748C205.154 226.831 205.034 226.913 204.953 226.875C202.608 225.699 200.134 224.769 197.575 224.101C197.532 224.092 197.494 224.067 197.47 224.031C197.446 223.995 197.438 223.952 197.448 223.911C197.457 223.869 197.484 223.833 197.522 223.811C197.56 223.788 197.605 223.781 197.649 223.79V223.79Z" fill="#263238"/>
<path d="M195.576 224.546C198.259 224.546 201.365 225.422 203.021 227.504C203.082 227.587 202.961 227.669 202.881 227.631C200.533 226.46 198.059 225.53 195.503 224.857C195.459 224.847 195.421 224.822 195.397 224.786C195.373 224.751 195.365 224.707 195.375 224.666C195.385 224.625 195.412 224.589 195.449 224.566C195.487 224.544 195.533 224.536 195.576 224.546V224.546Z" fill="#263238"/>
<path d="M225.364 227.39C228.375 227.39 228.348 231.834 225.364 231.834C222.379 231.834 222.332 227.371 225.364 227.39Z" fill="#263238"/>
<path d="M199.125 219.219C200.56 220.984 202.76 222.108 204.665 223.358C204.71 223.382 204.76 223.396 204.811 223.398C204.862 223.401 204.913 223.392 204.96 223.372C205.007 223.352 205.049 223.322 205.081 223.285C205.114 223.247 205.137 223.203 205.148 223.155C205.158 223.157 205.169 223.157 205.179 223.154C205.19 223.152 205.199 223.147 205.207 223.14C205.215 223.133 205.221 223.125 205.225 223.115C205.228 223.106 205.23 223.095 205.228 223.085C205.04 220.758 204.21 218.519 202.82 216.591C201.989 215.486 200.285 214.439 198.923 215.499C197.562 216.559 198.28 218.184 199.125 219.219ZM199.004 217.118C199.286 214.356 201.908 216.483 202.485 217.327C202.85 217.877 203.175 218.45 203.458 219.041C204.022 220.27 204.521 221.524 204.953 222.8C204.061 222.133 203.109 221.53 202.19 220.895C201.097 220.14 198.856 218.635 199.004 217.118Z" fill="#263238"/>
<path d="M214.753 221.498C214.551 219.841 212.553 219.479 211.144 219.733C208.729 220.207 206.49 221.275 204.652 222.831C204.605 222.863 204.652 222.908 204.652 222.933C204.623 222.974 204.606 223.021 204.601 223.069C204.595 223.118 204.603 223.167 204.622 223.213C204.641 223.258 204.671 223.298 204.71 223.33C204.749 223.362 204.796 223.385 204.846 223.396C207.14 223.746 209.541 224.38 211.882 224.031C213.25 223.854 214.947 223.066 214.753 221.498ZM208.441 223.25C207.308 223.104 206.194 222.908 205.088 222.806C206.355 222.203 207.589 221.536 208.917 221.073C209.556 220.833 210.21 220.634 210.876 220.476C211.909 220.254 215.356 220.438 213.559 222.609C212.506 223.809 209.789 223.422 208.441 223.25V223.25Z" fill="#263238"/>
<path d="M272.743 104.013C272.743 104.013 241.736 153.938 240.904 157.442C239.63 162.832 232.855 216.02 232.855 216.02L200.594 215.474C200.594 215.474 206.154 168.577 211.419 153.125C215.215 141.996 242.574 105.086 242.574 105.086L272.743 104.013Z" fill="#AED3E6"/>
<path d="M203.538 210.769C208.173 210.769 224.592 210.566 230.756 211.112C230.803 211.112 230.803 211.188 230.756 211.195C228.636 211.48 208.173 211.036 203.538 210.89C203.528 210.893 203.517 210.894 203.507 210.892C203.496 210.891 203.486 210.887 203.478 210.881C203.469 210.875 203.462 210.868 203.457 210.859C203.452 210.85 203.45 210.84 203.45 210.83C203.45 210.82 203.452 210.81 203.457 210.801C203.462 210.792 203.469 210.784 203.478 210.778C203.486 210.772 203.496 210.769 203.507 210.767C203.517 210.765 203.528 210.766 203.538 210.769V210.769Z" fill="#263238"/>
<path d="M267.451 108.597C265.439 111.612 263.273 114.565 261.193 117.555C259.114 120.545 257.048 123.541 255.003 126.557C250.92 132.575 246.932 138.651 243.037 144.783C241.147 147.603 239.529 150.578 238.201 153.671C236.989 156.782 236.08 159.99 235.485 163.257C234.847 166.533 234.431 169.841 234.042 173.148C233.622 176.674 233.206 180.197 232.795 183.718C231.945 190.913 231.096 198.119 230.246 205.335C230.139 206.224 230.038 207.106 229.944 207.989C229.944 208.122 230.172 208.147 230.193 207.989C231.138 200.828 231.93 193.647 232.795 186.474L234.083 175.796C234.478 172.475 234.861 169.155 235.424 165.854C235.927 162.599 236.687 159.384 237.698 156.236C238.803 152.976 240.29 149.844 242.131 146.897C245.867 140.79 249.825 134.791 253.782 128.81C257.739 122.83 261.797 116.748 265.976 110.832C266.485 110.095 267.009 109.371 267.545 108.648C267.619 108.591 267.491 108.559 267.451 108.597Z" fill="#263238"/>
<path d="M245.331 238.842C246.8 238.931 286.426 229.047 287.66 227.802C287.716 227.727 287.748 227.64 287.754 227.548C287.908 226.317 285.883 221.714 284.461 215.816C284.374 215.442 283.629 213.652 282.583 211.233C279.705 204.599 274.574 193.197 274.574 193.197L248.705 199.482L258.229 217.607L259.517 221.866C259.517 221.866 246.431 231.776 245.237 233.294C244.043 234.811 243.869 238.747 245.331 238.842Z" fill="#EB9481"/>
<path d="M245.331 238.842C246.8 238.931 286.426 229.047 287.66 227.802C287.716 227.728 287.748 227.64 287.754 227.548C287.909 226.317 285.883 221.714 284.461 215.817C284.374 215.442 283.629 213.652 282.583 211.233L258.236 217.581L259.523 221.841C259.523 221.841 246.438 231.751 245.244 233.268C244.05 234.786 243.869 238.747 245.331 238.842Z" fill="white"/>
<path d="M245.331 238.842C246.8 238.938 286.426 229.047 287.66 227.802C288.13 227.333 287.104 222.26 284.461 215.816L259.523 221.873C259.523 221.873 246.438 231.77 245.244 233.3C244.05 234.83 243.869 238.741 245.331 238.842Z" fill="#1A79E8"/>
<path d="M245.485 237.242C251.924 235.497 278.069 229.047 284.575 227.79C284.629 227.79 284.635 227.79 284.575 227.828C278.237 229.681 252.038 235.935 245.505 237.35C245.378 237.369 245.351 237.274 245.485 237.242Z" fill="#263238"/>
<path d="M247.37 231.345C248.085 231.149 248.836 231.097 249.573 231.191C250.311 231.285 251.02 231.523 251.656 231.891C252.804 232.544 253.644 233.589 254.003 234.811C254.003 234.849 253.936 234.868 253.923 234.811C253.371 233.65 252.435 232.691 251.257 232.077C250.078 231.463 248.721 231.229 247.39 231.408C247.384 231.406 247.379 231.402 247.374 231.397C247.37 231.392 247.367 231.387 247.365 231.381C247.363 231.375 247.362 231.368 247.363 231.362C247.364 231.356 247.366 231.35 247.37 231.345V231.345Z" fill="#263238"/>
<path d="M257.176 223.098C259.758 222.425 263.004 222.559 265.164 224.171C265.251 224.228 265.164 224.343 265.07 224.324C262.494 223.756 259.861 223.45 257.216 223.409C257.176 223.408 257.138 223.393 257.109 223.368C257.08 223.342 257.061 223.307 257.056 223.27C257.051 223.233 257.06 223.195 257.082 223.163C257.104 223.132 257.138 223.109 257.176 223.098Z" fill="#263238"/>
<path d="M255.378 224.33C257.96 223.657 261.207 223.784 263.366 225.396C263.454 225.46 263.366 225.574 263.266 225.555C260.69 224.984 258.057 224.677 255.412 224.641C255.372 224.638 255.335 224.622 255.307 224.596C255.278 224.57 255.261 224.536 255.257 224.498C255.253 224.461 255.263 224.424 255.285 224.393C255.307 224.362 255.34 224.34 255.378 224.33Z" fill="#263238"/>
<path d="M253.574 225.561C256.163 224.888 259.402 225.015 261.569 226.628C261.649 226.691 261.569 226.806 261.468 226.787C258.892 226.215 256.259 225.909 253.614 225.872C253.574 225.871 253.536 225.856 253.507 225.831C253.477 225.805 253.459 225.771 253.454 225.733C253.449 225.696 253.458 225.658 253.48 225.626C253.502 225.595 253.535 225.572 253.574 225.561Z" fill="#263238"/>
<path d="M251.776 226.793C254.359 226.12 257.605 226.247 259.765 227.86C259.852 227.923 259.765 228.031 259.671 228.018C257.095 227.448 254.462 227.141 251.817 227.104C251.777 227.103 251.739 227.088 251.709 227.062C251.68 227.037 251.661 227.002 251.657 226.965C251.652 226.927 251.661 226.889 251.683 226.858C251.705 226.827 251.738 226.803 251.776 226.793Z" fill="#263238"/>
<path d="M281.329 222.368C284.24 221.663 285.407 225.942 282.489 226.653C279.571 227.364 278.411 223.073 281.329 222.368Z" fill="#263238"/>
<path d="M253.769 220.787C255.64 222.152 258.068 222.692 260.241 223.46C260.291 223.472 260.344 223.472 260.394 223.462C260.445 223.451 260.492 223.43 260.532 223.399C260.573 223.368 260.605 223.329 260.627 223.285C260.648 223.24 260.659 223.192 260.657 223.143C260.668 223.142 260.679 223.14 260.689 223.135C260.698 223.129 260.706 223.122 260.712 223.113C260.718 223.105 260.722 223.095 260.723 223.084C260.724 223.074 260.722 223.063 260.717 223.054C259.911 220.844 258.505 218.873 256.639 217.34C255.539 216.47 253.608 215.874 252.575 217.226C251.542 218.578 252.682 219.987 253.769 220.787ZM253.098 218.781C252.629 216.045 255.734 217.473 256.519 218.146C257.02 218.589 257.489 219.064 257.921 219.568C258.839 220.603 259.584 221.74 260.382 222.844C259.336 222.412 258.256 222.07 257.196 221.676C255.922 221.2 253.353 220.292 253.091 218.781H253.098Z" fill="#263238"/>
<path d="M269.497 219.226C268.86 217.677 266.814 217.803 265.533 218.388C263.327 219.43 261.449 221.001 260.087 222.946C260.08 222.954 260.075 222.964 260.073 222.974C260.07 222.984 260.071 222.995 260.074 223.005C260.078 223.015 260.084 223.024 260.092 223.032C260.1 223.039 260.109 223.044 260.12 223.047C260.08 223.231 260.201 223.473 260.435 223.447C262.749 223.231 265.245 223.263 267.411 222.381C268.679 221.867 270.107 220.698 269.497 219.226ZM263.863 222.438C262.736 222.571 261.603 222.654 260.509 222.825C261.576 221.936 262.595 221.016 263.749 220.229C264.301 219.844 264.879 219.494 265.479 219.181C266.418 218.711 269.805 218.064 268.625 220.603C267.948 222 265.218 222.279 263.863 222.438V222.438Z" fill="#263238"/>
<path d="M256.458 216.439L285.447 209.239C285.447 209.239 257.692 157.55 257.947 154.008C258.148 150.833 278.277 123.103 279.41 117.91C281.228 109.416 276.855 101.823 272.616 97.1189L242.634 105.118C242.634 105.118 245.022 110.025 249.409 113.123C249.409 113.123 230.568 142.904 230.085 152.7C229.602 162.496 256.458 216.439 256.458 216.439Z" fill="#AED3E6"/>
<path d="M255.908 211.334C260.107 210.192 258.886 210.465 263.105 209.366C265.171 208.833 278.739 205.322 280.752 205.138C280.799 205.138 280.819 205.208 280.752 205.221C278.9 206.008 265.271 209.296 263.199 209.792C258.953 210.814 260.16 210.477 255.908 211.449C255.892 211.449 255.877 211.443 255.865 211.432C255.854 211.421 255.848 211.407 255.848 211.391C255.848 211.376 255.854 211.362 255.865 211.351C255.877 211.34 255.892 211.334 255.908 211.334V211.334Z" fill="#263238"/>
<path d="M244.761 111.949C247.632 112.961 250.408 114.201 253.058 115.657C253.079 115.667 253.095 115.684 253.103 115.706C253.11 115.727 253.109 115.751 253.098 115.771C253.087 115.791 253.069 115.806 253.046 115.814C253.023 115.821 252.999 115.819 252.977 115.809C250.18 114.66 247.323 113.549 244.6 112.254C244.385 112.152 244.54 111.879 244.761 111.949Z" fill="#263238"/>
<path d="M248.282 111.251C248.495 111.749 248.674 112.26 248.819 112.781C248.976 113.187 249.046 113.618 249.027 114.05C249.027 114.126 248.899 114.133 248.852 114.05C248.598 113.672 248.408 113.259 248.289 112.825C248.108 112.355 247.913 111.885 247.752 111.403C247.638 111.098 248.168 110.946 248.282 111.251Z" fill="#263238"/>
<path d="M248.275 108.68C248.161 108.242 248.04 107.81 247.913 107.378C247.785 106.946 247.611 106.483 247.517 106.026C247.517 105.956 247.383 105.988 247.403 106.058C247.517 106.496 247.571 106.953 247.651 107.397C247.732 107.842 247.826 108.286 247.92 108.73C248.097 109.56 248.32 110.38 248.59 111.187C248.118 111.156 247.659 111.023 247.249 110.8C246.847 110.489 246.56 110.064 246.431 109.587C246.243 109.092 246.075 108.591 245.881 108.102C245.639 107.566 245.446 107.012 245.304 106.445C245.304 106.369 245.17 106.407 245.183 106.477C245.415 107.675 245.772 108.849 246.25 109.981C246.457 110.419 246.612 110.876 247.075 111.098C247.584 111.3 248.132 111.401 248.684 111.397C248.699 111.405 248.717 111.41 248.735 111.409C248.752 111.409 248.769 111.404 248.784 111.394C248.799 111.385 248.811 111.372 248.818 111.357C248.825 111.341 248.828 111.324 248.825 111.308C248.689 110.424 248.505 109.546 248.275 108.68V108.68Z" fill="#263238"/>
<path d="M248.778 114.069C247.638 116.012 246.337 117.878 245.116 119.783C243.895 121.688 242.795 123.541 241.682 125.446C239.442 129.293 237.362 133.242 235.464 137.254C234.525 139.239 233.631 141.247 232.781 143.279C231.898 145.3 231.169 147.379 230.602 149.5C230.068 151.617 229.968 153.811 230.306 155.963C230.725 158.156 231.317 160.316 232.077 162.426C233.633 167.282 235.524 172.037 237.738 176.659C237.812 176.811 238.08 176.691 238.02 176.532C236.437 172.304 234.8 168.095 233.372 163.835C231.997 159.683 230.36 155.379 231.118 150.973C231.541 148.854 232.178 146.779 233.023 144.777C233.837 142.72 234.704 140.686 235.625 138.676C237.443 134.715 239.489 130.855 241.581 127.014C242.748 124.862 243.976 122.741 245.163 120.596C246.35 118.45 247.517 116.221 248.852 114.139C248.919 114.057 248.839 114.006 248.778 114.069Z" fill="#263238"/>
<path d="M270.61 109.905C270.067 109.816 269.269 109.994 266.928 109.841C266.277 109.79 265.631 109.69 264.996 109.543C264.351 109.45 263.738 109.215 263.206 108.857C262.355 108.096 261.662 107.192 261.16 106.191C260.533 105.159 260.052 104.053 259.731 102.902C259.731 102.833 259.604 102.871 259.617 102.902C259.745 103.537 259.812 104.204 259.993 104.845C260.165 105.45 260.39 106.04 260.664 106.61C261.094 107.738 261.816 108.746 262.763 109.543C263.823 110.298 265.305 110.444 266.586 110.527C267.331 110.578 270.248 110.527 270.61 110.108C270.718 110.07 270.711 109.917 270.61 109.905Z" fill="#263238"/>
<path d="M278.25 203.316C274.592 196.282 271.015 189.204 267.518 182.081C264.022 174.958 260.617 167.786 257.303 160.566C256.394 158.87 255.668 157.092 255.137 155.258C254.687 153.246 255.345 151.449 256.243 149.621C257.916 146.317 259.786 143.106 261.844 140.003C263.856 136.879 266.029 133.826 268.156 130.76C270.354 127.756 272.37 124.636 274.192 121.415C275.949 118.385 276.697 114.924 276.338 111.486C275.869 108.019 274.286 104.769 272.582 101.703C272.133 100.896 271.67 100.096 271.241 99.2901C271.207 99.2266 271.107 99.2901 271.147 99.3473C273.038 102.522 274.856 105.924 275.741 109.505C276.198 111.286 276.338 113.127 276.157 114.952C275.922 116.794 275.373 118.588 274.534 120.266C272.958 123.548 270.758 126.563 268.685 129.572C266.613 132.582 264.406 135.692 262.34 138.803C260.24 141.918 258.313 145.135 256.565 148.44C255.801 149.913 254.962 151.456 254.775 153.113C254.573 154.935 255.264 156.674 256.009 158.318C259.228 165.473 262.622 172.558 266.07 179.617C269.517 186.677 273.092 193.743 276.721 200.752L278.062 203.399C278.136 203.526 278.304 203.424 278.25 203.316Z" fill="#263238"/>
<path d="M241.97 44.1217C242.641 41.2205 246.048 34.6561 252.776 35.9385C262.38 37.7732 263.769 55.295 268.551 60.7484C277.21 70.6393 277.492 80.4287 270.395 81.9967C262.441 83.7489 254.701 75.6483 254.969 58.1899C255.15 47.2579 251.897 42.414 249.603 42.7377C247.309 43.0615 246.041 45.8231 246.041 45.8231L241.97 44.1217Z" fill="#263238"/>
<path d="M242.292 43.0362C242.768 41.6829 243.414 40.389 244.217 39.1827C245.024 37.9467 246.093 36.883 247.356 36.0592C248.664 35.2215 250.218 34.797 251.797 34.8467C253.361 34.8889 254.892 35.2898 256.257 36.0148C257.587 36.7682 258.731 37.7836 259.611 38.9922C260.479 40.1805 261.201 41.4584 261.764 42.8013C262.83 45.4649 263.576 48.2332 263.99 51.0543C263.26 48.3245 262.314 45.6506 261.16 43.0553C260.562 41.7892 259.827 40.585 258.967 39.462C258.134 38.3479 257.059 37.4151 255.814 36.7258C254.569 36.0568 253.174 35.6762 251.743 35.6148C250.327 35.5549 248.925 35.9 247.719 36.6052C246.483 37.3427 245.41 38.2999 244.56 39.4239C244.115 39.9851 243.705 40.5702 243.332 41.1761C242.957 41.7665 242.614 42.395 242.292 43.0362Z" fill="#263238"/>
<path d="M254.935 52.1653C255.036 53.8984 254.935 55.6379 254.895 57.371C254.855 59.1042 254.781 60.831 254.774 62.5577C254.768 64.2845 254.828 66.005 255.016 67.7127C255.169 69.4128 255.497 71.0946 255.995 72.7344C256.466 74.364 257.26 75.8938 258.336 77.2418C259.465 78.5547 260.827 79.6717 262.36 80.543C263.898 81.4217 265.633 81.9458 267.424 82.073C268.321 82.1385 269.223 82.0937 270.107 81.9397C270.562 81.8644 271.011 81.7562 271.449 81.6159C271.885 81.4888 272.3 81.3051 272.683 81.0699C271.936 81.5871 271.084 81.9523 270.181 82.1428C269.281 82.3647 268.354 82.4736 267.424 82.4666C266.486 82.4504 265.553 82.3246 264.647 82.092C263.744 81.8515 262.873 81.5128 262.052 81.0826C261.229 80.6579 260.452 80.1582 259.731 79.5907L259.201 79.1527L258.691 78.7019C258.346 78.3935 258.023 78.0626 257.726 77.7116C256.572 76.2956 255.716 74.6836 255.204 72.9629C254.275 69.5643 253.916 66.0491 254.137 62.545C254.198 60.8056 254.338 59.0724 254.499 57.3456C254.66 55.6189 254.875 53.8984 254.935 52.1653Z" fill="#263238"/>
<path d="M241.421 44.1727C241.313 43.3665 241.83 42.2682 242.366 42.0714C242.903 41.8746 247.182 43.1824 247.631 44.1473C248.081 45.1123 246.35 46.1534 246.35 46.1534L241.421 44.1727Z" fill="#FFC727"/>
<path d="M246.545 72.7661C243.909 76.3276 224.847 91.0624 214.451 91.6084C209.756 91.856 191.391 89.9578 187.3 88.3643C182.276 86.409 192.209 74.6389 195.348 75.1341C199.279 75.7689 213.217 77.1592 215.993 77.2291C220.447 77.3433 234.103 70.2457 243.298 68.3983C248.054 67.4524 248.584 70.0235 246.545 72.7661Z" fill="#EB9481"/>
<path d="M246.337 73.4453C243.426 78.2448 233.151 86.4851 233.151 86.4851L231.4 83.4252L225.605 73.3311C225.605 73.3311 235.344 69.6553 241.803 67.8714C242.561 67.6511 243.338 67.4897 244.124 67.3889C248.296 66.881 248.839 69.3125 246.337 73.4453Z" fill="#DBDBDB"/>
<path d="M246.337 73.439C243.426 78.2448 233.15 86.4851 233.15 86.4851L231.4 83.4251L230.206 81.3428L225.598 73.331C225.598 73.331 235.344 69.6553 241.803 67.865C242.562 67.6508 243.338 67.4916 244.124 67.3889C244.211 67.3889 244.291 67.3889 244.372 67.3889C248.316 66.9826 248.798 69.395 246.337 73.439Z" fill="#072422"/>
<path d="M234.19 70.8425C234.414 71.7187 234.414 72.6327 234.19 73.5089C233.967 72.6327 233.967 71.7187 234.19 70.8425V70.8425Z" fill="white"/>
<path d="M232.842 76.2324C232.382 76.3414 231.908 76.3947 231.434 76.3911C230.961 76.3983 230.489 76.3449 230.032 76.2324C230.489 76.1198 230.961 76.0664 231.434 76.0736C231.908 76.07 232.382 76.1233 232.842 76.2324Z" fill="white"/>
<path d="M247.081 68.7794C246.158 68.9911 245.194 68.9911 244.271 68.7794C245.194 68.5677 246.158 68.5677 247.081 68.7794V68.7794Z" fill="white"/>
<path d="M239.321 74.1946C240.147 74.6632 240.838 75.3173 241.333 76.0991C240.925 75.8728 240.55 75.5952 240.22 75.2738C239.871 74.9535 239.569 74.5905 239.321 74.1946V74.1946Z" fill="white"/>
<path d="M233.908 80.5493C234.316 80.7776 234.69 81.055 235.022 81.3746C235.361 81.687 235.655 82.0415 235.894 82.4285C235.486 82.2002 235.112 81.9227 234.78 81.6032C234.444 81.2878 234.151 80.9337 233.908 80.5493V80.5493Z" fill="white"/>
<path d="M234.941 84.2378C233.969 82.3714 229.676 74.8802 228.637 73.3184C228.563 73.2105 228.476 73.2296 228.529 73.3502C230.433 77.0941 232.546 80.7391 234.861 84.2696C234.888 84.314 234.968 84.2823 234.941 84.2378Z" fill="#263238"/>
<path d="M246.337 73.4391C243.426 78.2449 233.151 86.4852 233.151 86.4852L231.4 83.4253L230.206 81.343C235.78 76.1372 242.494 69.7316 244.372 67.3763C248.316 66.9827 248.799 69.3951 246.337 73.4391Z" fill="#A6A6A6"/>
<path d="M236.833 95.5761L238.355 111.447C240.406 111.363 242.451 111.17 244.479 110.87C249.828 110.107 255.129 109.062 260.355 107.74C265.54 106.47 271.616 104.712 278.565 102.375C278.565 102.375 262.85 75.5467 252.004 68.1444C251.756 67.9729 251.515 67.8142 251.267 67.6682L251.126 67.5793C246.196 64.6273 241.736 66.9445 239.267 70.2393C238.644 71.0583 232.607 84.0473 232.909 88.4023C233.184 92.2305 236.833 95.5761 236.833 95.5761Z" fill="#072422"/>
<path d="M245.552 78.5876C245.776 79.4617 245.776 80.3736 245.552 81.2477C245.434 80.8144 245.378 80.3682 245.384 79.9208C245.38 79.4715 245.437 79.0235 245.552 78.5876V78.5876Z" fill="white"/>
<path d="M249.375 93.8748C249.494 94.3101 249.55 94.7585 249.543 95.2079C249.554 95.6576 249.497 96.1064 249.375 96.5411C249.152 95.665 249.152 94.7509 249.375 93.8748V93.8748Z" fill="white"/>
<path d="M261.099 84.4346C261.323 85.3108 261.323 86.2247 261.099 87.1009C260.876 86.2247 260.876 85.3107 261.099 84.4346V84.4346Z" fill="white"/>
<path d="M239.623 91.8496C239.846 92.7258 239.846 93.6398 239.623 94.516C239.399 93.6398 239.399 92.7258 239.623 91.8496V91.8496Z" fill="white"/>
<path d="M254.385 81.6412C253.925 81.7533 253.452 81.8067 252.977 81.7999C252.502 81.8099 252.028 81.7565 251.568 81.6412C252.494 81.4295 253.46 81.4295 254.385 81.6412V81.6412Z" fill="white"/>
<path d="M264.366 93.4813C263.44 93.693 262.475 93.693 261.549 93.4813C262.475 93.2696 263.44 93.2696 264.366 93.4813V93.4813Z" fill="white"/>
<path d="M249.194 102.845C248.734 102.957 248.261 103.011 247.786 103.004C247.313 103.011 246.841 102.958 246.384 102.845C246.842 102.736 247.313 102.682 247.786 102.686C248.26 102.683 248.734 102.736 249.194 102.845V102.845Z" fill="white"/>
<path d="M266.861 101.055C266.401 101.167 265.927 101.22 265.453 101.214C264.98 101.224 264.508 101.17 264.051 101.055C264.974 100.843 265.938 100.843 266.861 101.055V101.055Z" fill="white"/>
<path d="M247.081 68.7794C246.158 68.9911 245.194 68.9911 244.271 68.7794C245.194 68.5677 246.158 68.5677 247.081 68.7794V68.7794Z" fill="white"/>
<path d="M251.984 70.5061C252.392 70.7367 252.766 71.0162 253.098 71.3378C253.437 71.6502 253.731 72.0047 253.97 72.3916C253.146 71.92 252.456 71.2665 251.958 70.4871L251.984 70.5061Z" fill="white"/>
<path d="M266.64 85.3552C267.046 85.5874 267.42 85.8668 267.753 86.1869C268.092 86.4997 268.385 86.8541 268.625 87.2407C267.802 86.7691 267.111 86.1156 266.613 85.3362L266.64 85.3552Z" fill="white"/>
<path d="M243.198 86.9741C243.607 87.203 243.981 87.4827 244.311 87.8058C244.651 88.1197 244.946 88.4739 245.19 88.8596C244.368 88.3856 243.679 87.7326 243.178 86.9551L243.198 86.9741Z" fill="white"/>
<path d="M256.646 97.6711C257.467 98.1451 258.157 98.7981 258.658 99.5757C257.837 99.1017 257.147 98.4487 256.646 97.6711V97.6711Z" fill="white"/>
<path d="M239.321 74.1946C240.147 74.6632 240.838 75.3173 241.333 76.0991C240.925 75.8728 240.55 75.5952 240.22 75.2738C239.871 74.9535 239.569 74.5905 239.321 74.1946V74.1946Z" fill="white"/>
<path d="M238.107 84.4346C238.352 84.05 238.647 83.6959 238.986 83.3807C239.322 83.0509 239.703 82.7648 240.119 82.53C239.621 83.3094 238.93 83.9629 238.107 84.4346V84.4346Z" fill="white"/>
<path d="M269.953 95.7603C270.451 94.9808 271.142 94.3273 271.965 93.8557C271.728 94.2437 271.434 94.5984 271.093 94.9096C270.755 95.2396 270.371 95.5256 269.953 95.7603V95.7603Z" fill="white"/>
<path d="M239.864 100.306C240.363 99.5265 241.053 98.873 241.876 98.4014C241.637 98.788 241.344 99.1424 241.004 99.4552C240.666 99.7852 240.282 100.071 239.864 100.306V100.306Z" fill="white"/>
<path d="M257.826 78.4226C258.07 78.0369 258.365 77.6827 258.705 77.3688C259.035 77.0457 259.41 76.766 259.818 76.5371C259.576 76.9239 259.281 77.2784 258.94 77.591C258.608 77.9125 258.234 78.192 257.826 78.4226V78.4226Z" fill="white"/>
<path d="M253.373 106.927C253.616 106.542 253.911 106.187 254.251 105.873C254.581 105.55 254.956 105.271 255.365 105.042C255.123 105.429 254.827 105.783 254.486 106.096C254.154 106.417 253.78 106.697 253.373 106.927V106.927Z" fill="white"/>
<path d="M253.386 89.7673C253.63 89.3816 253.925 89.0274 254.265 88.7135C254.595 88.3921 254.97 88.1144 255.378 87.8882C254.88 88.6676 254.19 89.3211 253.366 89.7927L253.386 89.7673Z" fill="white"/>
<path d="M248.047 67.2938C247.954 67.9287 245.284 72.0488 242.373 72.1567C241.421 72.1567 240.998 67.3002 240.998 67.3002L240.877 66.9446L239.221 61.9865L245.15 57.6632L246.015 57.0854C246.015 57.0854 246.371 58.4694 246.8 60.1962L246.86 60.4438C246.86 60.539 246.914 60.6343 246.934 60.7231L247.135 61.5103C247.182 61.7071 247.229 61.9039 247.269 62.1452L247.41 62.78C247.732 64.2689 247.945 65.7771 248.047 67.2938V67.2938Z" fill="#EB9481"/>
<path d="M246.826 60.2152C246.417 61.6801 245.675 63.0428 244.652 64.2083C243.629 65.3738 242.35 66.3142 240.904 66.9637L239.247 62.0055L245.176 57.6822L246.041 57.1045C246.041 57.1045 246.37 58.4885 246.826 60.2152Z" fill="#263238"/>
<path d="M231.869 54.5144C231.822 63.6435 237.597 64.6719 239.677 64.71C241.561 64.71 247.994 64.5132 249.067 55.4349C250.14 46.3566 245.639 43.4553 241.327 43.2204C237.014 42.9855 231.916 45.3853 231.869 54.5144Z" fill="#EB9481"/>
<path d="M248.51 56.0761C246.934 56.2285 246.498 53.0987 246.498 53.0987C246.498 53.0987 243.285 53.1812 242.111 48.8325C242.236 50.1405 242.763 51.3853 243.627 52.413C243.627 52.413 237.946 51.9813 235.444 47.5437C235.444 47.5437 236.457 49.8102 237.369 50.6037C235.917 50.2296 234.642 49.399 233.754 48.2484C233.754 48.2484 232.828 50.864 232.084 51.5941C232.084 51.5941 230.984 46.9978 233.003 44.6107C237.255 39.5701 244.237 43.9759 244.237 43.9759C244.237 43.9759 248.141 44.5346 249.536 47.3025C251.682 51.5242 248.51 56.0761 248.51 56.0761Z" fill="#263238"/>
<path d="M247.497 56.1268C247.497 56.1268 249.349 53.1303 250.777 53.7271C252.206 54.3238 250.979 58.5709 249.436 59.2566C249.245 59.3591 249.035 59.4241 248.817 59.4475C248.6 59.471 248.379 59.4526 248.169 59.3932C247.959 59.3339 247.764 59.235 247.596 59.1024C247.427 58.9698 247.289 58.8063 247.189 58.6217L247.497 56.1268Z" fill="#EB9481"/>
<path d="M250.395 54.9397C250.395 54.9397 250.428 54.9397 250.395 54.9778C249.902 55.2606 249.478 55.6377 249.149 56.0849C248.82 56.532 248.593 57.0393 248.483 57.5743C248.538 57.4602 248.619 57.359 248.721 57.2781C248.822 57.1972 248.942 57.1386 249.07 57.1064C249.198 57.0743 249.332 57.0694 249.463 57.0921C249.593 57.1148 249.717 57.1646 249.824 57.2378C249.858 57.2378 249.824 57.3013 249.824 57.295C249.623 57.2508 249.411 57.2675 249.22 57.3426C249.029 57.4177 248.867 57.5476 248.758 57.714C248.571 57.991 248.418 58.287 248.302 58.5964C248.255 58.698 248.074 58.6599 248.101 58.5456C247.92 57.168 248.872 55.1936 250.395 54.9397Z" fill="#263238"/>
<path d="M233.077 52.6921C233.305 52.654 233.506 52.5906 233.747 52.5334C233.984 52.5083 234.206 52.4101 234.378 52.2541C234.425 52.198 234.45 52.1287 234.45 52.0573C234.45 51.9859 234.425 51.9165 234.378 51.8605C234.264 51.7642 234.125 51.6986 233.975 51.6707C233.825 51.6428 233.67 51.6535 233.526 51.7018C233.217 51.7521 232.941 51.9136 232.755 52.1525C232.718 52.2061 232.697 52.2682 232.695 52.3321C232.693 52.396 232.709 52.4592 232.742 52.5149C232.776 52.5705 232.824 52.6165 232.883 52.6478C232.942 52.679 233.009 52.6944 233.077 52.6921V52.6921Z" fill="#263238"/>
<path d="M239.368 53.4034C239.14 53.4034 238.932 53.3335 238.698 53.2954C238.452 53.291 238.216 53.2082 238.027 53.0605C237.978 53.0055 237.951 52.9358 237.951 52.8637C237.951 52.7917 237.978 52.7219 238.027 52.6669C238.131 52.5619 238.264 52.4857 238.41 52.4466C238.557 52.4074 238.712 52.4068 238.859 52.4447C239.171 52.4767 239.46 52.6169 239.67 52.8383C239.714 52.8906 239.74 52.9535 239.747 53.0197C239.754 53.0859 239.741 53.1526 239.71 53.2119C239.678 53.2713 239.629 53.3208 239.568 53.3547C239.508 53.3887 239.439 53.4055 239.368 53.4034V53.4034Z" fill="#263238"/>
<path d="M238.107 55.2698C238.107 55.2698 238.154 55.2698 238.154 55.3206C238.154 55.9554 238.241 56.6665 238.825 56.8633V56.9013C238.107 56.8125 237.966 55.8665 238.107 55.2698Z" fill="#263238"/>
<path d="M238.664 54.5969C239.723 54.508 239.844 56.5014 238.858 56.6093C237.872 56.7173 237.772 54.6794 238.664 54.5969Z" fill="#263238"/>
<path d="M239.086 54.6919C239.281 54.7935 239.475 54.9839 239.703 54.9966C239.931 55.0093 240.146 54.7871 240.307 54.5713H240.34C240.34 54.9522 240.233 55.3585 239.804 55.441C239.375 55.5236 239.133 55.1871 238.972 54.8062C238.952 54.7554 239.012 54.6475 239.086 54.6919Z" fill="#263238"/>
<path d="M234.412 55.2952C234.412 55.2952 234.358 55.3269 234.365 55.3523C234.425 55.9872 234.365 56.7045 233.801 56.9458C233.801 56.9458 233.801 56.9839 233.801 56.9458C234.532 56.8378 234.573 55.8665 234.412 55.2952Z" fill="#263238"/>
<path d="M233.774 54.6794C232.708 54.6794 232.761 56.6856 233.774 56.6983C234.787 56.711 234.673 54.6921 233.774 54.6794Z" fill="#263238"/>
<path d="M233.338 54.8191C233.17 54.9334 233.009 55.1302 232.808 55.1492C232.607 55.1683 232.392 54.9524 232.238 54.7493H232.205C232.205 55.1365 232.352 55.5365 232.748 55.6C233.144 55.6635 233.358 55.327 233.419 54.9651C233.466 54.8826 233.412 54.7747 233.338 54.8191Z" fill="#263238"/>
<path d="M238.925 60.3738C238.784 60.5326 238.65 60.7484 238.409 60.7928C238.163 60.8086 237.916 60.7762 237.684 60.6976C237.684 60.6976 237.644 60.6976 237.684 60.7357C237.791 60.8484 237.927 60.932 238.079 60.9778C238.232 61.0236 238.394 61.0299 238.55 60.996C238.686 60.9471 238.803 60.8602 238.885 60.7468C238.968 60.6334 239.012 60.4989 239.012 60.3611C238.999 60.3548 238.945 60.3484 238.925 60.3738Z" fill="#263238"/>
<path d="M235.518 58.063C235.518 58.063 235.424 59.0026 235.444 59.447C236.347 59.4134 237.25 59.501 238.127 59.7073C238.335 59.7644 238.322 59.5994 238.087 59.4788C237.396 59.1231 236.609 58.9706 235.827 59.0407C235.793 58.9201 236.001 57.5933 235.927 57.5933C235.567 57.6361 235.215 57.7258 234.881 57.8599C235.015 55.8982 235.484 53.9746 235.585 52.0129C235.585 51.9978 235.579 51.9833 235.567 51.9725C235.556 51.9618 235.541 51.9558 235.525 51.9558C235.509 51.9558 235.493 51.9618 235.482 51.9725C235.471 51.9833 235.464 51.9978 235.464 52.0129C234.897 54.0637 234.547 56.1626 234.418 58.2789C234.391 58.5138 235.337 58.1456 235.518 58.063Z" fill="#263238"/>
<path d="M236.518 59.4408C236.854 59.8588 237.325 60.1619 237.859 60.3042C238.671 60.3803 238.724 59.6693 237.819 59.3455C237.384 59.2671 236.935 59.3 236.518 59.4408V59.4408Z" fill="#263238"/>
<path d="M237.872 60.3105C237.566 60.2649 237.28 60.1371 237.047 59.9423C237.195 59.6947 237.571 59.4153 238.456 59.8153C238.597 60.101 238.389 60.3549 237.872 60.3105Z" fill="#FF99BA"/>
<path d="M246.632 66.2146C247.813 66.2146 249.798 66.4939 252.481 68.4302C252.481 68.4302 246.887 72.6837 241.682 72.69C239.824 72.69 239.268 70.2332 239.268 70.2332C239.268 70.2332 241.769 66.2527 246.632 66.2146Z" fill="#EB9481"/>
<path d="M335 249H313.087C297.164 249 287.426 238.582 285.675 219.67C284.81 210.35 284.28 199.057 283.723 187.109C282.006 150.395 279.652 100.135 264.554 100.135H247.202V96.3254H264.554C283.495 96.3254 285.655 142.396 287.741 186.95C288.297 198.86 288.827 210.109 289.686 219.327C290.779 231.123 295.722 245.185 313.087 245.185H335V249Z" fill="#1A79E8"/>
<path opacity="0.2" d="M259.946 96.3127L259.087 100.122H247.202V96.3127H259.946Z" fill="black"/>
<path d="M214.498 75.4263H207.482V121.827H214.498V75.4263Z" fill="#1A79E8"/>
<path d="M207.488 78.8542H180.814V117.923H207.488V78.8542Z" fill="#1A79E8"/>
<path opacity="0.2" d="M207.482 78.8542V117.923H200.855L197.884 78.8542H207.482Z" fill="black"/>
<path d="M160.343 85.863H180.807V91.7036H160.343C159.642 91.7036 158.97 91.4401 158.475 90.971C157.979 90.5019 157.701 89.8657 157.701 89.2023V88.3707C157.7 88.0417 157.768 87.7157 157.9 87.4115C158.032 87.1073 158.227 86.8308 158.472 86.5979C158.718 86.365 159.009 86.1801 159.33 86.054C159.652 85.9279 159.996 85.863 160.343 85.863V85.863Z" fill="#DBDBDB"/>
<path d="M180.807 85.8694H173.624V91.7036H180.807V85.8694Z" fill="#A6A6A6"/>
<path d="M160.343 105.067H180.807V110.908H160.343C159.642 110.908 158.97 110.644 158.475 110.175C157.979 109.706 157.701 109.07 157.701 108.406V107.575C157.7 107.246 157.768 106.92 157.9 106.616C158.032 106.311 158.227 106.035 158.472 105.802C158.718 105.569 159.009 105.384 159.33 105.258C159.652 105.132 159.996 105.067 160.343 105.067V105.067Z" fill="#DBDBDB"/>
<path d="M180.807 105.073H173.624V110.908H180.807V105.073Z" fill="#A6A6A6"/>
<path d="M255.955 94.6621H235.116V102.452H255.955V94.6621Z" fill="#FFC727"/>
<path d="M255.955 94.6621H235.116V102.452H255.955V94.6621Z" fill="#1A79E8"/>
<path opacity="0.2" d="M242.433 94.6621L241.749 102.452H235.116V94.6621H242.433Z" fill="black"/>
<path d="M214.498 80.3208H230.991C232.085 80.3208 233.134 80.7321 233.907 81.4643C234.681 82.1965 235.116 83.1896 235.116 84.2251V112.546C235.116 113.581 234.681 114.574 233.907 115.306C233.134 116.039 232.085 116.45 230.991 116.45H214.498V80.3208Z" fill="#1A79E8"/>
<path opacity="0.2" d="M223.271 80.3271L220.299 116.45H214.504V80.3271H223.271Z" fill="black"/>
<g opacity="0.2">
<path opacity="0.2" d="M221.735 87.6279H220.42V109.149H221.735V87.6279Z" fill="black"/>
<path opacity="0.2" d="M225.464 87.6279H224.149V109.149H225.464V87.6279Z" fill="black"/>
<path opacity="0.2" d="M229.193 87.6279H227.878V109.149H229.193V87.6279Z" fill="black"/>
</g>
<path d="M254.023 72.8677C256.331 78.9876 253.024 101.436 249.114 106.191C243.305 113.231 231.829 119.713 227.443 121.738C225.524 122.621 216.932 109.619 218.804 108.406C222.828 105.797 235.646 99.5694 236.732 98.3314C237.819 97.0935 243.667 85.2091 246.008 78.5178C249.154 69.5411 252.863 69.7633 254.023 72.8677Z" fill="#EB9481"/>
<path d="M227.429 121.776C221.339 125.065 209.266 124.582 207.589 124.106C206.181 123.706 205.456 123.471 205.456 123.471C202.914 122.798 202.23 121.465 202.23 121.465C202.23 121.465 199.051 121.503 198.702 119.688C198.313 117.65 202.854 117.993 205.476 116.736C211.513 113.86 219.173 108.178 220.816 107.181L227.429 121.776Z" fill="#EB9481"/>
<path d="M214.015 117.923C212.266 118.783 210.458 119.53 208.602 120.158C206.53 120.73 204.416 121.154 202.277 121.427C202.21 121.427 202.217 121.529 202.277 121.523C206.475 121.419 210.562 120.229 214.095 118.082C214.176 118.012 214.102 117.878 214.015 117.923Z" fill="#263238"/>
<path d="M216.376 121.097C214.591 121.802 211.452 123.002 205.449 123.421C205.449 123.421 205.449 123.452 205.449 123.459C209.259 123.704 213.065 122.941 216.443 121.256C216.55 121.218 216.496 121.053 216.376 121.097Z" fill="#263238"/>
<path d="M212.485 112.85C213.109 112.177 212.74 111.866 211.09 112.146C209.44 112.425 203.169 114.882 202.451 112.736C201.734 110.59 210.641 107.257 213.424 106.984C215.939 106.861 218.461 106.931 220.963 107.194C219.367 108.172 215.584 110.895 212.485 112.85Z" fill="#EB9481"/>
<path d="M247.551 74.404C251.609 66.3224 255.311 68.4682 255.666 76.4546C255.786 82.0072 255.522 87.5613 254.875 93.0812L240.166 89.088C240.166 89.088 244.955 79.578 247.551 74.404Z" fill="#072422"/>
<path d="M251.213 69.7C252.036 70.1716 252.727 70.8251 253.225 71.6045C252.817 71.3778 252.442 71.1002 252.112 70.7792C251.765 70.4573 251.463 70.0946 251.213 69.7V69.7Z" fill="white"/>
<path d="M245.552 78.5876C245.776 79.4617 245.776 80.3736 245.552 81.2477C245.434 80.8144 245.378 80.3682 245.384 79.9208C245.38 79.4715 245.437 79.0235 245.552 78.5876V78.5876Z" fill="white"/>
<path d="M254.385 81.6412C253.925 81.7533 253.452 81.8067 252.977 81.7999C252.502 81.8099 252.028 81.7565 251.568 81.6412C252.494 81.4295 253.46 81.4295 254.385 81.6412V81.6412Z" fill="white"/>
<path d="M243.198 86.9741C243.607 87.203 243.981 87.4827 244.311 87.8058C244.651 88.1197 244.946 88.4739 245.19 88.8596C244.368 88.3856 243.679 87.7326 243.178 86.9551L243.198 86.9741Z" fill="white"/>
<path d="M253.386 89.7673C253.63 89.3816 253.925 89.0274 254.265 88.7135C254.595 88.3921 254.97 88.1144 255.378 87.8882C254.88 88.6676 254.19 89.3211 253.366 89.7927L253.386 89.7673Z" fill="white"/>
<path d="M246.156 76.8672C245.606 77.9274 245.029 78.9749 244.452 80.0414C244.553 79.5463 244.633 79.0447 244.693 78.5432C244.693 78.5432 244.66 78.5115 244.653 78.5432C244.573 78.9368 244.472 79.3304 244.392 79.724C244.358 79.9145 244.318 80.1049 244.278 80.2954C244.278 80.3335 244.278 80.3779 244.278 80.416C243.828 81.235 243.386 82.0476 242.936 82.8792C242.426 83.8632 241.95 84.8599 241.467 85.863C240.984 86.866 240.535 88.0723 239.992 89.088C240.455 89.265 240.936 89.3989 241.427 89.488C241.554 89.5324 241.622 89.4118 241.487 89.3927C241.353 89.3737 240.253 88.961 240.24 88.9547C240.723 87.9516 241.32 86.993 241.829 86.0027C242.339 85.0123 242.862 84.0346 243.352 83.0379C244.345 81.0191 245.217 78.9432 246.203 76.918C246.203 76.8609 246.156 76.8164 246.156 76.8672Z" fill="#263238"/>
<path d="M256.277 81.6793C256.143 82.0919 255.988 82.5046 255.874 82.949C255.834 83.1204 255.787 83.2918 255.74 83.4696C255.794 82.0284 255.841 80.581 255.888 79.1399C255.68 81.4952 255.465 83.8505 255.304 86.2121C255.071 88.4738 254.961 90.7453 254.976 93.0177C254.535 92.9188 254.086 92.853 253.634 92.8209C254.121 93.0199 254.633 93.1586 255.157 93.2335C255.526 90.9481 255.553 88.4277 255.673 86.1232C255.707 85.4884 255.727 84.8535 255.754 84.1742C255.834 83.7743 255.955 83.3807 256.069 82.9871C256.183 82.5935 256.27 82.1364 256.364 81.7174C256.331 81.6666 256.284 81.6539 256.277 81.6793Z" fill="#263238"/>
<path d="M254.278 90.9672C252.206 90.2688 243.62 87.7041 241.729 87.266C241.595 87.2343 241.541 87.3041 241.675 87.3549C245.793 88.7961 249.988 90.0274 254.245 91.0434C254.298 91.0561 254.332 90.9862 254.278 90.9672Z" fill="#263238"/>
<path d="M182.169 88.7834C184.181 89.3674 183.772 86.7645 183.772 86.7645C183.772 86.7645 185.348 90.3705 187.689 90.2118C190.03 90.0531 189.305 86.9233 189.265 86.7011C189.346 86.8852 190.888 90.161 193.222 89.7737C195.556 89.3865 194.436 86.3328 194.356 86.136C194.497 86.2884 196.368 88.3136 198.085 87.6343C201.009 86.4662 196.341 81.1588 196.683 78.7464L200.795 78.8607C200.93 78.8483 201.064 78.8293 201.197 78.8035L201.352 76.8228C200.039 76.313 198.77 75.7081 197.555 75.0135C196.006 74.1882 194.51 73.4391 193.397 73.42C192.898 73.3923 192.402 73.5183 191.985 73.7792C191.568 74.0402 191.251 74.422 191.083 74.8675C191.083 74.8675 189.875 73.0645 188.024 73.3185C187.079 73.4518 186.461 75.0072 186.461 75.0072C186.163 74.6106 185.754 74.2995 185.281 74.108C184.808 73.9165 184.288 73.852 183.779 73.9216C182.477 74.1755 182.062 75.6991 182.062 75.6991C182.062 75.6991 180.412 74.785 179.171 75.4515C176.682 76.8165 177.823 87.52 182.169 88.7834Z" fill="#EB9481"/>
<path d="M197.193 78.5497L200.775 78.8607C200.91 78.8484 201.044 78.8293 201.177 78.8036C205.698 78.0291 208.515 73.128 205.201 72.7789C202.713 72.5059 200.017 75.6357 197.501 75.0072L197.193 78.5497Z" fill="#EB9481"/>
<path d="M181.974 75.9277H181.914C181.344 79.683 181.994 83.5135 183.778 86.9106C183.839 87.0185 184.047 86.9741 184.006 86.8408C182.772 83.3159 182.088 79.6396 181.974 75.9277V75.9277Z" fill="#263238"/>
<path d="M186.461 74.9564C186.461 74.912 186.387 74.912 186.381 74.9564C185.794 79.1058 186.796 83.317 189.205 86.8281C189.292 86.9487 189.5 86.9677 189.406 86.8281C187.856 84.3712 186.461 78.4417 186.461 74.9564Z" fill="#263238"/>
<path d="M194.624 86.3392C192.31 82.8856 191.391 79.0765 191.049 75.0389C191.049 74.9881 190.969 75.0008 190.955 75.0389C190.56 77.0577 191.063 79.6098 191.626 81.5651C192.118 83.3885 193.106 85.0583 194.49 86.409C194.557 86.4534 194.678 86.3963 194.624 86.3392Z" fill="#263238"/>
<path opacity="0.2" d="M98.8918 94.6621L98.2077 102.452H91.5742V94.6621H98.8918Z" fill="black"/>
<path d="M137.968 231.046C136.58 231.484 96.8258 231.377 95.3099 230.469C94.7398 230.126 94.4178 224.641 94.23 218.013C94.1831 216.578 94.1563 215.105 94.1294 213.569C94.1294 211.791 94.0758 209.988 94.0624 208.236C94.0154 200.383 94.1294 193.463 94.1294 193.463H120.013V208.236V213.569L119.879 218.013C119.879 218.013 135.077 224.501 136.647 225.669C138.216 226.837 139.356 230.615 137.968 231.046Z" fill="#AD6359"/>
<path d="M137.968 231.046C136.58 231.484 96.8259 231.377 95.31 230.469C94.7399 230.126 94.418 224.641 94.2302 218.013C94.1832 216.578 94.1564 215.105 94.1296 213.569C94.1296 211.791 94.0759 209.989 94.0625 208.236H119.999V213.569L119.865 218.013C119.865 218.013 135.064 224.501 136.633 225.669C138.203 226.837 139.357 230.615 137.968 231.046Z" fill="white"/>
<path d="M138.089 231.085C137.183 231.37 120.254 231.427 107.906 231.186C105.049 231.129 102.44 231.053 100.34 230.964C97.4362 230.837 95.4911 230.691 95.1758 230.5C94.4716 230.075 94.1429 222.025 93.9819 213.537H119.986L119.852 217.981C119.852 217.981 135.138 224.501 136.694 225.676C138.25 226.85 139.511 230.666 138.089 231.085Z" fill="#1A79E8"/>
<path d="M137.498 229.593C130.791 229.415 103.761 229.313 97.1208 229.624C97.0672 229.624 97.0672 229.663 97.1208 229.663C103.761 229.974 130.798 229.872 137.498 229.694C137.659 229.694 137.666 229.593 137.498 229.593Z" fill="#263238"/>
<path d="M120.824 216.585C118.188 216.115 114.962 216.489 112.943 218.261C112.863 218.331 112.943 218.432 113.057 218.407C115.58 217.645 118.181 217.141 120.817 216.902C120.862 216.903 120.905 216.887 120.937 216.858C120.969 216.829 120.988 216.789 120.989 216.747C120.989 216.704 120.973 216.664 120.942 216.633C120.911 216.603 120.869 216.586 120.824 216.585Z" fill="#263238"/>
<path d="M122.743 217.676C120.107 217.207 116.88 217.581 114.855 219.352C114.781 219.422 114.855 219.524 114.969 219.499C117.495 218.733 120.102 218.229 122.743 217.994C122.787 217.994 122.83 217.977 122.861 217.947C122.893 217.918 122.91 217.877 122.91 217.835C122.91 217.793 122.893 217.753 122.861 217.723C122.83 217.693 122.787 217.676 122.743 217.676Z" fill="#263238"/>
<path d="M124.627 218.769C121.991 218.292 118.765 218.667 116.746 220.445C116.666 220.508 116.746 220.616 116.854 220.591C119.376 219.827 121.978 219.322 124.614 219.086C124.658 219.088 124.702 219.073 124.734 219.044C124.767 219.015 124.787 218.976 124.788 218.934C124.79 218.891 124.774 218.85 124.744 218.819C124.714 218.789 124.672 218.77 124.627 218.769V218.769Z" fill="#263238"/>
<path d="M126.525 219.86C123.889 219.384 120.663 219.759 118.644 221.53C118.564 221.6 118.644 221.708 118.758 221.682C121.279 220.919 123.878 220.413 126.512 220.171C126.55 220.166 126.585 220.148 126.611 220.12C126.637 220.093 126.652 220.058 126.654 220.021C126.655 219.984 126.643 219.948 126.62 219.919C126.596 219.89 126.563 219.869 126.525 219.86V219.86Z" fill="#263238"/>
<path d="M125.714 210.826C124.681 209.474 122.749 210.077 121.649 210.947C119.784 212.48 118.378 214.451 117.571 216.661C117.567 216.67 117.565 216.681 117.566 216.691C117.567 216.702 117.57 216.712 117.576 216.72C117.582 216.729 117.59 216.736 117.6 216.742C117.61 216.747 117.621 216.749 117.632 216.75C117.632 216.94 117.819 217.143 118.041 217.067C120.221 216.305 122.655 215.753 124.52 214.388C125.613 213.582 126.693 212.109 125.714 210.826ZM121.099 215.27C120.04 215.67 118.96 216.013 117.913 216.445C118.674 215.312 119.496 214.216 120.375 213.163C120.805 212.657 121.274 212.182 121.777 211.741C122.561 211.068 125.674 209.633 125.197 212.375C124.936 213.88 122.367 214.794 121.099 215.27Z" fill="#263238"/>
<path d="M110.871 215.988C113.037 216.87 115.566 216.832 117.846 217.048C118.088 217.048 118.208 216.832 118.168 216.648C118.177 216.642 118.183 216.635 118.188 216.626C118.193 216.617 118.195 216.607 118.195 216.597C118.195 216.588 118.193 216.578 118.188 216.569C118.183 216.56 118.177 216.553 118.168 216.547C116.805 214.599 114.924 213.025 112.715 211.982C111.414 211.398 109.362 211.271 108.745 212.826C108.127 214.382 109.603 215.467 110.871 215.988ZM109.684 214.204C108.503 211.665 111.89 212.299 112.829 212.782C113.433 213.094 114.013 213.444 114.566 213.829C115.695 214.641 116.779 215.508 117.813 216.426C116.686 216.255 115.552 216.172 114.419 216.039C113.064 215.88 110.334 215.601 109.684 214.204Z" fill="#263238"/>
<path d="M123.688 211.823L91.6143 212.369C91.6143 212.369 87.2479 185.509 84.3772 168.793C83.2907 162.515 82.4321 157.664 82.0833 156.204C81.2516 152.719 65 97.3982 65 97.3982H88.3144H96.2826C96.2826 97.3982 95.7728 106.648 96.0747 107.619C100.233 121.008 108.731 144.758 111.387 153.03C115.459 165.695 123.688 211.823 123.688 211.823Z" fill="#AED3E6"/>
<path d="M120.771 207.17C116.169 207.138 99.844 206.967 93.7136 207.506C93.7049 207.51 93.6974 207.515 93.6922 207.523C93.6869 207.53 93.6841 207.539 93.6841 207.548C93.6841 207.556 93.6869 207.565 93.6922 207.572C93.6974 207.58 93.7049 207.585 93.7136 207.589C95.8264 207.874 116.169 207.43 120.777 207.29C120.788 207.293 120.798 207.293 120.809 207.291C120.819 207.289 120.829 207.285 120.837 207.278C120.845 207.272 120.852 207.264 120.856 207.255C120.86 207.246 120.862 207.236 120.862 207.226C120.861 207.216 120.858 207.206 120.853 207.197C120.847 207.189 120.84 207.181 120.831 207.176C120.822 207.17 120.812 207.167 120.802 207.166C120.791 207.165 120.781 207.166 120.771 207.17Z" fill="#263238"/>
<path d="M92.1373 184.277C91.0284 177.332 89.792 170.404 88.4282 163.492C87.7575 160.096 87.0264 156.706 86.0874 153.335C85.1484 149.964 83.9545 146.631 82.7338 143.323C80.3326 136.746 78.0387 130.137 75.8857 123.484C73.7326 116.831 71.7272 110.152 69.8491 103.417C69.6077 102.566 69.3729 101.715 69.1113 100.877C69.1113 100.807 68.9839 100.839 68.9973 100.909C69.7284 104.299 70.6741 107.657 71.5796 111.009C72.4851 114.361 73.4576 117.701 74.4704 121.027C76.5318 127.714 78.7608 134.351 81.1576 140.936C82.3447 144.212 83.5789 147.481 84.6319 150.802C85.6849 154.122 86.5032 157.493 87.2343 160.883C88.7166 167.758 89.9776 174.685 91.1446 181.617C92.3117 188.55 93.3111 195.584 94.2903 202.567C94.4178 203.456 94.5385 204.338 94.6592 205.227C94.6928 205.475 95.1086 205.475 95.0818 205.227C94.2702 198.212 93.2306 191.235 92.1373 184.277Z" fill="#263238"/>
<path d="M88.3144 97.3665L84.3772 168.793C83.2907 162.515 82.4321 157.664 82.0833 156.204C81.2516 152.719 65 97.3982 65 97.3982L88.3144 97.3665Z" fill="#263238"/>
<path d="M98.1875 237.039C96.7991 237.477 57.0452 237.369 55.5294 236.462C54.9593 236.119 54.6373 230.634 54.4495 224C54.4026 222.565 54.3757 221.092 54.3489 219.587C54.3489 217.81 54.2953 216.007 54.2818 214.255C54.2349 206.395 54.3489 199.475 54.3489 199.475H80.2255V219.587L80.0913 224C80.0913 224 95.2899 230.488 96.8594 231.656C98.4289 232.824 99.5759 236.608 98.1875 237.039Z" fill="#AD6359"/>
<path d="M98.1874 237.039C96.799 237.477 57.0451 237.369 55.5293 236.462C54.9592 236.119 54.6372 230.634 54.4494 224C54.4025 222.565 54.3756 221.092 54.3488 219.587C54.3488 217.81 54.2952 216.007 54.2817 214.255H80.2187V219.587L80.0845 224C80.0845 224 95.2831 230.488 96.8526 231.656C98.4221 232.824 99.5758 236.608 98.1874 237.039Z" fill="white"/>
<path d="M98.3081 237.097C97.4027 237.376 80.4669 237.439 68.1255 237.192C65.275 237.135 62.6658 237.065 60.5598 236.976C57.6622 236.849 55.7171 236.697 55.3952 236.512C54.7245 236.081 54.3623 228.037 54.208 219.543H80.212L80.0778 223.987C80.0778 223.987 95.3636 230.513 96.9197 231.688C98.4758 232.862 99.7032 236.652 98.3081 237.097Z" fill="#1A79E8"/>
<path d="M97.7379 235.579C91.0307 235.408 63.9938 235.306 57.3603 235.611C57.3067 235.611 57.3067 235.649 57.3603 235.655C63.9938 235.966 91.0374 235.858 97.7379 235.687C97.8788 235.681 97.8788 235.585 97.7379 235.579Z" fill="#263238"/>
<path d="M81.0436 222.578C78.4076 222.101 75.1815 222.476 73.1626 224.254C73.0821 224.317 73.1626 224.425 73.2699 224.4C75.7921 223.636 78.3939 223.131 81.0302 222.895C81.0746 222.897 81.118 222.882 81.1507 222.853C81.1834 222.824 81.2028 222.785 81.2046 222.743C81.2063 222.701 81.1904 222.66 81.1602 222.629C81.13 222.598 81.0881 222.579 81.0436 222.578V222.578Z" fill="#263238"/>
<path d="M82.9416 223.67C80.3057 223.193 77.0795 223.568 75.0606 225.339C74.9801 225.409 75.0606 225.517 75.1746 225.492C77.6972 224.728 80.2987 224.221 82.9349 223.981C82.973 223.974 83.0076 223.955 83.0327 223.927C83.0578 223.9 83.072 223.864 83.0727 223.828C83.0735 223.791 83.0609 223.755 83.037 223.726C83.0131 223.698 82.9794 223.677 82.9416 223.67V223.67Z" fill="#263238"/>
<path d="M84.8465 224.736C82.2106 224.26 78.9844 224.635 76.9588 226.406C76.885 226.476 76.9588 226.584 77.0729 226.558C79.5947 225.792 82.1965 225.285 84.8331 225.047C84.8715 225.042 84.9065 225.023 84.9323 224.996C84.9582 224.969 84.9731 224.934 84.9747 224.897C84.9763 224.86 84.9644 224.824 84.941 224.795C84.9176 224.766 84.8843 224.745 84.8465 224.736V224.736Z" fill="#263238"/>
<path d="M86.7448 225.847C84.1088 225.377 80.8826 225.752 78.8638 227.523C78.7833 227.593 78.8637 227.694 78.9711 227.669C81.4942 226.908 84.0956 226.404 86.7314 226.164C86.7758 226.166 86.8192 226.151 86.8519 226.122C86.8846 226.094 86.904 226.054 86.9058 226.012C86.9075 225.97 86.8916 225.929 86.8614 225.898C86.8312 225.867 86.7893 225.849 86.7448 225.847V225.847Z" fill="#263238"/>
<path d="M85.9331 216.82C84.9002 215.467 82.9685 216.07 81.8618 216.94C79.9979 218.474 78.5917 220.444 77.7838 222.654C77.7808 222.664 77.7802 222.675 77.7821 222.685C77.784 222.695 77.7883 222.705 77.7947 222.714C77.8012 222.722 77.8096 222.729 77.8193 222.734C77.829 222.739 77.8398 222.742 77.8509 222.743C77.8509 222.933 78.032 223.136 78.26 223.054C80.4399 222.298 82.8679 221.746 84.7393 220.375C85.8527 219.575 86.9057 218.102 85.9331 216.82ZM81.3186 221.264C80.2521 221.657 79.1789 222.006 78.1326 222.438C78.9308 221.327 79.6753 220.191 80.5875 219.156C81.023 218.653 81.4912 218.176 81.9893 217.727C82.7807 217.054 85.8862 215.626 85.4167 218.362C85.1819 219.873 82.5862 220.787 81.3186 221.264V221.264Z" fill="#263238"/>
<path d="M71.0967 221.975C73.2699 222.857 75.7918 222.819 78.079 223.041C78.1307 223.043 78.182 223.032 78.2285 223.011C78.2751 222.99 78.3156 222.958 78.3465 222.919C78.3774 222.879 78.3979 222.834 78.4062 222.785C78.4145 222.737 78.4104 222.688 78.3942 222.641C78.4046 222.638 78.4141 222.632 78.422 222.625C78.4299 222.618 78.436 222.609 78.4399 222.599C78.4438 222.59 78.4453 222.579 78.4443 222.569C78.4434 222.559 78.44 222.549 78.4345 222.54C77.0708 220.592 75.1903 219.018 72.9815 217.975C71.6803 217.391 69.6278 217.264 69.0108 218.819C68.3937 220.375 69.8156 221.46 71.0967 221.975ZM69.9162 220.191C68.7358 217.651 72.1229 218.286 73.0619 218.769C73.6654 219.08 74.2457 219.43 74.7991 219.816C75.9266 220.632 77.0101 221.5 78.0454 222.419C76.9119 222.241 75.7784 222.165 74.6449 222.032C73.2833 221.873 70.5534 221.594 69.9028 220.191H69.9162Z" fill="#263238"/>
<path d="M83.8405 217.454H52.4573C52.4573 217.454 59.2785 125.357 58.1786 120.189C56.3743 111.739 57.5749 102.033 61.8005 97.3347H89.7227C89.7227 97.3347 90.2794 104.756 87.3953 109.181C87.3953 109.181 84.7728 110.749 83.5051 111.441L83.8405 217.454Z" fill="#AED3E6"/>
<path d="M80.9162 212.674C76.5699 212.566 77.8242 212.534 73.4712 212.477C71.345 212.445 57.3738 212.261 55.3616 212.56C55.3147 212.56 55.3147 212.636 55.3616 212.642C57.3738 212.966 71.3383 212.921 73.4712 212.915C77.8175 212.915 76.5699 212.858 80.9162 212.794C80.9296 212.79 80.9413 212.782 80.9496 212.771C80.9579 212.761 80.9624 212.748 80.9624 212.734C80.9624 212.721 80.9579 212.708 80.9496 212.697C80.9413 212.686 80.9296 212.678 80.9162 212.674V212.674Z" fill="#263238"/>
<path d="M89.1391 108.019C86.3938 109.272 83.7663 110.744 81.285 112.419C81.2668 112.432 81.2543 112.451 81.2498 112.472C81.2454 112.493 81.2493 112.516 81.2608 112.534C81.2724 112.553 81.2907 112.567 81.3125 112.574C81.3342 112.581 81.3578 112.58 81.3789 112.571C84.0618 111.181 86.7447 109.829 89.3202 108.305C89.3603 108.282 89.3891 108.245 89.4004 108.203C89.4117 108.16 89.4046 108.114 89.3806 108.076C89.3566 108.039 89.3176 108.011 89.2724 108.001C89.2271 107.99 89.1792 107.997 89.1391 108.019Z" fill="#263238"/>
<path d="M85.5778 107.638C85.4122 108.149 85.28 108.668 85.1821 109.194C85.0681 109.608 85.0386 110.039 85.0949 110.463C85.0949 110.546 85.2358 110.54 85.276 110.463C85.4875 110.064 85.6323 109.635 85.7053 109.194C85.8394 108.711 85.987 108.229 86.101 107.74C86.0938 107.684 86.0684 107.632 86.0284 107.591C85.9884 107.55 85.9358 107.522 85.878 107.511C85.8202 107.5 85.7601 107.506 85.7063 107.529C85.6524 107.552 85.6075 107.59 85.5778 107.638V107.638Z" fill="#263238"/>
<path d="M85.3296 105.093C85.4034 104.648 85.4772 104.21 85.5644 103.772C85.6516 103.334 85.7723 102.858 85.8193 102.401C85.8193 102.325 85.9534 102.35 85.94 102.401C85.8662 102.839 85.8595 103.296 85.8193 103.74C85.779 104.185 85.7388 104.636 85.6918 105.086C85.6046 105.918 85.4504 106.756 85.276 107.575C85.7401 107.503 86.1807 107.332 86.5638 107.073C86.9218 106.727 87.1563 106.283 87.2345 105.804C87.3687 105.296 87.4894 104.788 87.6302 104.28C87.8202 103.73 87.9572 103.165 88.0394 102.591C88.0394 102.521 88.1735 102.541 88.1601 102.591C88.0504 103.796 87.8122 104.987 87.4491 106.146C87.3707 106.607 87.1209 107.026 86.7449 107.327C86.2618 107.575 85.7295 107.724 85.1821 107.765C85.1217 107.765 85.0278 107.765 85.0345 107.696C85.0874 106.824 85.1859 105.955 85.3296 105.093V105.093Z" fill="#263238"/>
<path d="M62.7127 119.853C62.5115 117.91 62.1761 115.98 61.9548 114.044C61.5352 110.153 61.7844 106.223 62.6926 102.407C62.6884 102.396 62.6807 102.386 62.6705 102.379C62.6603 102.373 62.6481 102.369 62.6355 102.369C62.623 102.369 62.6108 102.373 62.6006 102.379C62.5903 102.386 62.5827 102.396 62.5785 102.407C61.7839 105.759 61.4146 109.188 61.4785 112.622C61.6596 116.044 62.3035 119.421 62.3572 122.856C62.4108 126.29 62.1291 129.839 61.8944 133.274C61.6596 136.708 61.4182 140.257 61.1834 143.742C60.231 157.766 59.3523 171.79 58.4469 185.82C58.1965 189.731 57.955 193.645 57.7225 197.565C57.481 201.551 57.1859 205.538 57.0518 209.525C57.0518 209.868 57.5749 209.843 57.6085 209.525C58.2389 202.491 58.6011 195.425 59.0773 188.378C59.5536 181.332 59.9761 174.412 60.4188 167.428C60.8615 160.445 61.3109 153.462 61.7602 146.478C61.9749 142.987 62.1985 139.497 62.431 136.01C62.6456 132.537 62.9139 129.026 62.9675 125.579C62.9968 123.667 62.9117 121.756 62.7127 119.853V119.853Z" fill="#263238"/>
<path d="M72.599 102.166C72.593 102.157 72.5846 102.149 72.5747 102.144C72.5647 102.139 72.5535 102.136 72.542 102.136C72.5306 102.136 72.5194 102.139 72.5094 102.144C72.4994 102.149 72.491 102.157 72.485 102.166C72.319 102.626 72.2307 103.108 72.2234 103.594C72.1366 104.115 72.0088 104.628 71.8411 105.131C71.5332 106.141 70.9557 107.059 70.1643 107.797C68.407 109.353 66.0528 109.93 63.7857 110.457C63.6985 110.457 63.7321 110.584 63.7857 110.59C65.133 110.642 66.4779 110.442 67.743 110C68.8711 109.674 69.9119 109.122 70.7948 108.381C71.6378 107.622 72.2139 106.636 72.4448 105.556C72.5643 104.994 72.6272 104.422 72.6326 103.848C72.6326 103.569 72.6326 103.296 72.6326 103.017C72.6806 102.734 72.6692 102.445 72.599 102.166V102.166Z" fill="#263238"/>
<path d="M85.7456 66.5255C86.3224 70.8362 95.2564 86.8851 104.767 93.9954C108.255 96.6046 126.747 98.1473 131.375 97.8045C136.788 97.4109 137.599 85.2155 134.568 84.2632C130.778 83.076 113.245 81.6095 109.804 80.4541C105.619 79.0194 97.9997 69.8077 90.7559 64.1068C87.0333 61.1547 85.3029 63.1989 85.7456 66.5255Z" fill="#AD6359"/>
<path d="M131.375 97.8109C133.085 97.7728 140.912 96.9221 143.039 96.2238C145.165 95.5254 151.087 93.094 150.712 91.5005C150.336 89.907 148.512 90.4847 148.512 90.4847C148.512 90.4847 150.853 89.0817 150.296 87.5136C149.739 85.9456 146.942 86.9359 146.942 86.9359C146.942 86.9359 149.236 85.3298 148.559 83.7998C147.881 82.2698 145.272 83.7109 145.272 83.7109C145.272 83.7109 147.445 82.3333 146.332 81.2985C144.99 80.0288 141.288 83.0126 138.887 83.6157C138.337 83.7553 127.605 85.6535 127.605 85.6535L131.375 97.8109Z" fill="#AD6359"/>
<path d="M145.547 83.5904C142.817 85.7679 141.228 86.2694 137.753 86.7265C137.739 86.7265 137.725 86.7319 137.715 86.7414C137.705 86.7509 137.7 86.7639 137.7 86.7773C137.7 86.7908 137.705 86.8037 137.715 86.8132C137.725 86.8228 137.739 86.8281 137.753 86.8281C141.194 86.6757 143.287 86.3139 145.661 83.711C145.762 83.584 145.655 83.4888 145.547 83.5904Z" fill="#263238"/>
<path d="M147.177 86.7581C144.139 88.7833 142.422 89.342 138.813 90.072C138.766 90.072 138.78 90.1673 138.813 90.1609C142.408 89.7229 144.487 89.3166 147.244 86.9168C147.385 86.8089 147.318 86.6629 147.177 86.7581Z" fill="#263238"/>
<path d="M148.324 90.5166C145.232 92.2751 143.374 92.9671 139.779 93.2527C139.761 93.2527 139.744 93.2594 139.732 93.2713C139.719 93.2833 139.712 93.2994 139.712 93.3162C139.712 93.3331 139.719 93.3492 139.732 93.3611C139.744 93.373 139.761 93.3797 139.779 93.3797C142.914 93.5612 145.998 92.5668 148.364 90.6118C148.545 90.4785 148.519 90.4086 148.324 90.5166Z" fill="#263238"/>
<path d="M125.124 84.3205C126.929 83.2158 128.819 82.2396 130.778 81.4002C132.669 80.7653 140.651 80.7653 140.738 82.3969C140.859 84.5046 136.251 85.3489 133.937 85.4886C133.937 85.4886 134.225 90.3579 131.053 91.6466C127.88 92.9354 125.124 84.3205 125.124 84.3205Z" fill="#AD6359"/>
<path d="M140.577 82.9871C139.236 84.9806 136.17 84.9742 133.937 85.2663C133.903 85.2679 133.87 85.2775 133.841 85.2943C133.813 85.3111 133.789 85.3345 133.772 85.3624C133.755 85.3902 133.746 85.4216 133.746 85.4536C133.745 85.4857 133.753 85.5173 133.769 85.5456C133.769 87.5961 133.098 90.4784 131.187 91.6973C131.175 91.7032 131.167 91.7132 131.163 91.7251C131.159 91.737 131.161 91.7498 131.167 91.7608C131.173 91.7717 131.184 91.7799 131.196 91.7834C131.209 91.787 131.222 91.7857 131.234 91.7798C133.454 90.7387 134.353 87.9707 134.225 85.7043C136.519 85.444 139.591 85.3234 140.597 82.9935C140.604 82.9808 140.584 82.9744 140.577 82.9871Z" fill="#263238"/>
<path d="M115.398 97.576C115.398 97.576 105.927 95.1254 104.774 94.2684C103.515 93.3319 102.315 92.3272 101.179 91.2592C92.5666 83.2411 87.3551 72.3217 85.9465 68.4809C84.4575 64.4242 85.8258 60.5389 89.8166 63.1545C90.1378 63.3697 90.4467 63.6006 90.7422 63.8465C95.4373 67.7191 107.993 79.4955 109.523 80.1049C111.052 80.7144 118.423 81.6159 118.423 81.6159L115.398 97.576Z" fill="#18FE2F"/>
<path d="M101.179 91.2592C92.5666 83.2411 87.3551 72.3217 85.9465 68.4809C84.4575 64.4242 85.8258 60.5389 89.8166 63.1545L101.179 91.2592Z" fill="#263238"/>
<path d="M115.365 81.362C114.923 82.5848 114.558 83.8313 114.271 85.0949C113.943 86.3646 113.601 87.6343 113.326 88.904C112.728 91.3962 112.28 93.9185 111.984 96.4587C111.984 96.4739 111.99 96.4884 112.002 96.4991C112.013 96.5098 112.028 96.5158 112.044 96.5158C112.061 96.5158 112.076 96.5098 112.087 96.4991C112.098 96.4884 112.105 96.4739 112.105 96.4587C112.796 93.9574 113.352 91.418 113.882 88.8786C114.157 87.6089 114.405 86.3837 114.68 85.133C114.955 83.8824 115.284 82.5936 115.432 81.362C115.428 81.3568 115.423 81.3525 115.417 81.3495C115.411 81.3465 115.405 81.345 115.398 81.345C115.391 81.345 115.385 81.3465 115.379 81.3495C115.373 81.3525 115.368 81.3568 115.365 81.362V81.362Z" fill="#263238"/>
<path d="M94.9343 75.3118C95.1556 76.2577 95.33 77.2164 95.4642 78.2067C95.4605 78.1708 95.4605 78.1347 95.4642 78.0988C95.5178 77.5528 95.5581 77.0005 95.6587 76.4672H95.7123C95.7469 77.0182 95.7245 77.571 95.6453 78.1179C95.6117 78.3718 95.5782 78.6321 95.5379 78.886C95.5849 79.3241 95.6251 79.7621 95.652 80.1938C95.7056 81.0191 95.8733 84.5425 95.8532 85.152C95.8532 85.2789 95.6989 85.2853 95.6654 85.152C95.5379 84.5171 95.2026 80.9048 95.1087 80.0732C94.9331 78.4873 94.848 76.8937 94.8538 75.2991C94.8538 75.2991 94.9209 75.2801 94.9343 75.3118Z" fill="#263238"/>
<path d="M96.0008 101.683C94.6594 102.826 93.0228 104.496 83.6059 105.118C83.0156 105.118 82.412 105.162 81.8083 105.118C72.7401 104.877 60.0165 98.1346 59.2585 97.6013C59.2585 97.6013 69.031 72.5757 81.9559 62.9704C83.8004 61.5928 87.7576 62.2784 90.2326 63.6878C91.118 64.1957 94.0423 68.8301 94.6326 73.0391C95.2228 77.2481 97.3356 100.541 96.0008 101.683Z" fill="#18FE2F"/>
<path d="M88.6564 69.9664C86.376 70.1378 83.1095 66.4049 82.0364 63.6179C82.3381 62.1766 82.7164 60.7507 83.1699 59.3454C83.5321 57.9805 83.901 56.4569 84.129 55.0412C84.176 54.7491 85.1351 55.4348 85.1351 55.4348L86.9997 56.1585L93.1704 58.5582C92.3452 60.2531 91.7438 62.0378 91.3796 63.8719C91.3598 64.0682 91.3598 64.2659 91.3796 64.4623C91.3825 64.494 91.3825 64.5258 91.3796 64.5575C91.346 65.6939 90.8564 69.795 88.6564 69.9664Z" fill="#AD6359"/>
<path d="M91.3394 64.4623C91.3423 64.494 91.3423 64.5259 91.3394 64.5575C91.0131 64.5536 90.6878 64.5239 90.3668 64.4687C84.062 63.4148 84.5114 55.6951 84.5114 55.6951L86.9931 56.1585L93.1637 58.5582C92.3386 60.2531 91.7371 62.0378 91.3729 63.8719C91.3419 64.0672 91.3307 64.2649 91.3394 64.4623V64.4623Z" fill="#263238"/>
<path d="M83.4783 45.7471C82.2777 48.8832 83.5588 58.1647 85.8393 60.3486C89.1459 63.5228 94.8135 64.0497 97.691 60.2343C100.488 56.5332 98.5897 44.4647 96.0209 42.4586C92.2313 39.5192 85.249 41.119 83.4783 45.7471Z" fill="#AD6359"/>
<path d="M92.4125 52.1716C92.4125 52.1716 92.3655 52.2097 92.3722 52.2351C92.4728 52.87 92.4862 53.5873 91.9094 53.8667C91.9094 53.8667 91.9094 53.9048 91.9094 53.8984C92.6405 53.7143 92.6204 52.7493 92.4125 52.1716Z" fill="#263238"/>
<path d="M91.735 51.5877C90.6618 51.6385 90.8496 53.67 91.8423 53.6192C92.835 53.5684 92.6338 51.5496 91.735 51.5877Z" fill="#263238"/>
<path d="M96.4771 51.759C96.4771 51.759 96.5307 51.759 96.5307 51.8098C96.571 52.4447 96.7252 53.1557 97.3423 53.3144C97.3423 53.3144 97.3423 53.3525 97.3423 53.3144C96.5844 53.3271 96.4033 52.3558 96.4771 51.759Z" fill="#263238"/>
<path d="M97.0136 51.0545C98.0733 50.8894 98.355 52.9083 97.3557 53.0606C96.3563 53.213 96.1215 51.1878 97.0136 51.0545Z" fill="#263238"/>
<path d="M90.9032 50.1149C91.1849 50.0196 91.433 49.8863 91.708 49.7657C92.0073 49.6831 92.2691 49.509 92.4525 49.2705C92.4971 49.1851 92.5101 49.088 92.4894 48.9947C92.4688 48.9015 92.4156 48.8175 92.3385 48.7563C92.1642 48.661 91.9664 48.6108 91.7651 48.6108C91.5637 48.6108 91.3659 48.661 91.1916 48.7563C90.8069 48.8975 90.4913 49.169 90.3062 49.5181C90.2744 49.5983 90.267 49.6854 90.285 49.7694C90.3029 49.8533 90.3454 49.9309 90.4076 49.9931C90.4699 50.0553 90.5493 50.0997 90.637 50.1212C90.7246 50.1428 90.8168 50.1406 90.9032 50.1149V50.1149Z" fill="#263238"/>
<path d="M97.6844 50.3624C97.3911 50.3318 97.1 50.2852 96.8124 50.2227C96.4999 50.2127 96.199 50.1082 95.9539 49.9244C95.8935 49.8484 95.8608 49.756 95.8608 49.6609C95.8608 49.5659 95.8935 49.4734 95.9539 49.3974C96.0935 49.2609 96.2689 49.162 96.4622 49.1107C96.6554 49.0594 96.8596 49.0575 97.0539 49.1054C97.4645 49.1456 97.8446 49.3289 98.1203 49.6196C98.1782 49.6913 98.2128 49.7774 98.2197 49.8674C98.2266 49.9574 98.2057 50.0473 98.1594 50.1262C98.1131 50.205 98.0435 50.2694 97.9591 50.3114C97.8747 50.3533 97.7792 50.3711 97.6844 50.3624V50.3624Z" fill="#263238"/>
<path d="M95.5448 55.1618C95.612 55.6187 95.6546 56.0785 95.6722 56.5394C94.7651 56.5429 93.8626 56.6625 92.9893 56.895C92.7881 56.9584 92.7881 56.7934 92.9893 56.6664C93.6735 56.2845 94.4638 56.1075 95.2564 56.1585C95.2564 56.0316 95.0283 54.7174 95.1021 54.7111C95.4624 54.7458 95.8164 54.8248 96.1551 54.946C95.9472 52.9906 95.4106 51.0798 95.2295 49.1308C95.2295 49.0609 95.3301 49.0419 95.3503 49.1308C95.9971 51.1608 96.4263 53.2472 96.6313 55.3586C96.6917 55.5808 95.7326 55.2317 95.5448 55.1618Z" fill="#263238"/>
<path d="M84.1894 53.486C85.8796 53.3717 85.665 49.461 85.665 49.461C85.665 49.461 88.2405 48.9976 89.4546 45.6519C89.4546 45.6519 92.8082 47.5565 95.5783 47.074C99.9246 46.2741 99.7368 40.9096 98.0935 39.8367C95.7594 38.3194 91.6679 40.6176 91.6679 40.6176C91.6679 40.6176 85.4168 39.0495 83.6193 43.0618C82.8122 43.1244 82.0603 43.4743 81.5151 44.041C80.9699 44.6077 80.672 45.349 80.6815 46.1154C80.5205 49.0103 82.9351 53.5685 84.1894 53.486Z" fill="#263238"/>
<path d="M85.0681 49.9306C86.3171 49.7115 87.4541 49.1064 88.3009 48.2102C88.7543 47.7221 89.0769 47.1379 89.2415 46.507C89.4061 45.8761 89.4078 45.217 89.2467 44.5852C89.2508 44.574 89.2585 44.5643 89.2687 44.5574C89.2789 44.5506 89.2911 44.5469 89.3037 44.5469C89.3162 44.5469 89.3284 44.5506 89.3387 44.5574C89.3489 44.5643 89.3566 44.574 89.3607 44.5852C89.5614 45.2456 89.6054 45.9397 89.4894 46.618C89.3734 47.2963 89.1005 47.9419 88.69 48.5086C88.2807 49.0469 87.73 49.4747 87.0924 49.7497C86.4548 50.0248 85.7524 50.1375 85.0546 50.0767C85.0144 50.0386 84.9943 49.9433 85.0681 49.9306Z" fill="#263238"/>
<path d="M80.4333 44.3947C81.2784 43.3599 82.5863 43.1822 83.8808 43.2076C83.9546 43.2076 83.9546 43.3218 83.8808 43.3155C83.235 43.3006 82.5969 43.45 82.0329 43.7481C81.469 44.0463 80.9999 44.4823 80.6747 45.0105C80.004 45.9882 80.1985 47.2071 80.4735 48.2736C80.9983 50.338 82.3095 52.1465 84.1558 53.3524C84.1558 53.3524 84.1558 53.4223 84.1558 53.4032C83.1042 52.7934 82.1953 51.9867 81.4848 51.0326C80.7744 50.0785 80.2773 48.9971 80.0241 47.8546C79.7625 46.7183 79.6552 45.3597 80.4333 44.3947Z" fill="#263238"/>
<path d="M91.5003 40.7952C92.0455 39.9486 92.8999 39.3206 93.9015 39.0304C95.1081 38.7084 96.3978 38.8192 97.5234 39.3414C97.9719 39.5617 98.3508 39.8903 98.6217 40.2939C98.8926 40.6975 99.046 41.1618 99.0661 41.6396C99.0701 42.7535 98.6673 43.8345 97.9259 44.6996C97.9259 44.6996 97.8655 44.6996 97.8856 44.6996C98.474 43.8742 98.7743 42.8951 98.7441 41.8999C98.7205 41.431 98.5601 40.9776 98.2807 40.5898C98.0013 40.2021 97.6138 39.8952 97.1612 39.7033C95.3637 38.9732 92.7479 39.1256 91.5942 40.8651C91.5607 40.9159 91.4601 40.8587 91.5003 40.7952Z" fill="#263238"/>
<path d="M85.182 53.3271C85.182 53.3271 83.0826 50.2862 81.6271 50.9846C80.1716 51.6829 81.6942 56.0633 83.3509 56.6982C83.5571 56.7935 83.7815 56.8484 84.0107 56.8596C84.2399 56.8709 84.4691 56.8381 84.6845 56.7634C84.9 56.6887 85.0973 56.5736 85.2647 56.4249C85.432 56.2762 85.5658 56.0971 85.6582 55.8983L85.182 53.3271Z" fill="#AD6359"/>
<path d="M82.063 52.2415C82.063 52.2415 82.063 52.2415 82.063 52.2859C82.5925 52.5567 83.0563 52.9293 83.4248 53.3797C83.7932 53.8301 84.0582 54.3485 84.2026 54.9015C84.1375 54.7883 84.0474 54.6897 83.9384 54.6125C83.8294 54.5353 83.704 54.4813 83.5709 54.4542C83.4378 54.4271 83.3001 54.4275 83.1672 54.4554C83.0343 54.4832 82.9093 54.538 82.8008 54.6158C82.8008 54.6158 82.8008 54.6856 82.8008 54.6793C83.0085 54.6245 83.229 54.631 83.4327 54.6979C83.6365 54.7648 83.8138 54.889 83.941 55.0538C84.1492 55.3356 84.3246 55.6379 84.4642 55.9553C84.5178 56.0569 84.7056 56.0125 84.6721 55.8918C84.766 54.4507 83.666 52.4319 82.063 52.2415Z" fill="#263238"/>
<path d="M21.9126 249H0V245.191H21.9126C39.2709 245.191 44.2209 231.129 45.3141 219.334C46.1727 210.097 46.6958 198.847 47.2525 186.956C49.3385 142.403 51.4982 96.3318 70.4395 96.3318H87.7978V100.141H70.4261C55.3348 100.141 52.9872 150.414 51.2635 187.115C50.7001 199.069 50.1702 210.363 49.3117 219.683C47.5678 238.582 37.8356 249 21.9126 249Z" fill="#1A79E8"/>
<path opacity="0.2" d="M87.7977 96.3127V100.122H73.954L73.0955 96.3127H87.7977Z" fill="black"/>
<path d="M148.016 122.824H155.407V73.9534H148.016V122.824Z" fill="#1A79E8"/>
<path d="M148.015 76.2705H119.926V119.999H148.015V76.2705Z" fill="#1A79E8"/>
<path opacity="0.2" d="M148.016 76.2705V120.005H141.04L137.908 76.2705H148.016Z" fill="black"/>
<path d="M77.3747 102.115H98.2141V94.3256H77.3747V102.115Z" fill="#FFC727"/>
<path d="M98.2142 94.3257H77.3748V102.115H98.2142V94.3257Z" fill="#1A79E8"/>
<path d="M119.926 117.421H102.339C101.245 117.421 100.196 117.01 99.4224 116.278C98.6488 115.546 98.2142 114.553 98.2142 113.517V83.2666C98.2142 82.2311 98.6488 81.238 99.4224 80.5058C100.196 79.7736 101.245 79.3623 102.339 79.3623H119.926V117.421Z" fill="#1A79E8"/>
<path opacity="0.2" d="M110.683 117.409L113.815 79.3623H119.925V117.409H110.683Z" fill="black"/>
<g opacity="0.2">
<path opacity="0.2" d="M112.3 109.721H113.688V87.0566H112.3V109.721Z" fill="black"/>
<path opacity="0.2" d="M108.376 109.721H109.764V87.0566H108.376V109.721Z" fill="black"/>
<path opacity="0.2" d="M104.445 109.721H105.834V87.0566H104.445V109.721Z" fill="black"/>
</g>
<path d="M76.0937 71.7695C75.423 80.9367 74.6583 99.6139 78.9376 105.086C84.5515 112.279 100.401 116.634 105.096 117.942C107.108 118.513 111.931 105.88 110.737 104.064C109.543 102.249 93.1838 98.3505 91.896 97.284C90.6082 96.2175 86.5302 81.3366 84.5918 73.7565C82.0833 64.2021 76.3687 68.1508 76.0937 71.7695Z" fill="#AD6359"/>
<path d="M122.823 108.914C125.405 109.498 129.322 108.241 129.45 110.114C129.564 111.777 126.767 112.4 126.767 112.4C126.767 112.4 130.161 112.666 129.745 114.488C129.329 116.31 126.11 116.393 126.11 116.393C126.11 116.393 129.222 116.793 128.665 118.583C128.108 120.373 125.124 120.621 125.124 120.621C125.124 120.621 125.908 121.18 124.916 122.278C123.5 123.846 118.779 123.662 116.344 123.014C113.909 122.367 105.478 118.278 104.197 117.631L108.47 102.775C108.47 102.775 113.373 102.033 115.908 101.944C118.443 101.855 126.874 103.766 126.519 105.753C126.163 107.74 120.227 106.318 118.691 106.267C117.155 106.216 116.887 106.546 117.558 107.073C117.994 107.454 121.676 108.654 122.823 108.914Z" fill="#AD6359"/>
<path d="M126.613 112.368C122.649 112.971 120.797 112.584 117.162 111.098C117.088 111.098 117.028 111.162 117.102 111.2C120.522 112.952 122.769 113.739 126.653 112.539C126.847 112.482 126.807 112.368 126.613 112.368Z" fill="#263238"/>
<path d="M126.264 116.336C122.085 116.615 120.08 116.215 116.149 114.939C116.138 114.938 116.127 114.941 116.117 114.946C116.107 114.952 116.099 114.96 116.095 114.97C116.09 114.98 116.089 114.991 116.092 115.001C116.094 115.012 116.1 115.021 116.109 115.028C119.858 116.59 122.112 117.339 126.25 116.533C126.438 116.501 126.458 116.323 126.264 116.336Z" fill="#263238"/>
<path d="M125.07 120.621C120.999 120.621 118.779 120.272 115.13 118.564C115.112 118.555 115.091 118.553 115.072 118.558C115.052 118.563 115.036 118.576 115.026 118.593C115.016 118.61 115.014 118.629 115.019 118.648C115.025 118.666 115.038 118.682 115.056 118.691C118.597 120.767 121.368 121.231 125.057 120.742C125.305 120.685 125.325 120.621 125.07 120.621Z" fill="#263238"/>
<path d="M92.7209 114.964C92.7209 114.964 79.9302 108.889 77.965 104.223C75.5504 98.4076 74.5644 81.4508 75.5034 72.7534C76.4425 64.056 82.8412 65.1352 84.8936 72.8232C86.9058 80.3271 91.4466 95.3159 91.9161 96.0206C92.513 96.9284 99.8105 98.6361 99.8105 98.6361" fill="#18FE2F"/>
<path d="M91.4398 94.0781C91.2185 93.3607 90.8295 91.7418 90.6081 91.0498C90.1587 89.6468 89.7094 88.2438 89.2667 86.8471C88.824 85.4505 88.3478 84.0475 87.8582 82.6571C87.771 82.4286 87.6905 82.1874 87.61 81.9461C87.6502 81.8001 87.4691 79.9527 87.4825 79.502C87.4825 79.4321 87.3618 79.4258 87.3685 79.502C87.3864 79.9532 87.3707 80.405 87.3216 80.8542C87.3216 80.9431 87.3216 81.0256 87.3216 81.1081C87.013 80.1939 86.7045 79.2861 86.3893 78.3973C86.3893 78.3338 86.2551 78.3592 86.2753 78.3973C86.8789 80.3019 87.174 81.5017 87.6167 83.0444C88.0594 84.5871 88.5155 86.0218 88.9581 87.4883C89.4008 88.9548 89.9173 90.4531 90.4069 91.9323C90.6823 92.8106 91.0047 93.6751 91.3728 94.5224C91.6545 95.1002 91.6679 94.8335 91.4398 94.0781Z" fill="#263238"/>
<path d="M77.0126 99.2013C76.751 97.6332 76.4894 96.0588 76.2882 94.4844C75.8791 91.3101 75.6175 88.1803 75.4699 85.0061C75.3827 83.1968 75.2419 81.3875 75.1346 79.5781C75.1346 79.5596 75.1268 79.5419 75.1129 79.5288C75.0991 79.5157 75.0803 79.5083 75.0608 79.5083C75.0412 79.5083 75.0224 79.5157 75.0086 79.5288C74.9948 79.5419 74.987 79.5596 74.987 79.5781C74.987 81.1906 74.9266 82.8032 74.987 84.4093C74.987 84.6442 74.987 84.8791 74.987 85.114L74.9065 84.7839C74.6583 83.8634 74.3096 82.9619 74.0949 82.035C74.0979 82.0273 74.0989 82.0191 74.0979 82.0109C74.0968 82.0028 74.0936 81.9951 74.0887 81.9883C74.0837 81.9816 74.0771 81.9761 74.0695 81.9723C74.0618 81.9685 74.0533 81.9665 74.0446 81.9665C74.036 81.9665 74.0274 81.9685 74.0198 81.9723C74.0121 81.9761 74.0055 81.9816 74.0006 81.9883C73.9956 81.9951 73.9925 82.0028 73.9914 82.0109C73.9903 82.0191 73.9913 82.0273 73.9943 82.035C74.2358 82.9619 74.3632 83.9395 74.5913 84.8474C74.712 85.3108 74.8327 85.7743 74.9669 86.2377L75.0339 86.4345C75.0742 87.3614 75.1211 88.2883 75.1882 89.2151C75.3687 92.4089 75.7562 95.5891 76.3486 98.7379C76.7544 100.787 77.3399 102.8 78.0992 104.756C78.103 104.766 78.1098 104.774 78.1188 104.78C78.1278 104.786 78.1385 104.789 78.1495 104.789C78.1604 104.789 78.1711 104.786 78.1801 104.78C78.1891 104.774 78.196 104.766 78.1998 104.756C77.804 103.188 77.2809 100.769 77.0126 99.2013Z" fill="#263238"/>
<path d="M97.4362 98.6298C96.7358 99.7695 96.1086 100.948 95.5582 102.16C94.968 103.353 94.371 104.547 93.8143 105.753C92.6844 108.13 91.6969 110.565 90.8564 113.047C90.8564 113.111 90.9436 113.149 90.9772 113.085C92.2247 110.736 93.2912 108.292 94.3777 105.873C94.9143 104.68 95.4308 103.474 95.9607 102.28C96.4905 101.087 97.0942 99.8931 97.5033 98.6552C97.5167 98.6171 97.4564 98.5981 97.4362 98.6298Z" fill="#263238"/>
<path d="M167.788 65.7766C167.7 65.7766 167.614 65.7432 167.551 65.6837C167.488 65.6241 167.453 65.5434 167.453 65.4592V56.5015C167.455 56.4178 167.491 56.338 167.553 56.2788C167.616 56.2197 167.7 56.1857 167.788 56.1841C167.877 56.1841 167.963 56.2175 168.026 56.2771C168.088 56.3366 168.124 56.4173 168.124 56.5015V65.4338C168.128 65.4776 168.122 65.5216 168.106 65.5631C168.091 65.6046 168.067 65.6426 168.036 65.6749C168.004 65.7071 167.966 65.7328 167.923 65.7503C167.881 65.7678 167.835 65.7768 167.788 65.7766Z" fill="#263238"/>
<path d="M150.712 70.0556C150.652 70.0558 150.594 70.0412 150.542 70.0134C150.49 69.9855 150.447 69.9454 150.417 69.8969L145.722 62.1581C145.687 62.0865 145.683 62.0054 145.708 61.9306C145.733 61.8558 145.787 61.7925 145.859 61.753C145.93 61.7135 146.015 61.7006 146.096 61.7168C146.178 61.733 146.25 61.7771 146.298 61.8407L150.994 69.5795C151.016 69.6152 151.031 69.6548 151.037 69.696C151.044 69.7373 151.041 69.7792 151.03 69.8195C151.018 69.8598 150.999 69.8975 150.972 69.9304C150.945 69.9633 150.911 69.9908 150.873 70.0112C150.824 70.0395 150.769 70.0548 150.712 70.0556V70.0556Z" fill="#263238"/>
<path d="M145.802 133.743C145.744 133.743 145.687 133.73 145.635 133.705C145.558 133.662 145.502 133.591 145.48 133.51C145.457 133.428 145.469 133.341 145.514 133.267L150.209 125.535C150.255 125.462 150.329 125.41 150.416 125.388C150.502 125.367 150.594 125.379 150.672 125.421C150.71 125.441 150.744 125.468 150.771 125.501C150.798 125.534 150.817 125.572 150.828 125.612C150.84 125.652 150.842 125.694 150.836 125.736C150.83 125.777 150.815 125.817 150.792 125.852L146.097 133.585C146.067 133.634 146.024 133.674 145.973 133.702C145.921 133.73 145.862 133.744 145.802 133.743Z" fill="#263238"/>
<path d="M167.574 139.324C167.485 139.324 167.4 139.29 167.337 139.231C167.274 139.171 167.239 139.091 167.239 139.006V130.074C167.239 129.99 167.274 129.909 167.337 129.85C167.4 129.79 167.485 129.757 167.574 129.757C167.663 129.757 167.748 129.79 167.811 129.85C167.874 129.909 167.909 129.99 167.909 130.074V139.032C167.901 139.111 167.862 139.184 167.8 139.238C167.739 139.292 167.658 139.323 167.574 139.324V139.324Z" fill="#263238"/>
<path d="M189.372 133.845C189.314 133.845 189.256 133.83 189.206 133.802C189.155 133.774 189.113 133.734 189.084 133.686L184.389 125.954C184.366 125.918 184.351 125.879 184.345 125.837C184.339 125.796 184.341 125.754 184.353 125.714C184.364 125.674 184.384 125.636 184.411 125.603C184.438 125.57 184.471 125.543 184.51 125.522C184.587 125.48 184.679 125.469 184.766 125.49C184.852 125.511 184.926 125.564 184.972 125.636L189.667 133.369C189.712 133.442 189.724 133.529 189.701 133.611C189.679 133.693 189.623 133.763 189.547 133.807C189.493 133.832 189.433 133.846 189.372 133.845Z" fill="#263238"/>
<path d="M184.838 70.157C184.779 70.1574 184.721 70.142 184.671 70.1126C184.632 70.0922 184.599 70.0647 184.572 70.0318C184.545 69.9989 184.525 69.9612 184.514 69.9209C184.503 69.8806 184.5 69.8386 184.506 69.7974C184.512 69.7562 184.527 69.7165 184.55 69.6809L189.245 61.9484C189.264 61.9079 189.292 61.8718 189.328 61.8422C189.363 61.8126 189.404 61.7904 189.448 61.7768C189.493 61.7633 189.54 61.7588 189.587 61.7636C189.634 61.7684 189.679 61.7824 189.719 61.8047C189.76 61.8271 189.795 61.8572 189.822 61.8932C189.85 61.9292 189.869 61.9702 189.879 62.0137C189.888 62.0571 189.888 62.102 189.879 62.1455C189.869 62.1889 189.849 62.2299 189.822 62.2658L185.127 69.9983C185.097 70.0454 185.054 70.0847 185.004 70.1124C184.954 70.1401 184.897 70.1555 184.838 70.157Z" fill="#263238"/>
</svg>
