<svg width="45" height="45" viewBox="0 0 45 45" fill="none" xmlns="http://www.w3.org/2000/svg">
<circle cx="22.5" cy="22.5" r="22.5" fill="#293341" fill-opacity="0.6"/>
<path d="M20.6314 24.1314L14.25 30.5127V28.25C14.25 27.767 13.858 27.375 13.375 27.375C12.892 27.375 12.5 27.767 12.5 28.25V32.625C12.5 33.108 12.892 33.5 13.375 33.5H17.75C18.233 33.5 18.625 33.108 18.625 32.625C18.625 32.142 18.233 31.75 17.75 31.75H15.4872L21.8686 25.3686C22.2103 25.0269 22.2103 24.4731 21.8686 24.1314C21.5274 23.7897 20.9726 23.7897 20.6314 24.1314V24.1314Z" fill="white"/>
<path d="M32.625 12.5H28.25C27.767 12.5 27.375 12.892 27.375 13.375C27.375 13.858 27.767 14.25 28.25 14.25H30.5128L24.1314 20.6314C23.7897 20.9731 23.7897 21.5269 24.1314 21.8686C24.302 22.0397 24.526 22.125 24.75 22.125C24.974 22.125 25.198 22.0397 25.3686 21.8686L31.75 15.4873V17.75C31.75 18.233 32.142 18.625 32.625 18.625C33.108 18.625 33.5 18.233 33.5 17.75V13.375C33.5 12.892 33.108 12.5 32.625 12.5V12.5Z" fill="white"/>
</svg>
