<svg width="24" height="25" viewBox="0 0 24 25" fill="none" xmlns="http://www.w3.org/2000/svg">
<path d="M17 1.15967H7C4.23858 1.15967 2 3.39824 2 6.15967V16.1597C2 18.9211 4.23858 21.1597 7 21.1597H17C19.7614 21.1597 22 18.9211 22 16.1597V6.15967C22 3.39824 19.7614 1.15967 17 1.15967Z" stroke="#293341" stroke-width="2" stroke-linecap="round" stroke-linejoin="round"/>
<path d="M16 10.5297C16.1234 11.362 15.9813 12.2119 15.5938 12.9587C15.2063 13.7055 14.5931 14.3111 13.8416 14.6894C13.0901 15.0677 12.2384 15.1993 11.4078 15.0657C10.5771 14.932 9.80976 14.5398 9.21484 13.9449C8.61992 13.35 8.22773 12.5826 8.09407 11.7519C7.9604 10.9213 8.09207 10.0696 8.47033 9.3181C8.84859 8.56658 9.45419 7.95347 10.201 7.56597C10.9478 7.17847 11.7978 7.03631 12.63 7.15973C13.4789 7.28561 14.2649 7.68119 14.8717 8.28803C15.4785 8.89487 15.8741 9.6808 16 10.5297Z" stroke="#293341" stroke-width="2" stroke-linecap="round" stroke-linejoin="round"/>
<path d="M17.5 5.65967H17.51" stroke="#293341" stroke-width="2" stroke-linecap="round" stroke-linejoin="round"/>
</svg>
