<svg width="24" height="25" viewBox="0 0 24 25" fill="none" xmlns="http://www.w3.org/2000/svg">
<path d="M16 7.15967C17.5913 7.15967 19.1174 7.79181 20.2426 8.91703C21.3679 10.0422 22 11.5684 22 13.1597V20.1597H18V13.1597C18 12.6292 17.7893 12.1205 17.4142 11.7455C17.0391 11.3704 16.5304 11.1597 16 11.1597C15.4696 11.1597 14.9609 11.3704 14.5858 11.7455C14.2107 12.1205 14 12.6292 14 13.1597V20.1597H10V13.1597C10 11.5684 10.6321 10.0422 11.7574 8.91703C12.8826 7.79181 14.4087 7.15967 16 7.15967V7.15967Z" stroke="#293341" stroke-width="2" stroke-linecap="round" stroke-linejoin="round"/>
<path d="M6 8.15967H2V20.1597H6V8.15967Z" stroke="#293341" stroke-width="2" stroke-linecap="round" stroke-linejoin="round"/>
<path d="M4 5.15967C5.10457 5.15967 6 4.26424 6 3.15967C6 2.0551 5.10457 1.15967 4 1.15967C2.89543 1.15967 2 2.0551 2 3.15967C2 4.26424 2.89543 5.15967 4 5.15967Z" stroke="#293341" stroke-width="2" stroke-linecap="round" stroke-linejoin="round"/>
</svg>
