<svg width="45" height="45" viewBox="0 0 45 45" fill="none" xmlns="http://www.w3.org/2000/svg">
<circle cx="22.5" cy="22.5" r="22.5" fill="#293341" fill-opacity="0.6"/>
<path d="M13.9935 33.2437L20.3749 26.8624V29.1251C20.3749 29.6081 20.7669 30.0001 21.2499 30.0001C21.7329 30.0001 22.1249 29.6081 22.1249 29.1251V24.7501C22.1249 24.2671 21.7329 23.8751 21.2499 23.8751H16.8749C16.3919 23.8751 15.9999 24.2671 15.9999 24.7501C15.9999 25.2331 16.3919 25.6251 16.8749 25.6251H19.1376L12.7563 32.0065C12.4146 32.3482 12.4146 32.902 12.7563 33.2437C13.0975 33.5854 13.6523 33.5854 13.9935 33.2437Z" fill="white"/>
<path d="M24.7501 22.125H29.1251C29.6081 22.125 30.0001 21.733 30.0001 21.25C30.0001 20.767 29.6081 20.375 29.1251 20.375H26.8624L33.2437 13.9936C33.5854 13.6519 33.5854 13.0981 33.2437 12.7564C33.0731 12.5853 32.8491 12.5 32.6251 12.5C32.4011 12.5 32.1771 12.5853 32.0065 12.7564L25.6251 19.1377V16.875C25.6251 16.392 25.2331 16 24.7501 16C24.2671 16 23.8751 16.392 23.8751 16.875V21.25C23.8751 21.733 24.2671 22.125 24.7501 22.125V22.125Z" fill="white"/>
</svg>
