<svg width="45" height="45" viewBox="0 0 45 45" fill="none" xmlns="http://www.w3.org/2000/svg">
<circle cx="22.5" cy="22.5" r="22.5" fill="#293341" fill-opacity="0.6"/>
<g clip-path="url(#clip0)">
<path d="M22.4233 7.13034C22.4287 7.12782 22.434 7.12526 22.4393 7.12271C22.4532 7.11599 22.4671 7.10928 22.4815 7.10333C22.4959 7.09735 22.5106 7.09222 22.5252 7.08708C22.531 7.08508 22.5367 7.08307 22.5424 7.08102C22.5475 7.07918 22.5526 7.07731 22.5577 7.07544C22.5739 7.0695 22.5901 7.06354 22.6067 7.05853M22.4233 7.13034L22.8044 7.16726C22.7887 7.16941 22.7773 7.17096 22.7648 7.17346L22.7644 7.17355C22.7521 7.17596 22.7417 7.17868 22.7272 7.18248C22.7206 7.18419 22.7133 7.18611 22.7045 7.18832L22.7044 7.18835C22.6945 7.19084 22.6867 7.19272 22.68 7.19433C22.6684 7.19714 22.6599 7.19917 22.6497 7.20224L22.6067 7.05853M22.4233 7.13034C22.4185 7.13259 22.4137 7.13481 22.4089 7.13704C22.3929 7.14446 22.3769 7.15189 22.3612 7.16023C22.3482 7.16719 22.3357 7.17482 22.3231 7.18249C22.3179 7.18568 22.3127 7.18887 22.3074 7.19203C22.303 7.19467 22.2985 7.19729 22.294 7.1999C22.2784 7.20908 22.2627 7.21823 22.2475 7.22843C22.2336 7.23766 22.2205 7.24766 22.2073 7.25766C22.2017 7.26184 22.1962 7.26603 22.1907 7.27016C22.1854 7.27405 22.1802 7.27785 22.1749 7.28165C22.1635 7.28993 22.1521 7.29818 22.1411 7.30728C22.1081 7.33428 22.0766 7.36292 22.0463 7.39281C22.0455 7.39363 22.0447 7.39435 22.0438 7.39509C22.0431 7.39567 22.0425 7.39625 22.0418 7.39688M22.4233 7.13034L22.7354 7.02638C22.7184 7.02972 22.7019 7.03404 22.6853 7.03837C22.6794 7.0399 22.6736 7.04142 22.6677 7.04291C22.6616 7.04446 22.6554 7.04595 22.6492 7.04744C22.635 7.05088 22.6208 7.05431 22.6067 7.05853M22.6067 7.05853L22.6502 7.20209C22.638 7.20576 22.6272 7.20973 22.6124 7.21514C22.6067 7.21724 22.6004 7.21955 22.5932 7.22215L22.5932 7.22215C22.5844 7.22531 22.5772 7.22785 22.5708 7.23007C22.5583 7.23443 22.5493 7.23758 22.5389 7.2419L22.5388 7.24194C22.5286 7.24619 22.5201 7.25027 22.5082 7.25599C22.5023 7.25884 22.4956 7.2621 22.4873 7.26599L22.4871 7.26611C22.4806 7.26916 22.4748 7.27186 22.4694 7.27433C22.4546 7.28124 22.4434 7.28643 22.4315 7.29272L22.3612 7.16031L22.4319 7.29253C22.4227 7.29741 22.4157 7.30174 22.4055 7.30798C22.3998 7.31149 22.393 7.31561 22.3844 7.32076L22.3838 7.32111C22.3778 7.32472 22.3723 7.32791 22.3673 7.33084C22.3527 7.33939 22.342 7.34564 22.3308 7.35315C22.3207 7.35987 22.3128 7.36591 22.3018 7.37426C22.2957 7.37885 22.2888 7.38415 22.28 7.39064M22.28 7.39064L22.1907 7.27024L22.2802 7.39047C22.2802 7.39053 22.2801 7.39058 22.28 7.39064ZM22.28 7.39064C22.2707 7.39757 22.2639 7.40247 22.2583 7.4065C22.2498 7.41264 22.2441 7.41675 22.2366 7.42294L22.2361 7.42332C22.2071 7.44709 22.179 7.47257 22.1517 7.49951M22.1517 7.49951C22.152 7.4993 22.1522 7.49909 22.1524 7.49888L22.0463 7.39283L22.1517 7.49951ZM22.1517 7.49951C22.1489 7.50228 22.1464 7.50463 22.1446 7.50622M22.1446 7.50622L22.1479 7.50295L22.0418 7.39688M22.1446 7.50622C22.1436 7.50712 22.1428 7.50777 22.1424 7.50812L22.1423 7.50824C22.1415 7.50889 22.1414 7.509 22.1417 7.50879C22.142 7.50845 22.1433 7.5073 22.1446 7.50611L22.0418 7.39688M22.1446 7.50622L18.0832 11.5674C17.6127 12.038 17.6127 12.8007 18.0832 13.2713C18.0832 13.2713 18.0832 13.2713 18.0832 13.2713M22.0418 7.39688L17.9771 13.3774L18.0832 13.2713M18.0832 13.2713C18.554 13.7418 19.3169 13.7416 19.7873 13.2713M18.0832 13.2713L19.7873 13.2713M19.7873 13.2713L21.5392 11.5195L21.7953 11.2635V11.6256V25.5158C21.7953 26.1812 22.3347 26.7207 23.0001 26.7207C23.6655 26.7207 24.2049 26.1812 24.2049 25.5158V11.6257V11.2635L24.461 11.5196L26.2127 13.2713C26.448 13.5066 26.756 13.6242 27.0646 13.6242C27.3732 13.6242 27.6813 13.5067 27.9165 13.2713L27.9165 13.2713C28.387 12.8008 28.387 12.038 27.9165 11.5674L28.0226 11.4614L27.9165 11.5674L23.8524 7.50327C23.8524 7.50325 23.8524 7.50323 23.8524 7.50321C23.8242 7.47516 23.7946 7.44845 23.7636 7.42304C23.7567 7.41737 23.7522 7.41421 23.7456 7.40947C23.7402 7.4056 23.7333 7.40069 23.7225 7.39251L23.7224 7.39246C23.7169 7.38836 23.712 7.3846 23.7074 7.3811C23.6924 7.36972 23.681 7.36114 23.6685 7.35271L23.6684 7.35269C23.6586 7.34606 23.6497 7.34084 23.6371 7.33347C23.6315 7.33022 23.6253 7.32654 23.6179 7.32213L23.6172 7.3217C23.6103 7.31758 23.6045 7.31402 23.5993 7.31085C23.5869 7.30322 23.5781 7.29783 23.5678 7.29235L23.5676 7.29225C23.5566 7.28637 23.5464 7.28162 23.5321 7.27504C23.527 7.27267 23.5214 7.27006 23.515 7.26707L23.5142 7.26672C23.5074 7.26348 23.5015 7.26062 23.4961 7.25804C23.4823 7.25136 23.4722 7.24649 23.4606 7.2417L23.4605 7.24165C23.4506 7.23754 23.4421 7.23457 23.4301 7.23035C23.4241 7.22825 23.4172 7.22583 23.4088 7.22281L23.4086 7.22276C23.4011 7.22005 23.3946 7.21765 23.3887 7.21549C23.3735 7.20991 23.3626 7.20589 23.3501 7.20216L23.3498 7.20208C23.34 7.19912 23.3319 7.19715 23.3205 7.19441C23.3141 7.19285 23.3067 7.19105 23.2973 7.18867L23.2972 7.18865C23.2889 7.18654 23.2817 7.18467 23.2753 7.183C23.2598 7.17894 23.2485 7.17601 23.2357 7.1735L23.2356 7.17349C23.2238 7.17116 23.2136 7.16977 23.1997 7.16786L19.7873 13.2713ZM23.0073 7.15054C23.0047 7.15053 23.0022 7.15046 23.0001 7.15037C22.998 7.15046 22.9952 7.15054 22.9921 7.15054V7.00054C22.9502 7.00073 22.9083 7.0028 22.8664 7.00687L22.8814 7.15612C22.8714 7.15712 22.8651 7.15815 22.8561 7.15963C22.8489 7.16081 22.84 7.16227 22.8261 7.16422L23.0073 7.15054ZM23.0073 7.15054C23.0072 7.15054 23.0072 7.15054 23.0071 7.15054L23.0081 7.00058V7.15054C23.0078 7.15054 23.0076 7.15054 23.0073 7.15054ZM23.6383 7.15996C23.6232 7.15187 23.6078 7.14476 23.5923 7.13761C23.5878 7.1355 23.5832 7.13338 23.5786 7.13124C23.5738 7.12894 23.569 7.12663 23.5642 7.12431C23.549 7.11698 23.5338 7.10967 23.5181 7.10315C23.5041 7.09732 23.4899 7.09234 23.4757 7.08736L23.6383 7.15996ZM23.1335 7.00687L23.1189 7.15615L23.119 7.15616L23.1335 7.00687ZM23.1189 7.15616C23.129 7.15714 23.1356 7.15823 23.1453 7.1598L23.1189 7.15616Z" fill="white" stroke="#7E848D" stroke-width="0.3"/>
<path d="M30.8274 18.742V18.592H30.6774H28.4193C27.754 18.592 27.2145 18.0526 27.2145 17.3872C27.2145 16.7218 27.754 16.1824 28.4193 16.1824H32.0322C32.6976 16.1824 33.2371 16.7218 33.2371 17.3872V33.6452C33.2371 34.3106 32.6976 34.85 32.0322 34.85H13.9678C13.3024 34.85 12.763 34.3106 12.763 33.6452V17.3872C12.763 16.7218 13.3024 16.1824 13.9678 16.1824H17.5807C18.2461 16.1824 18.7855 16.7218 18.7855 17.3872C18.7855 18.0526 18.2461 18.592 17.5807 18.592H15.3227H15.1727V18.742V32.2903V32.4403H15.3227H30.6774H30.8274V32.2903V18.742Z" fill="white" stroke="#7E848D" stroke-width="0.3"/>
</g>
<defs>
<clipPath id="clip0">
<rect width="28" height="28" fill="white" transform="translate(9 7)"/>
</clipPath>
</defs>
</svg>
