<svg width="24" height="25" viewBox="0 0 24 25" fill="none" xmlns="http://www.w3.org/2000/svg">
<path d="M22.54 5.57967C22.4212 5.10508 22.1793 4.67024 21.8387 4.31907C21.498 3.96791 21.0708 3.71285 20.6 3.57967C18.88 3.15967 12 3.15967 12 3.15967C12 3.15967 5.12 3.15967 3.4 3.61967C2.92925 3.75285 2.50198 4.00791 2.16135 4.35907C1.82072 4.71024 1.57879 5.14508 1.46 5.61967C1.14521 7.36522 0.991235 9.13598 0.999999 10.9097C0.988779 12.6967 1.14277 14.481 1.46 16.2397C1.59096 16.6995 1.83831 17.1178 2.17814 17.4541C2.51798 17.7905 2.93882 18.0335 3.4 18.1597C5.12 18.6197 12 18.6197 12 18.6197C12 18.6197 18.88 18.6197 20.6 18.1597C21.0708 18.0265 21.498 17.7714 21.8387 17.4203C22.1793 17.0691 22.4212 16.6343 22.54 16.1597C22.8524 14.4273 23.0063 12.67 23 10.9097C23.0112 9.12262 22.8572 7.33837 22.54 5.57967V5.57967Z" stroke="#293341" stroke-width="2" stroke-linecap="round" stroke-linejoin="round"/>
<path d="M9.75 14.1796L15.5 10.9096L9.75 7.63965V14.1796Z" stroke="#293341" stroke-width="2" stroke-linecap="round" stroke-linejoin="round"/>
</svg>
